<svg width="25" height="24" viewBox="0 0 25 24" fill="none" xmlns="http://www.w3.org/2000/svg">
<path d="M8.5 11.4002C8.5 12.1702 9.1 12.8002 9.83 12.8002H11.33C11.97 12.8002 12.49 12.2502 12.49 11.5802C12.49 10.8502 12.17 10.5902 11.7 10.4202L9.3 9.5802C8.82 9.4102 8.5 9.1502 8.5 8.4202C8.5 7.7502 9.02 7.2002 9.66 7.2002H11.16C11.9 7.2102 12.5 7.8302 12.5 8.6002" stroke="white" stroke-width="1.5" stroke-linecap="round" stroke-linejoin="round"/>
<path d="M10.5 12.8496V13.5896" stroke="white" stroke-width="1.5" stroke-linecap="round" stroke-linejoin="round"/>
<path d="M10.5 6.41016V7.19016" stroke="white" stroke-width="1.5" stroke-linecap="round" stroke-linejoin="round"/>
<path d="M10.49 17.98C14.9028 17.98 18.48 14.4028 18.48 9.99C18.48 5.57724 14.9028 2 10.49 2C6.07724 2 2.5 5.57724 2.5 9.99C2.5 14.4028 6.07724 17.98 10.49 17.98Z" stroke="white" stroke-width="1.5" stroke-linecap="round" stroke-linejoin="round"/>
<path d="M13.48 19.88C14.38 21.15 15.85 21.98 17.53 21.98C20.26 21.98 22.48 19.76 22.48 17.03C22.48 15.37 21.66 13.9 20.41 13" stroke="white" stroke-width="1.5" stroke-linecap="round" stroke-linejoin="round"/>
</svg>
