<svg width="24" height="24" viewBox="0 0 24 24" fill="none" xmlns="http://www.w3.org/2000/svg">
<g clip-path="url(#clip0_1443_8580)">
<path d="M13.0905 2.60059L13.317 1.11709L20.7345 2.24959L20.508 3.73309L13.0905 2.60059Z" fill="#2F8474"/>
<path d="M19.869 8.69853L21.8995 11.4584L22.875 10.5471L21.0458 7.61328L19.869 8.69853Z" fill="#2F8474"/>
<path d="M18.4686 3.4209L18.6951 1.9374L19.066 1.99402L18.8395 3.47752L18.4686 3.4209Z" fill="#349381"/>
<path d="M21.0457 7.61405L17.7778 10.6277L18.1684 9.07253L18.8962 8.35798C19.5016 7.76362 19.9613 7.03721 20.2392 6.23561C20.5171 5.43401 20.6057 4.57898 20.4981 3.73743L13.0835 2.6084L11.7927 16.0675L16.2414 16.7449L22.8749 10.5478L21.0457 7.61405Z" fill="#349381"/>
<path d="M19.4271 4.71279L18.6633 7.25205L17.068 7.76904L15.6971 6.80295L15.7193 4.15137L19.4271 4.71279Z" fill="#54AA9A"/>
<path d="M15.713 4.90896L19.2089 5.43827L19.4271 4.71279L15.7193 4.15137L15.713 4.90896Z" fill="#41A08E"/>
<path d="M17.625 5.72818L16.3375 4.38244C15.3737 3.37503 14.1753 2.62214 12.8494 2.19108L11.734 1.83105L6.66356 2.05498L5.58396 2.51415C4.30158 3.06119 3.17473 3.91747 2.30417 5.00645L1.14124 6.46115L3.50563 8.98361L4.58788 7.99706L5.02932 17.9248L14.7697 17.4916L14.3283 7.56394L15.4938 8.45054L17.625 5.72818Z" fill="#FC8860"/>
<path d="M4.97229 16.8037L14.7125 16.3747L14.762 17.4986L5.02179 17.9276L4.97229 16.8037Z" fill="#F2C34E"/>
<path d="M17.625 5.72868L16.5122 4.56543L14.418 7.63265L15.4938 8.45104L17.625 5.72868Z" fill="#F2C34E"/>
<path d="M1.14124 6.46152L3.50566 8.98396L4.50466 8.07332L2.14647 5.2041L1.14124 6.46152Z" fill="#F2C34E"/>
<path d="M6.9187 1.32492L9.28308 3.84736L11.4142 1.125L6.9187 1.32492Z" fill="#FCA98C"/>
<path d="M6.9187 1.3249L8.07193 2.55523L8.09889 2.54093C8.43951 2.35 8.82011 2.24146 9.21021 2.22401C9.60031 2.20657 9.98907 2.28068 10.3454 2.44044L10.3744 2.45336L11.4143 1.125L6.9187 1.3249Z" fill="#F2C34E"/>
<path d="M9.09399 3.85938L9.46862 3.84288L9.61712 7.2145L9.24249 7.231L9.09399 3.85938Z" fill="#F2C34E"/>
<path d="M12.0174 2.45791L11.4142 1.125L9.28308 3.84735L9.97092 4.263C10.1071 4.34533 10.266 4.38218 10.4246 4.36822C10.5831 4.35426 10.7331 4.29022 10.8529 4.18537L11.8282 3.33138C11.9493 3.22535 12.033 3.0832 12.0671 2.92591C12.1012 2.76862 12.0838 2.60454 12.0174 2.45791Z" fill="#E37A56"/>
<path d="M7.85706 5.60352L8.60631 5.57052L8.62281 5.94514L7.87356 5.97814L7.85706 5.60352Z" fill="#F2C34E"/>
<path d="M7.90649 6.72754L8.65574 6.69454L8.67224 7.06916L7.92299 7.10216L7.90649 6.72754Z" fill="#F2C34E"/>
<path d="M15.5917 19.251C15.5805 19.2657 14.4438 20.7332 12.1821 22.131C10.9329 22.903 9.78957 22.7071 9.3058 22.1145C8.93272 21.6575 9.01965 21.0555 9.53839 20.5044C9.93614 20.0818 10.9825 19.3369 13.5211 19.097L13.4859 18.7236C12.6799 18.7998 11.7175 18.9563 10.863 19.2712C10.3171 19.7387 9.71817 20.1405 9.07853 20.4682C8.51544 21.2139 8.66152 21.9182 9.0153 22.3516C9.34132 22.751 9.90053 23.0102 10.5789 23.0102C11.1223 23.0101 11.742 22.8438 12.3792 22.45C13.3248 21.8685 14.207 21.1897 15.0114 20.4247C15.5899 19.8691 15.8777 19.4943 15.8897 19.4786L15.5917 19.251Z" fill="#DFDFDF"/>
<path d="M12.1116 16.6154C11.8027 15.7936 10.6647 15.391 9.16926 15.4441L3.02325 17.7546C1.86322 18.6998 1.27224 19.7524 1.58118 20.5742C2.09134 21.9312 4.86222 22.1451 7.77013 21.0519C10.678 19.9587 12.6218 17.9724 12.1116 16.6154Z" fill="#E2AC40"/>
<path d="M8.11011 13.7825C7.92517 13.4924 7.64611 13.2747 7.31973 13.1659C6.99335 13.0571 6.63948 13.0637 6.31744 13.1848L3.68065 14.1761C3.35861 14.2972 3.08798 14.5252 2.91412 14.8221C2.74026 15.119 2.67374 15.4666 2.72571 15.8067L3.36506 19.9906C4.44284 20.0295 5.7619 19.8036 7.11041 19.2967C8.45894 18.7897 9.60011 18.0907 10.3854 17.3514L8.11011 13.7825Z" fill="#F2C34E"/>
<path d="M4.46399 7.85645L5.5462 6.86943L5.79892 7.14652L4.71671 8.13354L4.46399 7.85645Z" fill="#E37A56"/>
<path d="M13.0439 6.82324L13.2708 6.52474L14.4365 7.41072L14.2096 7.70922L13.0439 6.82324Z" fill="#E37A56"/>
<path d="M14.7594 2.85742L14.9859 1.37392L15.3567 1.43054L15.1302 2.91404L14.7594 2.85742Z" fill="#349381"/>
<path d="M16.614 3.13867L16.8405 1.65517L17.2113 1.71179L16.9848 3.19529L16.614 3.13867Z" fill="#349381"/>
<path d="M6.91871 1.3252L6.43624 2.70638C6.38317 2.85832 6.38038 3.02329 6.42828 3.17694C6.47618 3.33058 6.57223 3.46474 6.70224 3.5596L7.7495 4.32365C7.87808 4.41747 8.03317 4.46794 8.19234 4.46777C8.35151 4.4676 8.5065 4.4168 8.63488 4.32272L9.28311 3.84765L6.91871 1.3252Z" fill="#E37A56"/>
<path d="M10.3853 17.3516L9.81494 16.457C9.03932 17.1372 7.96623 17.7733 6.71444 18.2439C5.46268 18.7144 4.23629 18.9428 3.20471 18.9421L3.36497 19.9908C4.44276 20.0297 5.76181 19.8039 7.11033 19.2969C8.45885 18.7899 9.60002 18.0909 10.3853 17.3516Z" fill="#CC993E"/>
<path d="M16.1239 16.4736L17.5433 10.8308L17.9071 10.9223L16.4877 16.5651L16.1239 16.4736Z" fill="#2F8474"/>
<path d="M22.8564 16.9656C22.7282 16.5117 21.9607 16.3645 21.718 15.9908C21.4664 15.6036 21.6227 14.8196 21.2772 14.5357C20.9282 14.249 20.2344 14.5936 19.82 14.4302C19.4097 14.2685 19.0916 13.5238 18.6469 13.5005C18.218 13.4781 17.8627 14.1826 17.4289 14.3052C16.9951 14.4277 16.3238 14.0131 15.9699 14.2566C15.6032 14.509 15.7216 15.3101 15.4566 15.6626C15.1888 16.0186 14.4173 16.0879 14.2699 16.5148C14.1239 16.9375 14.6673 17.5239 14.6554 17.9856C14.644 18.431 14.067 18.958 14.1952 19.4119C14.3234 19.8657 15.0908 20.013 15.3336 20.3866C15.5852 20.7738 15.4289 21.5579 15.7744 21.8418C16.1234 22.1285 16.8172 21.7839 17.2316 21.9472C17.6418 22.109 17.96 22.8537 18.4046 22.8769C18.8336 22.8993 19.1889 22.1948 19.6227 22.0723C20.0565 21.9497 20.7278 22.3643 21.0817 22.1208C21.4484 21.8684 21.33 21.0673 21.595 20.7148C21.8627 20.3588 22.6343 20.2896 22.7817 19.8626C22.9277 19.4399 22.3843 18.8535 22.3961 18.3919C22.4075 17.9464 22.9846 17.4194 22.8564 16.9656Z" fill="#FC8860"/>
<path d="M20.0245 16.596L17.8123 15.6621L16.4156 17.6153L17.231 20.5024L20.8399 19.4831L20.0245 16.596Z" fill="#F2C34E"/>
<path d="M17.6991 18.0225L19.1421 17.6145L19.7541 19.779L18.3111 20.187L17.6991 18.0225Z" fill="#CC993E"/>
<path d="M7.85706 5.60352L8.60631 5.57052L8.62281 5.94514L7.87356 5.97814L7.85706 5.60352Z" fill="#1D3F39"/>
<path d="M7.90649 6.72754L8.65574 6.69454L8.67224 7.06916L7.92299 7.10216L7.90649 6.72754Z" fill="#1D3F39"/>
<path d="M17.2309 20.6899C17.2482 20.6899 17.2653 20.6875 17.2819 20.6828L20.8908 19.6636C20.9145 19.6569 20.9366 19.6456 20.956 19.6303C20.9753 19.6151 20.9914 19.5962 21.0035 19.5747C21.0155 19.5532 21.0232 19.5295 21.0261 19.5051C21.0289 19.4806 21.027 19.4558 21.0203 19.4321L20.2048 16.5451C20.1972 16.518 20.1835 16.493 20.1649 16.4719C20.1463 16.4509 20.1232 16.4342 20.0973 16.4233L17.8852 15.4894C17.846 15.4728 17.8023 15.4701 17.7613 15.4817C17.7203 15.4932 17.6845 15.5184 17.6597 15.5531L16.263 17.5063C16.2467 17.5292 16.2357 17.5554 16.2308 17.5831C16.226 17.6108 16.2274 17.6392 16.2351 17.6663L17.0505 20.5534C17.0617 20.5926 17.0853 20.6272 17.1178 20.6519C17.1504 20.6765 17.1901 20.6899 17.2309 20.6899ZM18.4431 19.9652L17.9335 18.1608L19.0161 17.855L19.5258 19.6594L18.4431 19.9652ZM17.8775 15.8932L19.8684 16.7337L20.6084 19.3536L19.8867 19.5575L19.326 17.5726C19.3194 17.5489 19.3081 17.5268 19.2928 17.5074C19.2776 17.4881 19.2587 17.472 19.2372 17.4599C19.2157 17.4479 19.192 17.4402 19.1676 17.4374C19.1431 17.4345 19.1183 17.4364 19.0946 17.4431L17.6511 17.8509C17.6274 17.8575 17.6053 17.8688 17.5859 17.8841C17.5666 17.8993 17.5505 17.9182 17.5384 17.9397C17.5264 17.9612 17.5187 17.9849 17.5159 18.0093C17.513 18.0338 17.5149 18.0586 17.5216 18.0823L18.0822 20.0671L17.3605 20.271L16.6205 17.6511L17.8775 15.8932Z" fill="#1D3F39"/>
<path d="M22.5836 18.3967C22.5874 18.2458 22.6934 18.0496 22.7958 17.8599C22.9522 17.5704 23.1294 17.2423 23.0368 16.9146C22.9442 16.587 22.6216 16.4 22.337 16.2351C22.1504 16.127 21.9574 16.0152 21.8752 15.8887C21.7862 15.7517 21.7575 15.5169 21.7298 15.2898C21.6881 14.9483 21.645 14.5953 21.3962 14.3908C21.1411 14.1813 20.7812 14.2234 20.4636 14.2606C20.2503 14.2856 20.0297 14.3114 19.8888 14.2558C19.7708 14.2093 19.6441 14.0788 19.5192 13.9389L23.0029 10.6844C23.0347 10.6547 23.0552 10.6149 23.0608 10.5719C23.0665 10.5288 23.0571 10.485 23.0341 10.4482L21.2049 7.51436C21.1903 7.49095 21.1707 7.47106 21.1475 7.45609C21.1244 7.44111 21.0982 7.43144 21.0708 7.42775C21.0435 7.42406 21.0157 7.42645 20.9894 7.43474C20.9631 7.44303 20.9389 7.45703 20.9186 7.47572L18.1128 10.0633L18.3374 9.16888L19.0276 8.4913C19.6483 7.87852 20.1206 7.13183 20.4083 6.30839C20.6959 5.48495 20.7913 4.60661 20.6872 3.74061L20.9092 2.28226C20.9129 2.25792 20.9118 2.23309 20.9059 2.20918C20.9 2.18527 20.8895 2.16276 20.8749 2.14292C20.8603 2.12309 20.842 2.10632 20.8209 2.09358C20.7998 2.08084 20.7764 2.07237 20.7521 2.06867L13.3376 0.939638C13.3132 0.93593 13.2884 0.937054 13.2645 0.942945C13.2406 0.948836 13.2181 0.959379 13.1982 0.973972C13.1784 0.988565 13.1616 1.00692 13.1489 1.028C13.1361 1.04907 13.1277 1.07244 13.124 1.09679L12.9806 2.03833C12.956 2.03008 12.9317 2.02114 12.907 2.01312L11.8706 1.67859L11.5852 1.04772L11.5848 1.0479C11.5835 1.04501 11.5825 1.04202 11.581 1.03918C11.5645 1.00741 11.5392 0.981006 11.5082 0.963039C11.4773 0.945071 11.4418 0.936282 11.406 0.937696L6.91043 1.1376C6.87461 1.1392 6.83999 1.15103 6.81069 1.1717C6.78138 1.19237 6.75862 1.22101 6.74509 1.25422C6.74389 1.25717 6.74321 1.26023 6.74216 1.26322L6.74175 1.26307L6.5139 1.91535L5.51036 2.34216C4.20009 2.9024 3.04844 3.77754 2.1577 4.88986L0.994799 6.34457C0.966634 6.37978 0.952106 6.42396 0.953881 6.46902C0.955655 6.51407 0.973611 6.55697 1.00446 6.58986L3.36885 9.11232C3.40254 9.14828 3.44903 9.16952 3.49827 9.17146C3.5475 9.17339 3.59552 9.15586 3.63193 9.12267L4.41834 8.40579L4.64981 13.6114L3.61467 14.0006C3.25324 14.138 2.94964 14.3948 2.75423 14.7285C2.55883 15.0622 2.48336 15.4526 2.54034 15.8351L2.82196 17.6781C1.59815 18.7035 1.08207 19.7791 1.40573 20.6401C1.67957 21.3685 2.51645 21.8226 3.76216 21.9187C3.927 21.9314 4.09638 21.9378 4.27028 21.9377C5.35646 21.9377 6.60208 21.6913 7.83617 21.2273C8.1983 21.0912 8.54871 20.9402 8.88392 20.7769C8.56082 21.405 8.71077 21.9788 9.01527 22.3518C9.34129 22.7511 9.9005 23.0104 10.5789 23.0103C11.1222 23.0103 11.742 22.844 12.3791 22.4502C13.3248 21.8687 14.207 21.1899 15.0114 20.4249C15.5899 19.8693 15.8777 19.4945 15.8897 19.4788L15.5917 19.2512C15.5805 19.2658 14.4438 20.7334 12.182 22.1312C10.9329 22.9032 9.78954 22.7072 9.30577 22.1146C8.93269 21.6576 9.01962 21.0557 9.53836 20.5046C9.60635 20.433 9.67874 20.3657 9.7551 20.303C9.9637 20.1769 10.163 20.0462 10.353 19.9108C10.9827 19.5769 11.9747 19.2433 13.5211 19.0972L13.4858 18.7238C12.8117 18.7875 12.0282 18.9078 11.2898 19.1296C11.312 19.1075 11.3351 19.0857 11.3567 19.0636C11.7774 18.6338 12.0717 18.204 12.2337 17.7926L14.4074 17.6959C14.4446 17.7864 14.4651 17.8829 14.468 17.9808C14.4642 18.1316 14.3582 18.3278 14.2557 18.5176C14.0994 18.8071 13.9222 19.1352 14.0147 19.4628C14.0484 19.5764 14.1085 19.6804 14.19 19.7663L14.4662 19.5127C14.4244 19.47 14.3934 19.418 14.3756 19.3609C14.3244 19.1796 14.4573 18.9336 14.5857 18.6958C14.7091 18.4672 14.8367 18.2309 14.8429 17.9904C14.8493 17.7403 14.7326 17.4852 14.6197 17.2384C14.5072 16.9926 14.391 16.7385 14.4471 16.576C14.5028 16.4148 14.7439 16.303 14.977 16.195C15.2139 16.0852 15.4588 15.9716 15.6064 15.7753C15.751 15.5831 15.7979 15.3115 15.8433 15.0489C15.8893 14.7825 15.9369 14.507 16.0762 14.4111C16.2029 14.3238 16.4586 14.3807 16.706 14.4356C16.9677 14.4937 17.2384 14.5539 17.4799 14.4856C17.7213 14.4174 17.9206 14.2246 18.1132 14.0381C18.2952 13.862 18.4842 13.679 18.6371 13.6878C18.8061 13.6966 18.9908 13.9065 19.1694 14.1095C19.3454 14.3096 19.5275 14.5165 19.7513 14.6047C19.9798 14.6948 20.2478 14.6634 20.5072 14.633C20.7624 14.6031 21.0263 14.5723 21.1581 14.6806C21.2909 14.7897 21.3248 15.0671 21.3575 15.3353C21.3905 15.6047 21.4245 15.8832 21.5607 16.093C21.6919 16.2947 21.9242 16.4294 22.149 16.5596C22.3828 16.6951 22.6247 16.8352 22.6759 17.0166C22.7271 17.1979 22.5943 17.4439 22.4659 17.6817C22.3425 17.9102 22.2148 18.1466 22.2087 18.3871C22.2023 18.6371 22.319 18.8923 22.4319 19.1391C22.5443 19.3849 22.6606 19.639 22.6044 19.8014C22.5488 19.9627 22.3077 20.0744 22.0746 20.1825C21.8377 20.2923 21.5928 20.4058 21.4452 20.6021C21.3006 20.7944 21.2537 21.0659 21.2083 21.3285C21.1623 21.595 21.1147 21.8705 20.9754 21.9664C20.8486 22.0536 20.5929 21.9968 20.3457 21.9419C20.0839 21.8837 19.8131 21.8237 19.5717 21.8918C19.3302 21.96 19.1309 22.1529 18.9383 22.3394C18.7563 22.5156 18.568 22.6988 18.4144 22.6897C18.2455 22.6809 18.0608 22.4709 17.8822 22.2679C17.7062 22.0679 17.5241 21.861 17.3003 21.7728C17.0719 21.6827 16.8038 21.7141 16.5443 21.7444C16.2892 21.7743 16.0253 21.8052 15.8934 21.6969C15.7606 21.5878 15.7267 21.3104 15.694 21.0421C15.6857 20.9739 15.6773 20.9055 15.6674 20.8386L15.2964 20.8935C15.3059 20.9573 15.3138 21.0225 15.3217 21.0876C15.3634 21.4291 15.4066 21.7822 15.6554 21.9866C15.9104 22.1962 16.2704 22.1541 16.588 22.1169C16.8013 22.0919 17.0219 22.0661 17.1628 22.1217C17.3024 22.1767 17.4541 22.349 17.6007 22.5157C17.8306 22.777 18.0683 23.0471 18.3949 23.0642C18.4052 23.0647 18.4156 23.065 18.4258 23.065C18.7278 23.065 18.9672 22.8332 19.1991 22.6088C19.3584 22.4547 19.5231 22.2952 19.6736 22.2527C19.8243 22.2103 20.0479 22.2599 20.2644 22.308C20.5899 22.3803 20.9267 22.4551 21.1879 22.2753C21.4573 22.0899 21.5186 21.7353 21.5778 21.3924C21.6156 21.1736 21.6547 20.9474 21.7449 20.8275C21.8359 20.7064 22.0374 20.613 22.2323 20.5227C22.5224 20.3883 22.8512 20.2358 22.9589 19.9238C23.064 19.6195 22.916 19.296 22.7729 18.9831C22.6778 18.7751 22.5794 18.56 22.5836 18.3967ZM21.0064 7.90488L22.6342 10.5157L21.9255 11.1777L20.1194 8.72287L21.0064 7.90488ZM20.3409 3.52335L18.858 3.29754L19.0274 2.18536L20.5103 2.41117L20.3409 3.52335ZM15.1508 2.73303L15.3201 1.62086L16.803 1.84666L16.6337 2.95884L15.1508 2.73303ZM17.1737 1.90311L18.6567 2.12892L18.4873 3.24109L17.0044 3.01529L17.1737 1.90311ZM13.4665 1.3386L14.9494 1.56441L14.7801 2.67659L14.2894 2.60188C13.9821 2.43818 13.6651 2.29324 13.3402 2.16784L13.4665 1.3386ZM6.6133 2.76795L6.9937 1.679L9.00163 3.82121L8.5241 4.17117C8.42793 4.24204 8.31164 4.28033 8.19218 4.28046C8.07272 4.28059 7.95634 4.24256 7.86002 4.1719L6.81279 3.40785C6.71487 3.33706 6.64251 3.23646 6.60655 3.1211C6.57059 3.00574 6.57296 2.88184 6.6133 2.76795ZM9.2703 3.55956L8.38054 2.61028C8.91491 2.37316 9.51904 2.34629 10.0723 2.53504L9.2703 3.55956ZM11.3711 1.48436L11.8466 2.53522C11.8969 2.64509 11.9103 2.76829 11.8847 2.88638C11.8591 3.00447 11.796 3.11111 11.7047 3.19032L10.7294 4.0443C10.6397 4.12322 10.5272 4.17143 10.4082 4.1819C10.2892 4.19238 10.17 4.16458 10.0679 4.10256L9.56118 3.79635L11.3711 1.48436ZM11.0154 1.33043L10.3151 2.225C9.96157 2.08509 9.58249 2.02149 9.20269 2.03838C8.8229 2.05527 8.45096 2.15227 8.11129 2.32301L7.33437 1.49413L11.0154 1.33043ZM3.51598 8.72096L1.38907 6.45189L2.14847 5.50194L4.24669 8.05486L3.51598 8.72096ZM3.7466 14.3516L6.38336 13.3603C6.66527 13.2555 6.97453 13.2503 7.25984 13.3454C7.54515 13.4405 7.78937 13.6303 7.95198 13.8833L9.56912 16.4199C8.79768 17.0652 7.76776 17.6474 6.64855 18.0682C5.52927 18.4889 4.37094 18.7294 3.36542 18.7521L2.91104 15.7784C2.86672 15.481 2.92541 15.1773 3.07739 14.9178C3.22936 14.6583 3.46549 14.4585 3.7466 14.3516ZM10.1427 17.3197C9.35311 18.0278 8.25965 18.6644 7.04442 19.1212C5.82906 19.5781 4.5865 19.8192 3.5266 19.807L3.42259 19.1263C4.46781 19.097 5.62348 18.8541 6.78047 18.4192C7.93755 17.9842 8.96696 17.4056 9.77255 16.7391L10.1427 17.3197ZM11.0887 18.8013C10.2875 19.6201 9.0855 20.357 7.70424 20.8763C6.32294 21.3956 4.93303 21.6329 3.791 21.5448C2.69883 21.4605 1.97638 21.0923 1.75675 20.5081C1.51084 19.854 1.93254 18.9739 2.88891 18.1162L3.17966 20.019C3.18625 20.0621 3.20769 20.1016 3.24029 20.1307C3.27289 20.1597 3.3146 20.1765 3.35823 20.178C3.4393 20.181 3.5214 20.1824 3.60451 20.1824C4.69239 20.1824 5.94977 19.9333 7.17635 19.4722C8.49663 18.9759 9.68192 18.2712 10.5139 17.488C10.5456 17.458 10.566 17.418 10.5714 17.3746C10.5768 17.3313 10.5669 17.2875 10.5434 17.2506L9.50867 15.6275C10.7932 15.6425 11.6902 16.0271 11.9362 16.6813C12.1558 17.2655 11.8549 18.0184 11.0887 18.8013ZM14.0927 16.4536C13.995 16.7364 14.1158 17.0357 14.2482 17.3276L12.3467 17.4122C12.4085 17.1247 12.3879 16.8256 12.2872 16.5493C11.9635 15.6884 10.8654 15.2192 9.27043 15.2538L8.26821 13.6817C8.05913 13.3565 7.74514 13.1124 7.37831 12.9901C7.01149 12.8678 6.61388 12.8746 6.25144 13.0093L5.01901 13.4726L4.77909 8.07693L5.79642 7.14955L5.54383 6.87242L4.52417 7.80191L2.3878 5.20255L2.45058 5.12401C3.30256 4.0601 4.40407 3.22305 5.6573 2.68717L6.3467 2.39399L6.25926 2.64426C6.19204 2.8341 6.1881 3.0406 6.24804 3.23286C6.30799 3.42512 6.42858 3.5928 6.59179 3.7108L7.63901 4.47485C7.79954 4.59259 7.99349 4.65598 8.19257 4.65576C8.39165 4.65555 8.58546 4.59175 8.74574 4.47366L9.11136 4.20571L9.24576 7.22736L9.62039 7.2107L9.48599 4.18903L9.87399 4.42349C10.0441 4.52689 10.2428 4.57324 10.4411 4.55578C10.6394 4.53832 10.827 4.45796 10.9764 4.32643L11.9517 3.47244C12.1038 3.34043 12.2091 3.16272 12.2517 2.9659C12.2944 2.76909 12.2721 2.56375 12.1883 2.38063L12.0794 2.14004L12.7915 2.36987C14.0874 2.79237 15.2589 3.52838 16.202 4.51253L16.2715 4.5852L14.3743 7.36388L13.2762 6.52859L13.0492 6.82705L14.1448 7.66047L14.5159 16.0064C14.3287 16.1136 14.1632 16.2493 14.0927 16.4536ZM17.3772 5.74096L15.4601 8.18984L14.6732 7.59122L16.5365 4.86217L17.3772 5.74096ZM17.7726 5.84425C17.8004 5.80875 17.8144 5.76442 17.8122 5.71939C17.81 5.67436 17.7916 5.63164 17.7604 5.59905L17.5473 5.37629L18.5452 5.52739L18.6013 5.1566L17.123 4.93276L16.6987 4.48925L19.1852 4.86576L18.5121 7.10391L17.0993 7.56172L16.6667 7.25682L17.7726 5.84425ZM15.8636 14.1022C15.5942 14.2876 15.533 14.6422 15.4737 14.9851C15.436 15.2038 15.3969 15.43 15.3067 15.55C15.2256 15.6578 15.0569 15.7436 14.8833 15.825L14.5333 7.956L15.3803 8.60024C15.4195 8.63008 15.4689 8.64327 15.5177 8.63698C15.5666 8.63068 15.611 8.6054 15.6414 8.5666L16.4353 7.55249L16.9599 7.92225C16.9837 7.93902 17.0111 7.95002 17.0399 7.95438C17.0686 7.95873 17.0981 7.95633 17.1257 7.94736L18.7211 7.43036C18.75 7.42101 18.7761 7.40481 18.7973 7.38315C18.8185 7.36149 18.8341 7.33501 18.8429 7.30599L19.6066 4.76672C19.6143 4.741 19.6165 4.71391 19.6128 4.6873C19.6092 4.66069 19.5999 4.63517 19.5855 4.61247C19.5711 4.58977 19.5521 4.57042 19.5296 4.55573C19.5071 4.54104 19.4817 4.53136 19.4551 4.52734L16.2655 4.04436C15.9124 3.70031 15.5305 3.38714 15.124 3.10829L20.3279 3.90069C20.4057 4.69218 20.3057 5.49104 20.0353 6.23895C19.7649 6.98686 19.3309 7.66494 18.7649 8.22369L18.037 8.93823C18.0124 8.96243 17.995 8.99292 17.9865 9.02638L16.7235 14.0554C16.4181 13.9885 16.1078 13.9342 15.8636 14.1022ZM18.6567 13.3133C18.3404 13.2968 18.0922 13.5366 17.8524 13.7686C17.6932 13.9228 17.5285 14.0822 17.378 14.1247C17.2838 14.145 17.1865 14.1464 17.0917 14.1288L17.9461 10.7271L19.8421 8.97864L21.6496 11.4355L19.268 13.6604C19.091 13.477 18.8982 13.3259 18.6567 13.3133Z" fill="#1D3F39"/>
</g>
<defs>
<clipPath id="clip0_1443_8580">
<rect width="24" height="24" fill="white"/>
</clipPath>
</defs>
</svg>
