<svg width="24" height="24" viewBox="0 0 24 24" fill="none" xmlns="http://www.w3.org/2000/svg">
<g clip-path="url(#clip0_1506_18299)">
<path d="M13.0905 2.60059L13.317 1.11709L20.7345 2.24959L20.508 3.73309L13.0905 2.60059Z" fill="#2F8474"/>
<path d="M19.869 8.69853L21.8995 11.4584L22.875 10.5471L21.0458 7.61328L19.869 8.69853Z" fill="#2F8474"/>
<path d="M18.4687 3.4209L18.6952 1.9374L19.066 1.99402L18.8395 3.47752L18.4687 3.4209Z" fill="#349381"/>
<path d="M21.0458 7.61405L17.7779 10.6277L18.1685 9.07253L18.8963 8.35798C19.5017 7.76362 19.9613 7.03721 20.2392 6.23561C20.5171 5.43401 20.6057 4.57898 20.4981 3.73743L13.0836 2.6084L11.7928 16.0675L16.2415 16.7449L22.875 10.5478L21.0458 7.61405Z" fill="#349381"/>
<path d="M19.4272 4.71279L18.6634 7.25205L17.068 7.76904L15.6972 6.80295L15.7194 4.15137L19.4272 4.71279Z" fill="#54AA9A"/>
<path d="M15.7131 4.90896L19.2089 5.43827L19.4272 4.71279L15.7194 4.15137L15.7131 4.90896Z" fill="#41A08E"/>
<path d="M17.625 5.72818L16.3375 4.38244C15.3738 3.37503 14.1754 2.62214 12.8495 2.19108L11.7341 1.83105L6.66361 2.05498L5.584 2.51415C4.30162 3.06119 3.17478 3.91747 2.30422 5.00645L1.14128 6.46115L3.50568 8.98361L4.58792 7.99706L5.02937 17.9248L14.7697 17.4916L14.3283 7.56394L15.4938 8.45054L17.625 5.72818Z" fill="#FC8860"/>
<path d="M4.97228 16.8037L14.7125 16.3747L14.762 17.4986L5.02178 17.9276L4.97228 16.8037Z" fill="#F2C34E"/>
<path d="M17.625 5.72868L16.5121 4.56543L14.418 7.63265L15.4938 8.45104L17.625 5.72868Z" fill="#F2C34E"/>
<path d="M1.14126 6.46152L3.50568 8.98396L4.50468 8.07332L2.1465 5.2041L1.14126 6.46152Z" fill="#F2C34E"/>
<path d="M6.91879 1.32492L9.28317 3.84736L11.4143 1.125L6.91879 1.32492Z" fill="#FCA98C"/>
<path d="M6.9188 1.3249L8.07203 2.55523L8.09898 2.54093C8.43961 2.35 8.8202 2.24146 9.2103 2.22401C9.6004 2.20657 9.98917 2.28068 10.3455 2.44044L10.3745 2.45336L11.4144 1.125L6.9188 1.3249Z" fill="#F2C34E"/>
<path d="M9.09409 3.85938L9.46871 3.84288L9.61721 7.2145L9.24259 7.231L9.09409 3.85938Z" fill="#F2C34E"/>
<path d="M12.0175 2.45791L11.4144 1.125L9.28319 3.84735L9.97102 4.263C10.1072 4.34533 10.2661 4.38218 10.4247 4.36822C10.5832 4.35426 10.7332 4.29022 10.853 4.18537L11.8283 3.33138C11.9494 3.22535 12.0331 3.0832 12.0672 2.92591C12.1013 2.76862 12.0839 2.60454 12.0175 2.45791Z" fill="#E37A56"/>
<path d="M7.85712 5.60352L8.60637 5.57052L8.62287 5.94514L7.87362 5.97814L7.85712 5.60352Z" fill="#F2C34E"/>
<path d="M7.90657 6.72754L8.65582 6.69454L8.67232 7.06916L7.92307 7.10216L7.90657 6.72754Z" fill="#F2C34E"/>
<path d="M15.5917 19.251C15.5805 19.2657 14.4438 20.7332 12.1821 22.131C10.9329 22.903 9.78959 22.7071 9.30582 22.1145C8.93275 21.6575 9.01968 21.0555 9.53841 20.5044C9.93616 20.0818 10.9825 19.3369 13.5211 19.097L13.4859 18.7236C12.6799 18.7998 11.7175 18.9563 10.863 19.2712C10.3171 19.7387 9.71819 20.1405 9.07856 20.4682C8.51546 21.2139 8.66154 21.9182 9.01533 22.3516C9.34135 22.751 9.90055 23.0102 10.579 23.0102C11.1223 23.0101 11.742 22.8438 12.3792 22.45C13.3248 21.8685 14.207 21.1897 15.0114 20.4247C15.5899 19.8691 15.8778 19.4943 15.8897 19.4786L15.5917 19.251Z" fill="#DFDFDF"/>
<path d="M12.1117 16.6154C11.8028 15.7936 10.6648 15.391 9.16938 15.4441L3.02336 17.7546C1.86333 18.6998 1.27236 19.7524 1.58129 20.5742C2.09146 21.9312 4.86234 22.1451 7.77024 21.0519C10.6781 19.9587 12.6219 17.9724 12.1117 16.6154Z" fill="#E2AC40"/>
<path d="M8.11014 13.7825C7.92519 13.4924 7.64614 13.2747 7.31976 13.1659C6.99337 13.0571 6.6395 13.0637 6.31746 13.1848L3.68068 14.1761C3.35864 14.2972 3.088 14.5252 2.91414 14.8221C2.74028 15.119 2.67376 15.4666 2.72574 15.8067L3.36508 19.9906C4.44286 20.0295 5.76192 19.8036 7.11044 19.2967C8.45896 18.7897 9.60013 18.0907 10.3854 17.3514L8.11014 13.7825Z" fill="#F2C34E"/>
<path d="M4.46399 7.85645L5.5462 6.86943L5.79892 7.14652L4.71671 8.13354L4.46399 7.85645Z" fill="#E37A56"/>
<path d="M13.0441 6.82324L13.2709 6.52474L14.4366 7.41072L14.2097 7.70922L13.0441 6.82324Z" fill="#E37A56"/>
<path d="M14.7595 2.85742L14.986 1.37392L15.3568 1.43054L15.1303 2.91404L14.7595 2.85742Z" fill="#349381"/>
<path d="M16.6141 3.13867L16.8406 1.65517L17.2114 1.71179L16.9849 3.19529L16.6141 3.13867Z" fill="#349381"/>
<path d="M6.91879 1.3252L6.43632 2.70638C6.38325 2.85832 6.38046 3.02329 6.42836 3.17694C6.47626 3.33058 6.57231 3.46474 6.70232 3.5596L7.74958 4.32365C7.87816 4.41747 8.03325 4.46794 8.19242 4.46777C8.35159 4.4676 8.50658 4.4168 8.63496 4.32272L9.28319 3.84765L6.91879 1.3252Z" fill="#E37A56"/>
<path d="M10.3854 17.3516L9.81505 16.457C9.03943 17.1372 7.96634 17.7733 6.71455 18.2439C5.46279 18.7144 4.2364 18.9428 3.20482 18.9421L3.36509 19.9908C4.44287 20.0297 5.76192 19.8039 7.11044 19.2969C8.45896 18.7899 9.60014 18.0909 10.3854 17.3516Z" fill="#CC993E"/>
<path d="M16.124 16.4736L17.5434 10.8308L17.9072 10.9223L16.4878 16.5651L16.124 16.4736Z" fill="#2F8474"/>
<path d="M22.8564 16.9656C22.7282 16.5117 21.9608 16.3645 21.718 15.9908C21.4664 15.6036 21.6227 14.8196 21.2772 14.5357C20.9282 14.249 20.2345 14.5936 19.8201 14.4302C19.4098 14.2685 19.0916 13.5238 18.647 13.5005C18.218 13.4781 17.8628 14.1826 17.429 14.3052C16.9952 14.4277 16.3238 14.0131 15.97 14.2566C15.6032 14.509 15.7217 15.3101 15.4566 15.6626C15.1889 16.0186 14.4174 16.0879 14.2699 16.5148C14.124 16.9375 14.6674 17.5239 14.6555 17.9856C14.6441 18.431 14.0671 18.958 14.1953 19.4119C14.3235 19.8657 15.0909 20.013 15.3337 20.3866C15.5853 20.7738 15.4289 21.5579 15.7745 21.8418C16.1235 22.1285 16.8172 21.7839 17.2316 21.9472C17.6419 22.109 17.9601 22.8537 18.4047 22.8769C18.8337 22.8993 19.1889 22.1948 19.6227 22.0723C20.0565 21.9497 20.7279 22.3643 21.0817 22.1208C21.4485 21.8684 21.33 21.0673 21.5951 20.7148C21.8628 20.3588 22.6343 20.2896 22.7817 19.8626C22.9277 19.4399 22.3843 18.8535 22.3962 18.3919C22.4076 17.9464 22.9846 17.4194 22.8564 16.9656Z" fill="#FC8860"/>
<path d="M20.0245 16.596L17.8124 15.6621L16.4157 17.6153L17.2311 20.5024L20.8399 19.4831L20.0245 16.596Z" fill="#F2C34E"/>
<path d="M17.6992 18.0225L19.1422 17.6145L19.7542 19.779L18.3112 20.187L17.6992 18.0225Z" fill="#CC993E"/>
<path d="M7.85712 5.60352L8.60637 5.57052L8.62287 5.94514L7.87362 5.97814L7.85712 5.60352Z" fill="#1D3F39"/>
<path d="M7.90657 6.72754L8.65582 6.69454L8.67232 7.06916L7.92307 7.10216L7.90657 6.72754Z" fill="#1D3F39"/>
<path d="M17.231 20.6899C17.2483 20.6899 17.2654 20.6875 17.282 20.6828L20.8909 19.6636C20.9146 19.6569 20.9367 19.6456 20.9561 19.6303C20.9754 19.6151 20.9915 19.5962 21.0036 19.5747C21.0156 19.5532 21.0233 19.5295 21.0261 19.5051C21.029 19.4806 21.0271 19.4558 21.0204 19.4321L20.2049 16.5451C20.1973 16.518 20.1836 16.493 20.165 16.4719C20.1464 16.4509 20.1233 16.4342 20.0974 16.4233L17.8853 15.4894C17.8461 15.4728 17.8024 15.4701 17.7614 15.4817C17.7204 15.4932 17.6846 15.5184 17.6598 15.5531L16.2631 17.5063C16.2467 17.5292 16.2357 17.5554 16.2309 17.5831C16.2261 17.6108 16.2275 17.6392 16.2352 17.6663L17.0506 20.5534C17.0617 20.5926 17.0854 20.6272 17.1179 20.6519C17.1505 20.6765 17.1902 20.6899 17.231 20.6899ZM18.4432 19.9652L17.9336 18.1608L19.0162 17.855L19.5258 19.6594L18.4432 19.9652ZM17.8776 15.8932L19.8685 16.7337L20.6085 19.3536L19.8867 19.5575L19.3261 17.5726C19.3194 17.5489 19.3082 17.5268 19.2929 17.5074C19.2777 17.4881 19.2588 17.472 19.2373 17.4599C19.2158 17.4479 19.1921 17.4402 19.1677 17.4374C19.1432 17.4345 19.1184 17.4364 19.0947 17.4431L17.6512 17.8509C17.6275 17.8575 17.6054 17.8688 17.586 17.8841C17.5667 17.8993 17.5506 17.9182 17.5385 17.9397C17.5265 17.9612 17.5188 17.9849 17.5159 18.0093C17.5131 18.0338 17.515 18.0586 17.5217 18.0823L18.0823 20.0671L17.3605 20.271L16.6206 17.6511L17.8776 15.8932Z" fill="#1D3F39"/>
<path d="M22.5836 18.3967C22.5875 18.2458 22.6934 18.0496 22.7959 17.8599C22.9522 17.5704 23.1294 17.2423 23.0369 16.9146C22.9443 16.587 22.6217 16.4 22.337 16.2351C22.1504 16.127 21.9575 16.0152 21.8753 15.8887C21.7863 15.7517 21.7576 15.5169 21.7299 15.2898C21.6882 14.9483 21.645 14.5953 21.3962 14.3908C21.1412 14.1813 20.7812 14.2234 20.4637 14.2606C20.2504 14.2856 20.0298 14.3114 19.8888 14.2558C19.7708 14.2093 19.6442 14.0788 19.5192 13.9389L23.003 10.6844C23.0348 10.6547 23.0552 10.6149 23.0609 10.5719C23.0666 10.5288 23.0571 10.485 23.0341 10.4482L21.2049 7.51436C21.1903 7.49095 21.1708 7.47106 21.1476 7.45609C21.1244 7.44111 21.0982 7.43144 21.0709 7.42775C21.0436 7.42406 21.0158 7.42645 20.9894 7.43474C20.9631 7.44303 20.939 7.45703 20.9187 7.47572L18.1128 10.0633L18.3375 9.16888L19.0277 8.4913C19.6484 7.87852 20.1207 7.13183 20.4083 6.30839C20.696 5.48495 20.7914 4.60661 20.6872 3.74061L20.9093 2.28226C20.913 2.25792 20.9119 2.23309 20.906 2.20918C20.9001 2.18527 20.8895 2.16276 20.875 2.14292C20.8604 2.12309 20.842 2.10632 20.8209 2.09358C20.7999 2.08084 20.7765 2.07237 20.7522 2.06867L13.3376 0.939638C13.3133 0.93593 13.2885 0.937054 13.2645 0.942945C13.2406 0.948836 13.2181 0.959379 13.1983 0.973972C13.1784 0.988565 13.1617 1.00692 13.1489 1.028C13.1362 1.04907 13.1277 1.07244 13.124 1.09679L12.9807 2.03833C12.9561 2.03008 12.9317 2.02114 12.9071 2.01312L11.8707 1.67859L11.5852 1.04772L11.5848 1.0479C11.5835 1.04501 11.5826 1.04202 11.5811 1.03918C11.5645 1.00741 11.5393 0.981006 11.5083 0.963039C11.4773 0.945071 11.4418 0.936282 11.406 0.937696L6.91049 1.1376C6.87467 1.1392 6.84005 1.15103 6.81075 1.1717C6.78144 1.19237 6.75868 1.22101 6.74515 1.25422C6.74394 1.25717 6.74327 1.26023 6.74222 1.26322L6.7418 1.26307L6.51395 1.91535L5.51042 2.34216C4.20015 2.9024 3.0485 3.77754 2.15776 4.88986L0.994856 6.34457C0.966691 6.37978 0.952164 6.42396 0.953938 6.46902C0.955712 6.51407 0.973669 6.55697 1.00451 6.58986L3.36891 9.11232C3.4026 9.14828 3.44909 9.16952 3.49833 9.17146C3.54756 9.17339 3.59558 9.15586 3.63199 9.12267L4.4184 8.40579L4.64987 13.6114L3.61473 14.0006C3.2533 14.138 2.9497 14.3948 2.75429 14.7285C2.55888 15.0622 2.48341 15.4526 2.5404 15.8351L2.82202 17.6781C1.59821 18.7035 1.08213 19.7791 1.40579 20.6401C1.67962 21.3685 2.51651 21.8226 3.76222 21.9187C3.92706 21.9314 4.09643 21.9378 4.27034 21.9377C5.35652 21.9377 6.60214 21.6913 7.83622 21.2273C8.19836 21.0912 8.54877 20.9402 8.88397 20.7769C8.56087 21.405 8.71082 21.9788 9.01533 22.3518C9.34135 22.7511 9.90055 23.0104 10.579 23.0103C11.1223 23.0103 11.742 22.844 12.3792 22.4502C13.3248 21.8687 14.207 21.1899 15.0114 20.4249C15.5899 19.8693 15.8778 19.4945 15.8897 19.4788L15.5917 19.2512C15.5805 19.2658 14.4438 20.7334 12.1821 22.1312C10.9329 22.9032 9.78959 22.7072 9.30583 22.1146C8.93275 21.6576 9.01968 21.0557 9.53842 20.5046C9.60641 20.433 9.6788 20.3657 9.75516 20.303C9.96376 20.1769 10.1631 20.0462 10.3531 19.9108C10.9827 19.5769 11.9747 19.2433 13.5211 19.0972L13.4859 18.7238C12.8117 18.7875 12.0282 18.9078 11.2898 19.1296C11.312 19.1075 11.3351 19.0857 11.3568 19.0636C11.7774 18.6338 12.0717 18.204 12.2338 17.7926L14.4074 17.6959C14.4446 17.7864 14.4652 17.8829 14.4681 17.9808C14.4642 18.1316 14.3583 18.3278 14.2558 18.5176C14.0994 18.8071 13.9223 19.1352 14.0148 19.4628C14.0485 19.5764 14.1086 19.6804 14.1901 19.7663L14.4663 19.5127C14.4245 19.47 14.3934 19.418 14.3757 19.3609C14.3245 19.1796 14.4573 18.9336 14.5857 18.6958C14.7092 18.4672 14.8368 18.2309 14.843 17.9904C14.8493 17.7403 14.7326 17.4852 14.6197 17.2384C14.5073 16.9926 14.3911 16.7385 14.4472 16.576C14.5029 16.4148 14.7439 16.303 14.9771 16.195C15.2139 16.0852 15.4589 15.9716 15.6065 15.7753C15.751 15.5831 15.798 15.3115 15.8433 15.0489C15.8893 14.7825 15.9369 14.507 16.0762 14.4111C16.203 14.3238 16.4587 14.3807 16.706 14.4356C16.9678 14.4937 17.2385 14.5539 17.48 14.4856C17.7214 14.4174 17.9207 14.2246 18.1133 14.0381C18.2953 13.862 18.4842 13.679 18.6372 13.6878C18.8061 13.6966 18.9908 13.9065 19.1694 14.1095C19.3455 14.3096 19.5275 14.5165 19.7513 14.6047C19.9798 14.6948 20.2479 14.6634 20.5073 14.633C20.7624 14.6031 21.0263 14.5723 21.1582 14.6806C21.291 14.7897 21.3249 15.0671 21.3576 15.3353C21.3905 15.6047 21.4245 15.8832 21.5608 16.093C21.6919 16.2947 21.9243 16.4294 22.149 16.5596C22.3829 16.6951 22.6248 16.8352 22.676 17.0166C22.7272 17.1979 22.5944 17.4439 22.4659 17.6817C22.3425 17.9102 22.2149 18.1466 22.2087 18.3871C22.2023 18.6371 22.319 18.8923 22.432 19.1391C22.5444 19.3849 22.6606 19.639 22.6045 19.8014C22.5488 19.9627 22.3078 20.0744 22.0746 20.1825C21.8378 20.2923 21.5928 20.4058 21.4452 20.6021C21.3007 20.7944 21.2537 21.0659 21.2084 21.3285C21.1623 21.595 21.1147 21.8705 20.9754 21.9664C20.8487 22.0536 20.593 21.9968 20.3457 21.9419C20.0839 21.8837 19.8132 21.8237 19.5718 21.8918C19.3303 21.96 19.131 22.1529 18.9383 22.3394C18.7564 22.5156 18.5681 22.6988 18.4145 22.6897C18.2456 22.6809 18.0609 22.4709 17.8823 22.2679C17.7063 22.0679 17.5242 21.861 17.3004 21.7728C17.0719 21.6827 16.8038 21.7141 16.5444 21.7444C16.2892 21.7743 16.0253 21.8052 15.8935 21.6969C15.7607 21.5878 15.7268 21.3104 15.6941 21.0421C15.6857 20.9739 15.6774 20.9055 15.6675 20.8386L15.2965 20.8935C15.3059 20.9573 15.3139 21.0225 15.3218 21.0876C15.3635 21.4291 15.4066 21.7822 15.6555 21.9866C15.9104 22.1962 16.2705 22.1541 16.588 22.1169C16.8013 22.0919 17.022 22.0661 17.1629 22.1217C17.3025 22.1767 17.4541 22.349 17.6007 22.5157C17.8306 22.777 18.0684 23.0471 18.3949 23.0642C18.4053 23.0647 18.4156 23.065 18.4259 23.065C18.7278 23.065 18.9673 22.8332 19.1992 22.6088C19.3584 22.4547 19.5232 22.2952 19.6737 22.2527C19.8244 22.2103 20.0479 22.2599 20.2644 22.308C20.59 22.3803 20.9268 22.4551 21.188 22.2753C21.4574 22.0899 21.5186 21.7353 21.5779 21.3924C21.6157 21.1736 21.6548 20.9474 21.745 20.8275C21.836 20.7064 22.0375 20.613 22.2323 20.5227C22.5224 20.3883 22.8512 20.2358 22.959 19.9238C23.0641 19.6195 22.9161 19.296 22.773 18.9831C22.6778 18.7751 22.5794 18.56 22.5836 18.3967ZM21.0065 7.90488L22.6343 10.5157L21.9256 11.1777L20.1195 8.72287L21.0065 7.90488ZM20.341 3.52335L18.8581 3.29754L19.0274 2.18536L20.5103 2.41117L20.341 3.52335ZM15.1508 2.73303L15.3202 1.62086L16.8031 1.84666L16.6337 2.95884L15.1508 2.73303ZM17.1738 1.90311L18.6567 2.12892L18.4874 3.24109L17.0044 3.01529L17.1738 1.90311ZM13.4665 1.3386L14.9495 1.56441L14.7801 2.67659L14.2895 2.60188C13.9821 2.43818 13.6651 2.29324 13.3403 2.16784L13.4665 1.3386ZM6.61336 2.76795L6.99376 1.679L9.00169 3.82121L8.52415 4.17117C8.42798 4.24204 8.31169 4.28033 8.19223 4.28046C8.07278 4.28059 7.9564 4.24256 7.86007 4.1719L6.81285 3.40785C6.71493 3.33706 6.64257 3.23646 6.60661 3.1211C6.57065 3.00574 6.57301 2.88184 6.61336 2.76795ZM9.27035 3.55956L8.3806 2.61028C8.91496 2.37316 9.5191 2.34629 10.0724 2.53504L9.27035 3.55956ZM11.3712 1.48436L11.8467 2.53522C11.897 2.64509 11.9103 2.76829 11.8847 2.88638C11.8592 3.00447 11.796 3.11111 11.7048 3.19032L10.7295 4.0443C10.6398 4.12322 10.5273 4.17143 10.4083 4.1819C10.2893 4.19238 10.17 4.16458 10.068 4.10256L9.56124 3.79635L11.3712 1.48436ZM11.0154 1.33043L10.3151 2.225C9.96163 2.08509 9.58255 2.02149 9.20275 2.03838C8.82295 2.05527 8.45102 2.15227 8.11134 2.32301L7.33442 1.49413L11.0154 1.33043ZM3.51604 8.72096L1.38913 6.45189L2.14852 5.50194L4.24674 8.05486L3.51604 8.72096ZM3.74666 14.3516L6.38342 13.3603C6.66533 13.2555 6.97459 13.2503 7.2599 13.3454C7.54521 13.4405 7.78943 13.6303 7.95204 13.8833L9.56918 16.4199C8.79773 17.0652 7.76781 17.6474 6.6486 18.0682C5.52933 18.4889 4.371 18.7294 3.36548 18.7521L2.9111 15.7784C2.86678 15.481 2.92547 15.1773 3.07745 14.9178C3.22942 14.6583 3.46555 14.4585 3.74666 14.3516ZM10.1428 17.3197C9.35316 18.0278 8.2597 18.6644 7.04448 19.1212C5.82911 19.5781 4.58656 19.8192 3.52666 19.807L3.42265 19.1263C4.46786 19.097 5.62353 18.8541 6.78053 18.4192C7.93761 17.9842 8.96702 17.4056 9.77261 16.7391L10.1428 17.3197ZM11.0888 18.8013C10.2875 19.6201 9.08555 20.357 7.7043 20.8763C6.323 21.3956 4.93309 21.6329 3.79106 21.5448C2.69888 21.4605 1.97644 21.0923 1.7568 20.5081C1.51089 19.854 1.9326 18.9739 2.88897 18.1162L3.17972 20.019C3.18631 20.0621 3.20775 20.1016 3.24035 20.1307C3.27295 20.1597 3.31466 20.1765 3.35829 20.178C3.43936 20.181 3.52145 20.1824 3.60457 20.1824C4.69244 20.1824 5.94983 19.9333 7.17641 19.4722C8.49669 18.9759 9.68198 18.2712 10.5139 17.488C10.5457 17.458 10.566 17.418 10.5714 17.3746C10.5768 17.3313 10.5669 17.2875 10.5435 17.2506L9.50872 15.6275C10.7933 15.6425 11.6903 16.0271 11.9362 16.6813C12.1559 17.2655 11.8549 18.0184 11.0888 18.8013ZM14.0927 16.4536C13.9951 16.7364 14.1159 17.0357 14.2483 17.3276L12.3468 17.4122C12.4086 17.1247 12.3879 16.8256 12.2872 16.5493C11.9636 15.6884 10.8655 15.2192 9.27049 15.2538L8.26826 13.6817C8.05918 13.3565 7.74519 13.1124 7.37837 12.9901C7.01155 12.8678 6.61394 12.8746 6.25149 13.0093L5.01907 13.4726L4.77914 8.07693L5.79648 7.14955L5.54388 6.87242L4.52423 7.80191L2.38785 5.20255L2.45064 5.12401C3.30261 4.0601 4.40413 3.22305 5.65736 2.68717L6.34675 2.39399L6.25932 2.64426C6.1921 2.8341 6.18816 3.0406 6.2481 3.23286C6.30804 3.42512 6.42864 3.5928 6.59184 3.7108L7.63907 4.47485C7.7996 4.59259 7.99355 4.65598 8.19263 4.65576C8.39171 4.65555 8.58552 4.59175 8.7458 4.47366L9.11142 4.20571L9.24582 7.22736L9.62045 7.2107L9.48605 4.18903L9.87405 4.42349C10.0442 4.52689 10.2429 4.57324 10.4412 4.55578C10.6395 4.53832 10.827 4.45796 10.9765 4.32643L11.9518 3.47244C12.1039 3.34043 12.2091 3.16272 12.2518 2.9659C12.2944 2.76909 12.2722 2.56375 12.1884 2.38063L12.0795 2.14004L12.7915 2.36987C14.0874 2.79237 15.259 3.52838 16.202 4.51253L16.2716 4.5852L14.3744 7.36388L13.2763 6.52859L13.0492 6.82705L14.1449 7.66047L14.516 16.0064C14.3288 16.1136 14.1633 16.2493 14.0927 16.4536ZM17.3773 5.74096L15.4602 8.18984L14.6732 7.59122L16.5365 4.86217L17.3773 5.74096ZM17.7726 5.84425C17.8004 5.80875 17.8145 5.76442 17.8123 5.71939C17.81 5.67436 17.7917 5.63164 17.7605 5.59905L17.5474 5.37629L18.5452 5.52739L18.6014 5.1566L17.1231 4.93276L16.6988 4.48925L19.1853 4.86576L18.5121 7.10391L17.0994 7.56172L16.6668 7.25682L17.7726 5.84425ZM15.8637 14.1022C15.5943 14.2876 15.533 14.6422 15.4738 14.9851C15.436 15.2038 15.3969 15.43 15.3067 15.55C15.2257 15.6578 15.0569 15.7436 14.8833 15.825L14.5334 7.956L15.3803 8.60024C15.4195 8.63008 15.4689 8.64327 15.5178 8.63698C15.5667 8.63068 15.6111 8.6054 15.6415 8.5666L16.4354 7.55249L16.96 7.92225C16.9838 7.93902 17.0111 7.95002 17.0399 7.95438C17.0687 7.95873 17.0981 7.95633 17.1258 7.94736L18.7212 7.43036C18.75 7.42101 18.7762 7.40481 18.7974 7.38315C18.8186 7.36149 18.8342 7.33501 18.8429 7.30599L19.6067 4.76672C19.6144 4.741 19.6165 4.71391 19.6129 4.6873C19.6092 4.66069 19.5999 4.63517 19.5855 4.61247C19.5712 4.58977 19.5521 4.57042 19.5296 4.55573C19.5071 4.54104 19.4817 4.53136 19.4552 4.52734L16.2656 4.04436C15.9125 3.70031 15.5306 3.38714 15.124 3.10829L20.328 3.90069C20.4057 4.69218 20.3058 5.49104 20.0353 6.23895C19.7649 6.98686 19.3309 7.66494 18.765 8.22369L18.0371 8.93823C18.0125 8.96243 17.995 8.99292 17.9866 9.02638L16.7235 14.0554C16.4181 13.9885 16.1079 13.9342 15.8637 14.1022ZM18.6568 13.3133C18.3405 13.2968 18.0923 13.5366 17.8525 13.7686C17.6933 13.9228 17.5285 14.0822 17.378 14.1247C17.2838 14.145 17.1865 14.1464 17.0918 14.1288L17.9461 10.7271L19.8421 8.97864L21.6497 11.4355L19.2681 13.6604C19.0911 13.477 18.8982 13.3259 18.6568 13.3133Z" fill="#1D3F39"/>
</g>
<defs>
<clipPath id="clip0_1506_18299">
<rect width="24" height="24" fill="white"/>
</clipPath>
</defs>
</svg>
