<svg width="24" height="24" viewBox="0 0 24 24" fill="none" xmlns="http://www.w3.org/2000/svg">
<g clip-path="url(#clip0_1443_8620)">
<path d="M17.8619 7.12464L16.6726 4.15154C16.5848 3.93186 16.5751 3.68866 16.6453 3.46271C16.7155 3.23676 16.8612 3.04182 17.0581 2.91057L17.0847 2.89286C17.8701 2.36925 18.7929 2.08984 19.7369 2.08984C20.6808 2.08984 21.6036 2.36925 22.389 2.89286L22.4156 2.91057C22.6125 3.04182 22.7583 3.23678 22.8285 3.46275C22.8986 3.68872 22.889 3.93195 22.8011 4.15164L21.6119 7.12464H17.8619Z" fill="#FFB3B3"/>
<path d="M19.3615 7.50023C19.2748 7.50013 19.1909 7.47004 19.1239 7.41507C19.057 7.3601 19.0111 7.28364 18.9942 7.19868L18.6192 5.32368C18.6092 5.27527 18.6089 5.22537 18.6183 5.17684C18.6277 5.12832 18.6465 5.08213 18.6738 5.04092C18.7011 4.99972 18.7363 4.96432 18.7773 4.93676C18.8184 4.9092 18.8644 4.89002 18.9129 4.88033C18.9614 4.87064 19.0113 4.87062 19.0597 4.88028C19.1082 4.88994 19.1543 4.90908 19.1953 4.93662C19.2364 4.96415 19.2716 4.99952 19.2989 5.04071C19.3262 5.08189 19.3452 5.12807 19.3546 5.17659L19.7296 7.05159C19.7491 7.14911 19.7291 7.25039 19.6739 7.33314C19.6187 7.4159 19.533 7.47335 19.4354 7.49287C19.4111 7.49773 19.3863 7.50019 19.3615 7.50023Z" fill="#FAA6B2"/>
<path d="M20.1123 7.50023C20.0875 7.50019 20.0627 7.49773 20.0384 7.49287C19.9408 7.47335 19.8551 7.4159 19.7999 7.33314C19.7447 7.25039 19.7247 7.14911 19.7442 7.05159L20.1192 5.17659C20.1286 5.12807 20.1476 5.08189 20.1749 5.04071C20.2022 4.99952 20.2374 4.96415 20.2785 4.93662C20.3195 4.90908 20.3656 4.88994 20.4141 4.88028C20.4625 4.87062 20.5124 4.87064 20.5609 4.88033C20.6094 4.89002 20.6554 4.9092 20.6965 4.93676C20.7375 4.96432 20.7727 4.99972 20.8 5.04092C20.8273 5.08213 20.8461 5.12832 20.8555 5.17684C20.8649 5.22537 20.8646 5.27527 20.8546 5.32368L20.4796 7.19868C20.4627 7.28364 20.4168 7.3601 20.3499 7.41507C20.2829 7.47004 20.199 7.50013 20.1123 7.50023Z" fill="#FAA6B2"/>
<path d="M6.75 22.125C9.44239 22.125 11.625 19.9424 11.625 17.25C11.625 14.5576 9.44239 12.375 6.75 12.375C4.05761 12.375 1.875 14.5576 1.875 17.25C1.875 19.9424 4.05761 22.125 6.75 22.125Z" fill="#0BAFEA"/>
<path d="M11.235 19.1631C11.1296 19.4104 11.0039 19.6486 10.8591 19.8751H2.64095C2.49617 19.6486 2.37043 19.4104 2.26501 19.1631H11.235Z" fill="#0276B4"/>
<path d="M19.7369 22.875C19.4386 22.875 19.1524 22.7565 18.9414 22.5455C18.7305 22.3345 18.6119 22.0484 18.6119 21.75V13.875H20.8619V21.75C20.8619 22.0484 20.7434 22.3345 20.5324 22.5455C20.3215 22.7565 20.0353 22.875 19.7369 22.875Z" fill="#683B0D"/>
<path d="M18.6117 13.875H20.8617V14.625H18.6117V13.875Z" fill="#683B0D"/>
<path d="M20.8619 13.875H18.6119L18.4503 13.0667C18.059 11.1104 17.8619 9.12012 17.8619 7.125H21.6119C21.6119 9.12012 21.4148 11.1104 21.0235 13.0667L20.8619 13.875Z" fill="#EAEAE8"/>
<path d="M21.2369 10.5H20.1119C20.0125 10.5 19.9171 10.4605 19.8468 10.3902C19.7764 10.3198 19.7369 10.2245 19.7369 10.125C19.7369 10.0255 19.7764 9.93016 19.8468 9.85983C19.9171 9.78951 20.0125 9.75 20.1119 9.75H21.2369C21.3364 9.75 21.4318 9.78951 21.5021 9.85983C21.5724 9.93016 21.6119 10.0255 21.6119 10.125C21.6119 10.2245 21.5724 10.3198 21.5021 10.3902C21.4318 10.4605 21.3364 10.5 21.2369 10.5Z" fill="#FBFDFF"/>
<path d="M13.875 18.375H16.875V22.875H13.875V18.375Z" fill="#EA9D2D"/>
<path d="M13.875 16.875H16.875V18.375H13.875V16.875Z" fill="#FBB540"/>
<path d="M16.5 16.8751H14.25V12.6504C14.25 12.5761 14.2676 12.5029 14.3015 12.4368C14.3353 12.3707 14.3844 12.3136 14.4447 12.2701C14.5049 12.2267 14.5746 12.1982 14.648 12.187C14.7215 12.1758 14.7965 12.1822 14.867 12.2057L15.6025 12.4509C15.8639 12.538 16.0912 12.7051 16.2522 12.9286C16.4133 13.1521 16.5 13.4206 16.5 13.696V16.8751Z" fill="#D32B39"/>
<path d="M11.235 19.1631C11.1296 19.4104 11.0039 19.6486 10.8591 19.8751H2.64095C2.49617 19.6486 2.37043 19.4104 2.26501 19.1631H11.235Z" fill="#0276B4"/>
<path d="M6.75 20.625C8.61396 20.625 10.125 19.114 10.125 17.25C10.125 15.386 8.61396 13.875 6.75 13.875C4.88604 13.875 3.375 15.386 3.375 17.25C3.375 19.114 4.88604 20.625 6.75 20.625Z" fill="#EAEAE8"/>
<path d="M8.71731 14.5081L4.55106 19.8106C4.14775 19.4644 3.83184 19.0279 3.62903 18.5366L7.11044 13.8945C7.69029 13.9559 8.24414 14.1674 8.71731 14.5081Z" fill="#EAEAE8"/>
<path d="M10.0524 16.5511L7.28442 20.0742C7.25446 20.1142 7.21681 20.1478 7.17369 20.173C7.13057 20.1982 7.08284 20.2146 7.03331 20.2211C6.98379 20.2276 6.93345 20.2242 6.88528 20.2109C6.8371 20.1977 6.79204 20.1751 6.75275 20.1442C6.71347 20.1133 6.68074 20.075 6.6565 20.0313C6.63225 19.9876 6.61698 19.9395 6.61158 19.8899C6.60617 19.8402 6.61074 19.79 6.62502 19.7421C6.6393 19.6942 6.66301 19.6497 6.69473 19.6111L9.75614 15.7148C9.89183 15.9791 9.99147 16.2604 10.0524 16.5511Z" fill="#EAEAE8"/>
<path d="M1.125 19.875H12.375V20.0625C12.375 20.4318 12.3023 20.7976 12.1609 21.1388C12.0196 21.48 11.8124 21.7901 11.5512 22.0512C11.2901 22.3124 10.98 22.5196 10.6388 22.6609C10.2976 22.8023 9.93184 22.875 9.5625 22.875H3.9375C3.19158 22.875 2.47621 22.5787 1.94876 22.0512C1.42132 21.5238 1.125 20.8084 1.125 20.0625V19.875Z" fill="#0BAFEA"/>
<path d="M8.71731 14.5081L4.55106 19.8106C4.14775 19.4644 3.83184 19.0279 3.62903 18.5366L7.11044 13.8945C7.69029 13.9559 8.24414 14.1674 8.71731 14.5081Z" fill="#FBFDFF"/>
<path d="M10.0523 16.5511L7.28433 20.0743C7.25394 20.113 7.21621 20.1454 7.1733 20.1695C7.13039 20.1937 7.08314 20.2091 7.03425 20.215C6.98536 20.2209 6.93579 20.2171 6.88837 20.2038C6.84096 20.1905 6.79663 20.168 6.75793 20.1375C6.5948 20.0096 6.2873 20.1338 6.41527 19.9711L9.75605 15.7148C9.89174 15.9791 9.99138 16.2604 10.0523 16.5511Z" fill="#FBFDFF"/>
<path d="M13.125 4.5C13.0086 4.8493 12.8124 5.16668 12.552 5.42704C12.2917 5.68739 11.9743 5.88355 11.625 6L12.2259 6.40064C12.5694 6.62959 12.8471 6.94419 13.0317 7.31334L13.125 7.5L13.2183 7.31334C13.4029 6.94419 13.6806 6.62959 14.0241 6.40064L14.625 6C14.2757 5.88355 13.9583 5.68739 13.698 5.42704C13.4376 5.16668 13.2414 4.8493 13.125 4.5Z" fill="#FBB540"/>
<path d="M9 6.75C8.88355 7.0993 8.68739 7.41668 8.42704 7.67704C8.16668 7.93739 7.8493 8.13355 7.5 8.25L8.10094 8.65064C8.44435 8.87959 8.72208 9.19419 8.90667 9.56334L9 9.75L9.09333 9.56334C9.27792 9.19419 9.55565 8.87959 9.89906 8.65064L10.5 8.25C10.1507 8.13355 9.83332 7.93739 9.57296 7.67704C9.31261 7.41668 9.11645 7.0993 9 6.75Z" fill="#FBB540"/>
<path d="M10.5 1.125C10.3836 1.4743 10.1874 1.79168 9.92704 2.05204C9.66668 2.31239 9.3493 2.50855 9 2.625L9.60094 3.02564C9.94435 3.25459 10.2221 3.56919 10.4067 3.93834L10.5 4.125L10.5933 3.93834C10.7779 3.56919 11.0556 3.25459 11.3991 3.02564L12 2.625C11.6507 2.50855 11.3333 2.31239 11.073 2.05204C10.8126 1.79168 10.6164 1.4743 10.5 1.125Z" fill="#FBB540"/>
<path d="M7.875 19.875H5.625C5.21079 19.875 4.875 20.2108 4.875 20.625C4.875 21.0392 5.21079 21.375 5.625 21.375H7.875C8.28921 21.375 8.625 21.0392 8.625 20.625C8.625 20.2108 8.28921 19.875 7.875 19.875Z" fill="#0276B4"/>
<path d="M14.25 16.125H16.5V16.875H14.25V16.125Z" fill="#961B20"/>
<path d="M18.6117 13.875H20.8617V14.625H18.6117V13.875Z" fill="#533222"/>
<path d="M21.237 21.7503V13.9125L21.3913 13.1406C21.7821 11.184 21.9815 9.19393 21.9866 7.19865L23.1495 4.29155C23.2681 3.99185 23.2806 3.66061 23.185 3.3528C23.0894 3.045 22.8914 2.77914 22.6239 2.59936L22.5972 2.5816C21.7509 2.01523 20.7554 1.71289 19.7371 1.71289C18.7187 1.71289 17.7233 2.01523 16.8769 2.5816L16.8503 2.59936C16.5828 2.77913 16.3848 3.04499 16.2892 3.35279C16.1936 3.6606 16.2061 3.99185 16.3247 4.29155L17.4875 7.19869C17.4926 9.19396 17.692 11.184 18.0828 13.1406L18.2372 13.9125V21.7503C18.2372 22.1482 18.3952 22.5297 18.6765 22.811C18.9578 23.0923 19.3394 23.2503 19.7372 23.2503C20.135 23.2503 20.5165 23.0923 20.7978 22.811C21.0792 22.5297 21.2372 22.1482 21.2372 21.7503H21.237ZM18.1158 6.75033L17.0209 4.01283C16.9655 3.87296 16.9597 3.71837 17.0043 3.57471C17.0489 3.43105 17.1413 3.30698 17.2662 3.22308L17.2928 3.20532C18.016 2.72135 18.8667 2.46299 19.7369 2.46299C20.6072 2.46299 21.4578 2.72135 22.1811 3.20532L22.2077 3.22308C22.3326 3.30697 22.425 3.43104 22.4697 3.57469C22.5143 3.71834 22.5085 3.87295 22.4532 4.01283L21.3581 6.75033H20.5694L20.8546 5.32388C20.8646 5.27547 20.8649 5.22557 20.8555 5.17704C20.8461 5.12852 20.8273 5.08233 20.8 5.04113C20.7727 4.99992 20.7375 4.96452 20.6965 4.93696C20.6554 4.9094 20.6094 4.89022 20.5609 4.88053C20.5124 4.87084 20.4625 4.87082 20.4141 4.88048C20.3656 4.89014 20.3195 4.90929 20.2785 4.93682C20.2374 4.96435 20.2022 4.99972 20.1749 5.04091C20.1476 5.08209 20.1286 5.12827 20.1192 5.17679L19.8047 6.75033H19.6696L19.3547 5.17679C19.3453 5.12827 19.3264 5.08209 19.2991 5.04091C19.2717 4.99972 19.2365 4.96435 19.1955 4.93682C19.1545 4.90929 19.1084 4.89014 19.0599 4.88048C19.0114 4.87082 18.9615 4.87084 18.9131 4.88053C18.8646 4.89022 18.8185 4.9094 18.7775 4.93696C18.7365 4.96452 18.7013 4.99992 18.674 5.04113C18.6467 5.08233 18.6278 5.12852 18.6184 5.17704C18.609 5.22557 18.6093 5.27547 18.6193 5.32388L18.9047 6.75033H18.1158ZM20.487 21.7503C20.487 21.9492 20.4079 22.14 20.2673 22.2807C20.1266 22.4213 19.9359 22.5003 19.737 22.5003C19.538 22.5003 19.3473 22.4213 19.2066 22.2807C19.066 22.14 18.987 21.9492 18.987 21.7503V14.2503H20.487V21.7503ZM20.5547 13.5003H18.9194L18.818 12.9935C18.4565 11.1842 18.2627 9.3453 18.2391 7.50033H21.2344C21.225 8.25071 21.1871 9.00071 21.1206 9.75033H20.112C20.0125 9.75033 19.9171 9.78984 19.8468 9.86017C19.7765 9.93049 19.737 10.0259 19.737 10.1253C19.737 10.2248 19.7765 10.3202 19.8468 10.3905C19.9171 10.4608 20.0125 10.5003 20.112 10.5003H21.0452C20.9503 11.3371 20.8205 12.1681 20.6558 12.9935L20.5547 13.5003Z" fill="black"/>
<path d="M15.7211 12.095L14.9856 11.8499C14.8587 11.8077 14.7237 11.7961 14.5915 11.8163C14.4594 11.8364 14.3339 11.8877 14.2254 11.9659C14.117 12.044 14.0287 12.1468 13.9677 12.2658C13.9068 12.3848 13.875 12.5166 13.875 12.6503V16.4999C13.7755 16.4999 13.6802 16.5394 13.6098 16.6098C13.5395 16.6801 13.5 16.7755 13.5 16.8749V22.8749C13.5 22.9744 13.5395 23.0698 13.6098 23.1401C13.6802 23.2104 13.7755 23.2499 13.875 23.2499H16.875C16.9745 23.2499 17.0698 23.2104 17.1402 23.1401C17.2105 23.0698 17.25 22.9744 17.25 22.8749V16.8749C17.25 16.7755 17.2105 16.6801 17.1402 16.6098C17.0698 16.5394 16.9745 16.4999 16.875 16.4999V13.696C16.8753 13.3417 16.764 12.9964 16.5569 12.709C16.3497 12.4216 16.0573 12.2067 15.7211 12.095ZM14.625 12.6503C14.625 12.6354 14.6285 12.6208 14.6353 12.6075C14.642 12.5943 14.6518 12.5828 14.6639 12.5741C14.6759 12.5654 14.6899 12.5597 14.7046 12.5575C14.7193 12.5552 14.7343 12.5565 14.7484 12.5612L15.4839 12.8064C15.6707 12.8685 15.8332 12.9878 15.9483 13.1475C16.0634 13.3072 16.1252 13.4991 16.125 13.696V16.4999H14.625V12.6503ZM16.5 22.4999H14.25V18.7499H16.5V22.4999ZM16.5 17.9999H14.25V17.2499H16.5V17.9999Z" fill="black"/>
<path d="M0.75 19.8753V20.0628C0.750955 20.9079 1.08709 21.7181 1.68465 22.3156C2.28222 22.9132 3.09242 23.2493 3.9375 23.2503H9.5625C10.4076 23.2493 11.2178 22.9132 11.8153 22.3156C12.4129 21.7181 12.749 20.9079 12.75 20.0628V19.8753C12.75 19.7758 12.7105 19.6804 12.6402 19.6101C12.5698 19.5398 12.4745 19.5003 12.375 19.5003H11.4937C11.8732 18.7001 12.044 17.8169 11.9904 16.9329C11.9367 16.0489 11.6603 15.1928 11.1869 14.4444C10.7134 13.696 10.0583 13.0794 9.28259 12.6522C8.50683 12.225 7.63561 12.001 6.75 12.001C5.86439 12.001 4.99317 12.225 4.21741 12.6522C3.44166 13.0794 2.78658 13.696 2.31315 14.4444C1.83971 15.1928 1.5633 16.0489 1.50965 16.9329C1.45599 17.8169 1.62682 18.7001 2.00625 19.5003H1.125C1.02554 19.5003 0.930161 19.5398 0.859835 19.6101C0.789509 19.6804 0.75 19.7758 0.75 19.8753ZM6.75 12.7503C7.53989 12.7503 8.31585 12.9583 8.9999 13.3533C9.68396 13.7482 10.252 14.3163 10.647 15.0003C11.0419 15.6844 11.2499 16.4604 11.25 17.2503C11.2501 18.0401 11.0423 18.8161 10.6474 19.5003H9.75127C10.1691 18.943 10.4236 18.2804 10.4861 17.5867C10.5486 16.893 10.4167 16.1956 10.1052 15.5727C9.79372 14.9497 9.31489 14.4258 8.72239 14.0596C8.1299 13.6934 7.44715 13.4995 6.75063 13.4995C6.05412 13.4995 5.37137 13.6934 4.77887 14.0596C4.18638 14.4258 3.70755 14.9497 3.39604 15.5727C3.08453 16.1956 2.95264 16.893 3.01516 17.5867C3.07768 18.2804 3.33213 18.943 3.75 19.5003H2.85258C2.45774 18.8161 2.24992 18.0401 2.25 17.2503C2.25008 16.4604 2.45805 15.6844 2.85302 15.0003C3.24799 14.3163 3.81604 13.7482 4.5001 13.3533C5.18415 12.9583 5.96011 12.7503 6.75 12.7503ZM7.27702 14.2976C7.58703 14.3526 7.88636 14.4564 8.16384 14.6052L4.51472 19.2496C4.33491 19.0486 4.18301 18.8243 4.06313 18.5828L7.27702 14.2976ZM3.78506 17.7035C3.72416 17.3092 3.74267 16.9067 3.83949 16.5196C3.93632 16.1325 4.10952 15.7687 4.34891 15.4495C4.5883 15.1303 4.88907 14.8621 5.23354 14.6608C5.57801 14.4594 5.95924 14.3289 6.35484 14.2769L3.78506 17.7035ZM8.77603 15.04C9.08316 15.3218 9.32851 15.6642 9.49655 16.0456C9.49655 16.0456 6.80194 19.4792 6.79106 19.5003H5.27156L8.77603 15.04ZM5.625 20.2503H7.875C7.97446 20.2503 8.06984 20.2898 8.14017 20.3601C8.21049 20.4304 8.25 20.5258 8.25 20.6253C8.25 20.7247 8.21049 20.8201 8.14017 20.8904C8.06984 20.9608 7.97446 21.0003 7.875 21.0003H5.625C5.52554 21.0003 5.43016 20.9608 5.35984 20.8904C5.28951 20.8201 5.25 20.7247 5.25 20.6253C5.25 20.5258 5.28951 20.4304 5.35984 20.3601C5.43016 20.2898 5.52554 20.2503 5.625 20.2503ZM7.73588 19.5003L9.73538 16.9554C9.74475 17.0525 9.75 17.1508 9.75 17.2503C9.75079 17.6761 9.66048 18.0972 9.48514 18.4853C9.3098 18.8733 9.05347 19.2194 8.73337 19.5003H7.73588ZM4.5645 20.2503C4.50442 20.4199 4.48595 20.6016 4.51063 20.7799C4.53531 20.9581 4.60242 21.1279 4.70633 21.2749C4.81024 21.4219 4.94791 21.5417 5.10777 21.6245C5.26763 21.7072 5.44501 21.7503 5.625 21.7503H7.875C8.05497 21.7503 8.23232 21.7072 8.39216 21.6245C8.552 21.5418 8.68967 21.422 8.79358 21.275C8.8975 21.1281 8.96463 20.9584 8.98934 20.7801C9.01405 20.6019 8.99562 20.4203 8.93559 20.2506L8.93714 20.2503H11.9929C11.9449 20.8622 11.6681 21.4336 11.2177 21.8506C10.7673 22.2676 10.1763 22.4995 9.5625 22.5003H3.9375C3.32369 22.4995 2.7327 22.2676 2.28228 21.8506C1.83186 21.4336 1.55509 20.8622 1.50713 20.2503H4.5645Z" fill="black"/>
<path d="M11.417 6.31222L12.018 6.71286C12.307 6.90579 12.5408 7.17069 12.6963 7.48147L12.7896 7.66813C12.8208 7.73041 12.8687 7.78279 12.9279 7.81939C12.9871 7.856 13.0554 7.87539 13.125 7.87539C13.1947 7.87539 13.2629 7.856 13.3222 7.81939C13.3814 7.78279 13.4293 7.73041 13.4604 7.66813L13.5537 7.48147C13.7092 7.17064 13.943 6.90568 14.2321 6.71272L14.8331 6.31208C14.8915 6.27314 14.9378 6.21859 14.9667 6.15463C14.9956 6.09066 15.006 6.01986 14.9967 5.95028C14.9874 5.8807 14.9587 5.81513 14.914 5.76104C14.8692 5.70695 14.8102 5.6665 14.7436 5.6443C14.4499 5.54562 14.183 5.38025 13.9639 5.16116C13.7449 4.94206 13.5795 4.6752 13.4808 4.38149C13.4559 4.3068 13.4082 4.24184 13.3443 4.19581C13.2805 4.14977 13.2037 4.125 13.125 4.125C13.0463 4.125 12.9696 4.14977 12.9057 4.19581C12.8419 4.24184 12.7941 4.3068 12.7692 4.38149C12.6706 4.6752 12.5052 4.94206 12.2861 5.16116C12.067 5.38025 11.8001 5.54562 11.5064 5.6443C11.4398 5.6665 11.3808 5.70695 11.336 5.76104C11.2913 5.81513 11.2626 5.8807 11.2533 5.95028C11.244 6.01986 11.2544 6.09066 11.2833 6.15463C11.3123 6.21859 11.3586 6.27314 11.417 6.31208V6.31222ZM13.125 5.32368C13.3267 5.61097 13.581 5.85738 13.8746 6.04982L13.8161 6.08886C13.5489 6.26709 13.315 6.49074 13.125 6.74966C12.9351 6.49067 12.7012 6.26698 12.434 6.08872L12.3754 6.04968C12.669 5.85728 12.9233 5.61092 13.125 5.32368Z" fill="black"/>
<path d="M10.6186 7.8943C10.3249 7.79562 10.058 7.63025 9.83895 7.41116C9.61985 7.19206 9.45448 6.9252 9.3558 6.63149C9.33093 6.5568 9.28318 6.49184 9.21932 6.44581C9.15546 6.39977 9.07874 6.375 9.00002 6.375C8.9213 6.375 8.84458 6.39977 8.78072 6.44581C8.71687 6.49184 8.66912 6.5568 8.64424 6.63149C8.54556 6.9252 8.38019 7.19206 8.16109 7.41116C7.942 7.63025 7.67514 7.79562 7.38143 7.8943C7.31483 7.9165 7.25579 7.95695 7.21105 8.01104C7.1663 8.06513 7.13764 8.1307 7.12832 8.20028C7.119 8.26986 7.1294 8.34066 7.15833 8.40463C7.18727 8.46859 7.23358 8.52314 7.29199 8.56208L7.89297 8.96272C8.18202 9.15565 8.41581 9.42055 8.5713 9.73133L8.66463 9.91799C8.69578 9.98027 8.74365 10.0326 8.80289 10.0693C8.86213 10.1059 8.93039 10.1252 9.00002 10.1252C9.06966 10.1252 9.13792 10.1059 9.19715 10.0693C9.25639 10.0326 9.30426 9.98027 9.33541 9.91799L9.42874 9.73133C9.58422 9.4205 9.81801 9.15554 10.1071 8.96258L10.7081 8.56194C10.7665 8.523 10.8128 8.46845 10.8417 8.40449C10.8706 8.34052 10.881 8.26972 10.8717 8.20014C10.8624 8.13056 10.8337 8.06499 10.789 8.0109C10.7442 7.95681 10.6852 7.91636 10.6186 7.89416V7.8943ZM9.69105 8.33872C9.42389 8.51695 9.19001 8.74059 9.00002 8.99952C8.81005 8.74053 8.57617 8.51684 8.30899 8.33858L8.25044 8.29954C8.54398 8.10714 8.79834 7.86078 9.00002 7.57354C9.20169 7.86083 9.45605 8.10724 9.7496 8.29968L9.69105 8.33872Z" fill="black"/>
<path d="M11.6071 3.33758L12.2081 2.93694C12.2664 2.89799 12.3127 2.84344 12.3416 2.7795C12.3705 2.71555 12.3809 2.64478 12.3716 2.57523C12.3623 2.50567 12.3336 2.44013 12.2889 2.38605C12.2442 2.33197 12.1852 2.29152 12.1186 2.2693C11.8249 2.17062 11.558 2.00525 11.3389 1.78616C11.1199 1.56706 10.9545 1.3002 10.8558 1.00649C10.8309 0.931805 10.7832 0.866842 10.7193 0.820807C10.6555 0.774773 10.5787 0.75 10.5 0.75C10.4213 0.75 10.3446 0.774773 10.2807 0.820807C10.2169 0.866842 10.1691 0.931805 10.1442 1.00649C10.0456 1.3002 9.88019 1.56706 9.66109 1.78616C9.442 2.00525 9.17514 2.17062 8.88143 2.2693C8.81483 2.2915 8.75579 2.33195 8.71105 2.38604C8.6663 2.44013 8.63764 2.5057 8.62832 2.57528C8.619 2.64486 8.6294 2.71566 8.65833 2.77963C8.68727 2.84359 8.73358 2.89814 8.79199 2.93708L9.39297 3.33758C9.68204 3.53054 9.91583 3.7955 10.0713 4.10633L10.1646 4.29299C10.1958 4.35527 10.2437 4.40765 10.3029 4.44425C10.3621 4.48086 10.4304 4.50025 10.5 4.50025C10.5697 4.50025 10.6379 4.48086 10.6972 4.44425C10.7564 4.40765 10.8043 4.35527 10.8354 4.29299L10.9287 4.10633C11.0842 3.7955 11.318 3.53054 11.6071 3.33758ZM10.5 3.37452C10.3101 3.11553 10.0762 2.89184 9.80899 2.71358L9.75044 2.67454C10.044 2.48214 10.2983 2.23578 10.5 1.94854C10.7017 2.23583 10.956 2.48224 11.2496 2.67468L11.1911 2.71372C10.9239 2.89195 10.69 3.11559 10.5 3.37452Z" fill="black"/>
</g>
<defs>
<clipPath id="clip0_1443_8620">
<rect width="24" height="24" fill="white"/>
</clipPath>
</defs>
</svg>
