<svg width="24" height="24" viewBox="0 0 24 24" fill="none" xmlns="http://www.w3.org/2000/svg">
<path d="M12.0196 2.91016C8.7096 2.91016 6.0196 5.60016 6.0196 8.91016V11.8002C6.0196 12.4102 5.7596 13.3402 5.4496 13.8602L4.2996 15.7702C3.5896 16.9502 4.0796 18.2602 5.3796 18.7002C9.6896 20.1402 14.3396 20.1402 18.6496 18.7002C19.8596 18.3002 20.3896 16.8702 19.7296 15.7702L18.5796 13.8602C18.2796 13.3402 18.0196 12.4102 18.0196 11.8002V8.91016C18.0196 5.61016 15.3196 2.91016 12.0196 2.91016Z" stroke="#252525" stroke-width="1.5" stroke-miterlimit="10" stroke-linecap="round"/>
<path d="M13.87 3.20043C13.56 3.11043 13.24 3.04043 12.91 3.00043C11.95 2.88043 11.03 2.95043 10.17 3.20043C10.46 2.46043 11.18 1.94043 12.02 1.94043C12.86 1.94043 13.58 2.46043 13.87 3.20043Z" stroke="#252525" stroke-width="1.5" stroke-miterlimit="10" stroke-linecap="round" stroke-linejoin="round"/>
<path d="M15.0195 19.0596C15.0195 20.7096 13.6695 22.0596 12.0195 22.0596C11.1995 22.0596 10.4395 21.7196 9.89953 21.1796C9.35953 20.6396 9.01953 19.8796 9.01953 19.0596" stroke="#252525" stroke-width="1.5" stroke-miterlimit="10"/>
</svg>
