<svg width="24" height="24" viewBox="0 0 24 24" fill="none" xmlns="http://www.w3.org/2000/svg">
<path d="M4.9406 7.4248H19.0875C20.3437 7.4248 21.3656 8.44668 21.3656 9.70293V20.2686C21.3656 21.5248 20.3437 22.5467 19.0875 22.5467H4.9406C3.68435 22.5467 2.66248 21.5248 2.66248 20.2686V9.70293C2.66248 8.44199 3.67966 7.4248 4.9406 7.4248Z" fill="#F9BE40"/>
<path d="M2.22656 7.4248H21.8016C22.0969 7.4248 22.3406 7.66387 22.3406 7.96387V10.3873C22.3406 10.6826 22.1016 10.9264 21.8016 10.9264H2.22656C1.93125 10.9264 1.6875 10.6873 1.6875 10.3873V7.96387C1.6875 7.66387 1.92656 7.4248 2.22656 7.4248Z" fill="#EE6145"/>
<path d="M15.2062 2.89624C14.7 3.41187 13.6547 4.75249 13.1953 5.36187C13.0312 6.06031 12.8203 7.45249 13.3078 7.44312C13.9172 7.43374 18.0937 6.80093 19.1812 6.28531C20.2687 5.76968 20.0203 5.21656 19.8234 4.66812C19.6266 4.11968 18.8812 2.79312 18.4031 2.08062C17.925 1.36812 17.5031 1.41968 17.0859 1.49937C16.6734 1.58374 15.8344 2.25406 15.2062 2.89624Z" fill="#F6764F"/>
<path d="M17.1843 1.47716C15.989 1.55216 14.0062 4.17247 13.1671 5.47559L13.3452 5.92091C15.8437 4.55216 16.8234 3.65216 17.189 3.33341C17.5452 3.01466 18.6749 1.38809 17.1843 1.47716Z" fill="#CA442B"/>
<path d="M18.2063 6.61401C17.2875 6.86245 14.925 7.27495 13.4109 7.4437L13.2234 7.34995C14.4141 6.79213 17.5922 5.54995 17.8828 5.46557C18.1734 5.3812 19.8 4.71088 19.9547 5.28745C20.1141 5.8687 19.35 6.30463 18.2063 6.61401Z" fill="#CA442B"/>
<path d="M8.84067 2.89624C9.34692 3.41187 10.3922 4.75249 10.8516 5.36187C11.0157 6.06031 11.2266 7.45249 10.7391 7.44312C10.1297 7.43374 5.95317 6.80093 4.86567 6.28531C3.77817 5.76968 4.02661 5.21656 4.22349 4.66812C4.42036 4.11968 5.16567 2.79312 5.6438 2.08062C6.12192 1.36812 6.5438 1.41968 6.96099 1.49937C7.3688 1.58374 8.20786 2.25406 8.84067 2.89624Z" fill="#F6764F"/>
<path d="M6.86242 1.47716C8.05773 1.55216 10.0405 4.17247 10.8796 5.47559L10.7015 5.92091C8.20304 4.55216 7.22336 3.65216 6.85773 3.33341C6.50148 3.01466 5.37179 1.38809 6.86242 1.47716Z" fill="#CA442B"/>
<path d="M5.83593 6.61401C6.75468 6.86245 9.11719 7.27495 10.6312 7.4437L10.8187 7.34995C9.62812 6.79213 6.45 5.54995 6.15937 5.46557C5.86875 5.3812 4.24218 4.71088 4.0875 5.28745C3.93281 5.8687 4.69687 6.30463 5.83593 6.61401Z" fill="#CA442B"/>
<path d="M10.514 5.70527C10.514 5.38652 10.7718 5.12402 11.0952 5.12402H12.9374C13.2562 5.12402 13.5187 5.38184 13.5187 5.70527V10.9271H10.514V5.70527Z" fill="#F77A54"/>
<path fill-rule="evenodd" clip-rule="evenodd" d="M12.9374 5.12402H12.014V10.9225H13.514V5.70527C13.514 5.38652 13.2562 5.12402 12.9374 5.12402Z" fill="#F36D44"/>
<path d="M12.0141 20.1232C14.0903 20.1232 15.7734 18.4401 15.7734 16.3639C15.7734 14.2876 14.0903 12.6045 12.0141 12.6045C9.93783 12.6045 8.2547 14.2876 8.2547 16.3639C8.2547 18.4401 9.93783 20.1232 12.0141 20.1232Z" fill="#F39826"/>
<path d="M12.0141 19.4252C10.3266 19.4252 8.94843 18.0518 8.94843 16.3596C8.94843 14.6721 10.3219 13.2939 12.0141 13.2939C13.7062 13.2939 15.0797 14.6674 15.0797 16.3596C15.0797 18.0518 13.7016 19.4252 12.0141 19.4252ZM12.0141 13.6127C10.4953 13.6127 9.26249 14.8455 9.26249 16.3643C9.26249 17.883 10.4953 19.1158 12.0141 19.1158C13.5328 19.1158 14.7656 17.883 14.7656 16.3643C14.7656 14.8455 13.5328 13.6127 12.0141 13.6127Z" fill="#CE611E"/>
<path d="M13.3359 17.1791C13.3359 17.3666 13.289 17.5213 13.1999 17.6479C13.1155 17.7697 12.9655 17.9197 12.7499 18.0885C12.5812 18.2197 12.389 18.2994 12.164 18.3275C12.164 18.5197 12.164 18.6369 12.1687 18.6744C12.1687 18.7166 12.1546 18.7494 12.1218 18.7682C12.0984 18.7916 12.0609 18.801 12.0187 18.801C11.9624 18.801 11.9109 18.7822 11.864 18.7447C11.8218 18.7119 11.7984 18.6604 11.7984 18.5994C11.7984 18.5291 11.7937 18.4447 11.7843 18.351C11.6905 18.3463 11.6015 18.3275 11.5218 18.2994C11.4421 18.2713 11.3718 18.2432 11.3155 18.215C11.264 18.1916 11.2312 18.1729 11.2124 18.1635C11.0577 18.0557 10.9405 17.9713 10.8655 17.9057C10.7905 17.8354 10.7249 17.7604 10.678 17.6807C10.6312 17.601 10.6077 17.5025 10.6077 17.3947C10.6077 17.2869 10.6312 17.2166 10.678 17.1791C10.7249 17.1369 10.8093 17.1135 10.9359 17.1135C10.9921 17.1135 11.0437 17.1275 11.0952 17.1604C11.1468 17.1885 11.1843 17.226 11.2124 17.2682C11.353 17.5213 11.5359 17.676 11.7562 17.7369C11.7562 17.7135 11.7609 17.5682 11.7702 17.3057C11.7796 17.0432 11.7843 16.7807 11.789 16.5182C11.5452 16.4338 11.3718 16.3635 11.2687 16.3119C10.8515 16.1057 10.6452 15.8104 10.6452 15.4166C10.6452 15.2479 10.7015 15.0791 10.8187 14.9057C10.9359 14.7322 11.0671 14.6057 11.2218 14.5354C11.2827 14.5072 11.3671 14.4697 11.4796 14.4322C11.5921 14.3947 11.6999 14.3619 11.7984 14.3338C11.7984 14.2166 11.7984 14.1275 11.7937 14.0713C11.7937 13.9963 11.8124 13.94 11.8499 13.9119C11.8874 13.8791 11.9249 13.8604 11.9671 13.8604C12.0655 13.8604 12.1265 13.8932 12.1452 13.9635C12.1687 14.0338 12.1827 14.151 12.178 14.315C12.314 14.3291 12.4687 14.3807 12.6327 14.4697C12.8249 14.5822 12.9655 14.6807 13.0499 14.765C13.139 14.8447 13.1859 14.9525 13.1859 15.0791C13.1859 15.1494 13.1577 15.2104 13.0968 15.2572C13.0359 15.3041 12.9374 15.3275 12.8015 15.3275C12.7405 15.3275 12.6655 15.2666 12.5718 15.1494C12.4874 15.0557 12.4218 14.9994 12.3749 14.976C12.3562 14.9713 12.328 14.9619 12.2905 14.9525C12.253 14.9338 12.2155 14.9244 12.1734 14.915C12.1734 15.3041 12.1687 15.6275 12.1593 15.8807V15.9744C12.389 16.0775 12.5812 16.176 12.7312 16.2697C12.9374 16.3963 13.0874 16.5275 13.1812 16.6541C13.289 16.7713 13.3359 16.9494 13.3359 17.1791ZM11.3109 15.3791C11.3109 15.4635 11.353 15.5479 11.4327 15.6229C11.5124 15.6932 11.6062 15.7494 11.714 15.7916L11.8124 15.8244V14.901C11.6718 14.9291 11.5499 14.9854 11.4515 15.0697C11.3577 15.1494 11.3109 15.2525 11.3109 15.3791ZM12.164 17.7229C12.3187 17.6807 12.4405 17.6057 12.5343 17.5072C12.628 17.4041 12.6749 17.301 12.6749 17.1932C12.6749 17.0057 12.5062 16.8322 12.1687 16.6822C12.164 16.8979 12.164 17.2447 12.164 17.7229Z" fill="#FDE58F"/>
</svg>
