<svg width="24" height="24" viewBox="0 0 24 24" fill="none" xmlns="http://www.w3.org/2000/svg">
<g clip-path="url(#clip0_1443_8453)">
<path d="M20.564 11.7621C20.1004 12.8812 20.0713 14.2646 20.5348 15.3836L20.9337 16.165H3.71642C3.71642 16.165 0.510907 14.3639 3.71642 11.1584L20.785 10.8066L20.564 11.7621Z" fill="#F1F2F2"/>
<path d="M20.9337 16.1652H3.7165C3.7165 16.1652 0.511083 14.364 3.7165 11.1585L20.7852 10.8066L20.5639 11.7623C20.4615 12.0104 20.3799 12.271 20.3207 12.5389H4.69744C4.09218 12.5389 3.60001 13.0311 3.60001 13.6359C3.60001 14.2412 4.09218 14.7333 4.69744 14.7333H20.3265C20.3789 14.9571 20.4483 15.175 20.5347 15.3837L20.9337 16.1652Z" fill="#DEE1E1"/>
<path d="M20.6731 16.8956L4.93527 16.8708C3.04983 16.8708 1.43062 15.6681 1.43062 13.7826C1.43062 13.3662 1.3581 12.8201 1.49464 12.4512C1.97618 11.1495 3.22845 10.2217 4.69748 10.2217H20.8429C21.2682 10.2217 21.613 10.5664 21.613 10.9917C21.613 11.417 21.2682 11.7618 20.8429 11.7618H8.62363L7.43029 12.0419L6.39246 11.7618H4.69743C3.66256 11.7618 2.82364 12.6007 2.82364 13.6356C2.82364 14.6704 3.66256 15.5094 4.69743 15.5094H20.8429C21.2682 15.5094 21.6129 15.8541 21.6129 16.2794C21.6129 16.3101 21.6112 16.3403 21.6077 16.3701C21.5628 16.7526 21.0677 16.8956 20.6731 16.8956Z" fill="#B7E546"/>
<path d="M21.6074 16.3709C21.5866 16.5471 21.5065 16.7053 21.3876 16.8247C21.2478 16.964 21.0556 17.0504 20.843 17.0504L12.8665 17.5284L4.69745 17.0504C2.81177 17.0504 1.28333 15.5219 1.28333 13.6363C1.28333 13.1446 1.3872 12.6772 1.57455 12.2549V12.9567C1.57455 14.8424 3.103 16.3709 4.98868 16.3709H21.6074Z" fill="#ABD641"/>
<path d="M8.62354 14.0076V11.7627H7.02345L6.45532 11.8197L6.48944 13.9105C6.48944 13.9789 6.55822 14.0259 6.6219 14.0009L7.02341 13.9028L7.47257 13.7269C7.49534 13.718 7.52062 13.718 7.54334 13.7269L8.49108 14.098C8.55476 14.1229 8.62354 14.076 8.62354 14.0076Z" fill="#EF5227"/>
<path d="M7.02344 11.7627V13.9027L6.52496 14.0978C6.46138 14.1226 6.39246 14.076 6.39246 14.0076V11.7627H7.02344Z" fill="#D83724"/>
<path d="M18.351 8.26167V9.3562L18.3024 9.84157C18.3024 10.0294 18.15 10.1813 17.9627 10.1813L5.02693 10.1328C4.83909 10.1328 4.68716 9.98087 4.68716 9.79303L4.59009 8.26167L11.2306 7.94434L18.351 8.26167Z" fill="#FDCD08"/>
<path d="M22.3364 8.33914C22.1354 8.33914 21.9724 8.17616 21.9724 7.97511V4.19899C21.9724 3.99795 22.1354 3.83496 22.3364 3.83496C22.5375 3.83496 22.7005 3.99795 22.7005 4.19899V7.97506C22.7005 8.17616 22.5375 8.33914 22.3364 8.33914Z" fill="#77777F"/>
<path d="M21.6859 9.17583C21.382 9.92481 21.0763 10.6638 20.7724 11.4128C20.5908 11.8605 20.917 12.3512 21.3964 12.3512L21.9583 12.3997H23.3251C23.8045 12.3997 24.1308 11.9091 23.9491 11.4613L23.3155 9.89928L22.9169 9.17578L21.6859 9.17583Z" fill="#FDCD08"/>
<path d="M22.1751 10.1754C22.5745 10.2118 22.9934 10.1069 23.3154 9.89939L22.9747 9.04785L22.4116 9.21618L22.4117 9.21603L21.6776 9.11809C21.5849 9.3467 21.4501 9.67132 21.3574 9.89993L21.3575 9.89998C21.1463 10.4204 20.9352 10.9409 20.724 11.4614C20.5425 11.9094 20.8687 12.3996 21.3477 12.3996H22.1243C21.6453 12.3996 21.3191 11.9094 21.5006 11.4614C21.6584 11.0727 21.8161 10.6841 21.9738 10.2954C22.0064 10.2147 22.0885 10.1675 22.1751 10.1754Z" fill="#FAAB18"/>
<path d="M23.457 8.32226C23.457 7.82626 23.1406 7.4048 22.7005 7.2523C22.5863 7.21274 22.4205 7.28312 22.2931 7.28312C21.6743 7.28312 21.2935 7.69768 21.2935 8.32231C21.2935 8.94694 21.7564 9.3217 22.3752 9.3217C22.5026 9.3217 22.5863 9.43178 22.7005 9.39227C23.1406 9.23972 23.457 8.81826 23.457 8.32226Z" fill="#FDCD08"/>
<path d="M22.7005 9.39258C22.5864 9.43238 22.4636 9.45374 22.3364 9.45374C21.7176 9.45374 21.2162 8.94701 21.2162 8.32233C21.2162 7.69814 21.7176 7.19141 22.3364 7.19141C22.4636 7.19141 22.5864 7.21276 22.7005 7.25256C22.2602 7.40497 21.9442 7.82676 21.9442 8.32233C21.9442 8.81838 22.2602 9.24017 22.7005 9.39258Z" fill="#FAAB18"/>
<path d="M22.4261 4.58764L19.2246 5.69595L18.351 5.60635L12.1368 8.14962C11.7051 8.29906 11.2358 8.29906 10.8041 8.14962L4.59007 5.70551L3.7164 5.696L0.514716 4.58764C0.149229 4.4611 0.149229 3.94423 0.514716 3.81774L10.9255 0.213733C11.2785 0.091516 11.6623 0.091516 12.0153 0.213733L22.4261 3.81774C22.7915 3.94423 22.7915 4.4611 22.4261 4.58764Z" fill="#868491"/>
<path d="M19.2246 5.36747V5.69607L12.1367 8.14964C11.7052 8.29914 11.2359 8.29914 10.8039 8.14964L3.71643 5.69607V5.36747C3.71643 4.67484 4.21103 4.08365 4.89298 3.96085C7.05969 3.57255 9.27252 3.37598 11.4703 3.37598C13.6681 3.37598 15.8814 3.57255 18.0481 3.96085C18.3782 4.02055 18.6776 4.19432 18.8922 4.45108C19.1057 4.7059 19.2246 5.03208 19.2246 5.36747Z" fill="#77777F"/>
<path d="M18.3509 5.36782V8.26211H4.73567L4.68713 5.46489C4.68713 5.196 4.87983 4.96593 5.14436 4.91836C5.28303 4.89351 5.32477 4.77241 5.46369 4.74916C7.45202 4.41663 9.46133 4.25 11.4703 4.25C13.62 4.25 15.7697 4.44075 17.8937 4.82129C18.0257 4.84507 18.1403 4.91448 18.2213 5.01155C18.3029 5.10863 18.3509 5.23337 18.3509 5.36782Z" fill="#868491"/>
<path d="M18.351 9.3562V9.89011C18.351 10.0779 18.1985 10.2299 18.0112 10.2299H4.92985C4.7422 10.2299 4.59009 10.0778 4.59009 9.89011V8.26167L5.02693 7.94434L5.46376 8.26167V9.11351C5.46376 9.24752 5.57244 9.3562 5.70645 9.3562H18.351Z" fill="#FAAB18"/>
<path d="M5.46376 4.74902V8.26168H4.59009V5.36739C4.59009 5.09849 4.78278 4.86843 5.04731 4.82086C5.18613 4.7961 5.32495 4.77184 5.46376 4.74902Z" fill="#77777F"/>
<path d="M21.8465 22.2003C21.383 21.0813 21.383 19.824 21.8465 18.705L21.9942 18.0488H2.14665C2.14665 18.0488 -0.0875831 20.4778 2.29182 22.8571L22.1235 23.0059L21.8465 22.2003Z" fill="#F1F2F2"/>
<path d="M22.1234 23.0055L2.29198 22.857C-0.0878125 20.4776 2.14685 18.0488 2.14685 18.0488L22.0897 18.0857L21.8468 18.7046C21.757 18.921 21.6847 19.1424 21.6298 19.3666H3.41417C2.80891 19.3666 2.31674 19.8588 2.31674 20.4636C2.31674 21.0688 2.80891 21.561 3.41417 21.561H21.6356C21.69 21.7775 21.7604 21.9915 21.8468 22.2002L22.1234 23.0055Z" fill="#DEE1E1"/>
<path d="M21.7891 23.7076L3.84465 23.6746C1.95921 23.6746 0.300395 22.6106 0.300395 20.7252C0.300395 20.1268 0.154054 19.3029 0.424505 18.8139C1.00623 17.762 2.12696 17.0498 3.41398 17.0498H22.1263C22.5516 17.0498 22.8964 17.3946 22.8964 17.8199C22.8964 18.2451 22.5516 18.5899 22.1263 18.5899H17.49L16.2786 18.8581L15.2589 18.5899H3.41403C2.37916 18.5899 1.54024 19.4288 1.54024 20.4637C1.54024 21.4986 2.37916 22.3375 3.41403 22.3375H22.1263C22.5516 22.3375 22.8964 22.6822 22.8964 23.1075C22.8964 23.155 22.892 23.2015 22.8838 23.2466C22.8183 23.6055 22.1669 23.7076 21.7891 23.7076Z" fill="#EF5227"/>
<path d="M22.884 23.2468C22.8553 23.404 22.7791 23.5438 22.6709 23.6521C22.5316 23.7914 22.3389 23.8778 22.1263 23.8778H3.41413C1.52845 23.8778 0 22.3493 0 20.4636C0 19.789 0.195606 19.1599 0.533913 18.6299V19.8326C0.533913 21.7183 2.06236 23.2468 3.94804 23.2468H22.884Z" fill="#D83724"/>
<path d="M17.49 20.8529V18.5898H15.9869L15.3202 18.6304L15.3559 20.7558C15.3559 20.8242 15.4247 20.8712 15.4884 20.8462L15.9869 20.7101L16.339 20.5722C16.3618 20.5633 16.3871 20.5633 16.4098 20.5722L17.3576 20.9433C17.4212 20.9682 17.49 20.9213 17.49 20.8529Z" fill="#FDCD08"/>
<path d="M15.9869 18.5889V20.7095L15.3913 20.9425C15.3277 20.9672 15.2588 20.9206 15.2588 20.8522V18.5889H15.9869Z" fill="#FAAB18"/>
</g>
<defs>
<clipPath id="clip0_1443_8453">
<rect width="24" height="24" fill="white"/>
</clipPath>
</defs>
</svg>
