<svg width="24" height="24" viewBox="0 0 24 24" fill="none" xmlns="http://www.w3.org/2000/svg">
<g clip-path="url(#clip0_1443_8658)">
<path d="M20.6277 14.4369C20.2196 13.7992 19.47 13.1279 18.1214 13.1279C16.2691 13.1279 15.5472 14.3649 15.2759 15.1477C15.2647 15.1798 15.2438 15.2076 15.2161 15.2273C15.1884 15.247 15.1552 15.2575 15.1212 15.2575C15.0873 15.2575 15.0541 15.247 15.0264 15.2273C14.9987 15.2076 14.9778 15.1798 14.9666 15.1477C14.6952 14.3649 13.9734 13.1279 12.1211 13.1279C10.7729 13.1279 10.0229 13.7992 9.61479 14.4369C9.25002 15.0239 9.07985 15.711 9.12851 16.4003C9.28663 19.1336 11.8609 20.8678 12.6404 21.332C12.8801 21.4748 13.1159 21.6236 13.3479 21.7786C14.0467 22.2481 14.5528 22.6226 14.8412 22.8435C14.9216 22.905 15.02 22.9384 15.1213 22.9384C15.2225 22.9384 15.3209 22.905 15.4013 22.8435C15.6897 22.6226 16.1956 22.2481 16.8946 21.7786C17.1261 21.6233 17.3624 21.4751 17.6021 21.332C18.3816 20.8678 20.9559 19.1336 21.114 16.4003C21.1626 15.711 20.9925 15.0239 20.6277 14.4369Z" fill="#FF8585"/>
<path d="M13.0156 8.83326H12.291V8.1086C12.291 8.05598 12.2806 8.00389 12.2605 7.95528C12.2403 7.90667 12.2108 7.86251 12.1736 7.82531C12.1364 7.78811 12.0922 7.75861 12.0436 7.73848C11.995 7.71835 11.9429 7.708 11.8903 7.70801H10.7215C10.6689 7.70801 10.6168 7.71837 10.5682 7.7385C10.5196 7.75863 10.4755 7.78814 10.4383 7.82534C10.4011 7.86254 10.3716 7.9067 10.3514 7.9553C10.3313 8.0039 10.3209 8.05599 10.3209 8.1086V8.83326H9.59627C9.54366 8.83326 9.49156 8.84362 9.44295 8.86375C9.39435 8.88389 9.35018 8.9134 9.31298 8.95061C9.27578 8.98782 9.24628 9.03198 9.22615 9.08059C9.20602 9.1292 9.19567 9.1813 9.19568 9.23391V10.4026C9.19567 10.4553 9.20602 10.5074 9.22615 10.556C9.24628 10.6046 9.27578 10.6487 9.31298 10.6859C9.35018 10.7232 9.39435 10.7527 9.44295 10.7728C9.49156 10.7929 9.54366 10.8033 9.59627 10.8033H10.3209V11.5279C10.3209 11.5805 10.3313 11.6326 10.3514 11.6812C10.3715 11.7298 10.401 11.774 10.4382 11.8112C10.4754 11.8484 10.5196 11.8779 10.5682 11.898C10.6168 11.9182 10.6689 11.9285 10.7215 11.9285H11.8903C11.9966 11.9285 12.0985 11.8863 12.1736 11.8112C12.2488 11.7361 12.291 11.6342 12.291 11.5279V10.8033H13.0156C13.1218 10.8033 13.2237 10.7611 13.2989 10.686C13.374 10.6108 13.4162 10.5089 13.4162 10.4026V9.23391C13.4162 9.12765 13.374 9.02574 13.2989 8.95061C13.2237 8.87547 13.1218 8.83326 13.0156 8.83326Z" fill="#B9D379"/>
<path d="M3.45129 12.7943C1.8867 12.7943 0.602417 11.5978 0.602417 10.0332V5.50455C0.602921 5.0689 0.776208 4.65123 1.08426 4.34317C1.39232 4.03512 1.80999 3.86183 2.24564 3.86133H2.63959C2.75192 3.86133 2.85965 3.90595 2.93907 3.98538C3.0185 4.0648 3.06312 4.17253 3.06312 4.28486C3.06312 4.39718 3.0185 4.50491 2.93907 4.58434C2.85965 4.66377 2.75192 4.70839 2.63959 4.70839H2.24564C2.03455 4.70863 1.83217 4.7926 1.68291 4.94187C1.53365 5.09114 1.4497 5.29353 1.44948 5.50462V10.0333C1.44948 10.9868 2.12338 11.7351 3.01992 11.9095C3.15898 11.9291 3.29959 11.9355 3.43985 11.9284C3.67371 11.9284 3.86338 12.2133 3.86338 12.4473C3.86338 12.6812 3.68515 12.7943 3.45129 12.7943Z" fill="#A7A7B5"/>
<path d="M2.58435 3.97905V5.1914H2.9867C3.13498 5.1914 3.27717 5.1325 3.38202 5.02766C3.48686 4.92281 3.54576 4.78061 3.54576 4.63234V3.93789C3.54576 3.86448 3.5313 3.79179 3.50321 3.72396C3.47511 3.65614 3.43393 3.59451 3.38201 3.54261C3.3301 3.4907 3.26847 3.44952 3.20064 3.42144C3.13281 3.39335 3.06012 3.3789 2.9867 3.37891H2.58435V3.97905Z" fill="#E0E0E0"/>
<path d="M5.05523 12.7943C6.61982 12.7943 7.9041 11.5978 7.9041 10.0332V5.50455C7.90358 5.06889 7.73028 4.65122 7.42221 4.34317C7.11414 4.03512 6.69647 3.86183 6.26081 3.86133H5.86685C5.75453 3.86133 5.6468 3.90595 5.56737 3.98538C5.48795 4.0648 5.44333 4.17253 5.44333 4.28486C5.44333 4.39718 5.48795 4.50491 5.56737 4.58434C5.6468 4.66377 5.75453 4.70839 5.86685 4.70839H6.26081C6.47191 4.70863 6.67429 4.7926 6.82356 4.94187C6.97283 5.09114 7.0568 5.29352 7.05704 5.50462V10.0333C7.05704 10.9868 6.38307 11.7351 5.48652 11.9095C5.34747 11.9291 5.20686 11.9355 5.0666 11.9284C4.83274 11.9284 4.64307 12.2133 4.64307 12.4473C4.64307 12.6812 4.82123 12.7943 5.05523 12.7943Z" fill="#A7A7B5"/>
<path d="M5.9224 3.97905V5.1914H5.52005C5.44663 5.1914 5.37394 5.17694 5.30612 5.14884C5.23829 5.12075 5.17667 5.07957 5.12476 5.02765C5.07285 4.97574 5.03168 4.91411 5.00359 4.84628C4.9755 4.77845 4.96105 4.70575 4.96106 4.63234V3.93789C4.96105 3.86448 4.9755 3.79179 5.00359 3.72397C5.03168 3.65614 5.07285 3.59452 5.12476 3.54261C5.17667 3.4907 5.2383 3.44953 5.30612 3.42144C5.37395 3.39335 5.44664 3.3789 5.52005 3.37891H5.9224V3.97905Z" fill="#E0E0E0"/>
<path d="M13.6486 18.1787C13.6847 19.5535 12.8883 20.494 12.1978 21.0489C12.3742 21.1693 12.5261 21.2645 12.6396 21.3321C12.811 21.4343 12.9802 21.5404 13.1478 21.6489C14.1258 20.6354 14.3461 19.1508 14.3461 19.1508C15.3394 18.4323 14.9908 17.3545 14.9908 17.3545L13.6486 18.1787Z" fill="#E05F5F"/>
<path d="M13.6486 18.8191C14.3898 18.8191 14.9907 18.2182 14.9907 17.4769C14.9907 16.7357 14.3898 16.1348 13.6486 16.1348C12.9073 16.1348 12.3064 16.7357 12.3064 17.4769C12.3064 18.2182 12.9073 18.8191 13.6486 18.8191Z" fill="white"/>
<path d="M9.61783 22.3771H8.28371C7.10282 22.3757 5.97069 21.906 5.13568 21.071C4.30066 20.236 3.83095 19.1039 3.82959 17.923V13.239C3.82959 13.1266 3.87421 13.0189 3.95364 12.9395C4.03307 12.8601 4.14079 12.8154 4.25312 12.8154C4.36545 12.8154 4.47317 12.8601 4.5526 12.9395C4.63203 13.0189 4.67665 13.1266 4.67665 13.239V17.9229C4.67775 18.8792 5.05813 19.7961 5.73435 20.4723C6.41057 21.1485 7.32739 21.5289 8.28371 21.53H9.61783C11.9143 21.53 13.2249 19.6136 13.2249 17.6247C13.2249 17.5123 13.2695 17.4046 13.3489 17.3252C13.4284 17.2458 13.5361 17.2011 13.6484 17.2011C13.7607 17.2011 13.8685 17.2458 13.9479 17.3252C14.0273 17.4046 14.0719 17.5123 14.0719 17.6247C14.0721 20.0808 12.497 22.3771 9.61783 22.3771Z" fill="#A7A7B5"/>
<path d="M3.0199 11.9092V12.5419C3.01992 12.6399 3.05888 12.7339 3.12822 12.8033C3.19755 12.8726 3.29159 12.9115 3.38964 12.9115H3.6367V13.329C3.6367 13.4218 3.67356 13.5108 3.73918 13.5764C3.8048 13.642 3.8938 13.6789 3.9866 13.6789H4.52004C4.61284 13.6789 4.70184 13.642 4.76746 13.5764C4.83308 13.5108 4.86994 13.4218 4.86994 13.329V12.9115H5.117C5.21505 12.9115 5.30907 12.8726 5.3784 12.8033C5.44773 12.7339 5.48667 12.6399 5.48667 12.5419V11.9092H3.0199Z" fill="#E0E0E0"/>
<path d="M19.0056 0.935547C17.677 2.19689 14.6135 1.62414 14.6135 1.62414V6.0935C14.61 6.62245 14.7065 7.14729 14.8978 7.64044C16.0013 10.4294 19.0056 10.9882 19.0056 10.9882C19.0056 10.9882 22.0098 10.4294 23.1134 7.64044C23.3046 7.14728 23.4011 6.62244 23.3976 6.0935V1.62414C23.3976 1.62414 20.3341 2.19689 19.0056 0.935547Z" fill="#FFDC6C"/>
<path d="M19.0055 0.935547C18.7911 1.13354 18.543 1.29154 18.2729 1.40206L14.6134 5.06157V6.0935C14.6121 6.49337 14.6663 6.89149 14.7746 7.27642L20.4327 1.61835C19.8908 1.50025 19.3795 1.29054 19.0055 0.935547Z" fill="#FFEDD2"/>
<path d="M15.2881 8.42326C15.4461 8.68137 15.6267 8.92485 15.828 9.15082L22.9745 2.02896V1.68555C22.7381 1.71378 22.4187 1.74244 22.0577 1.75141L15.2881 8.42326Z" fill="#FFEDD2"/>
<path d="M23.1133 7.64044C23.3046 7.14728 23.401 6.62244 23.3976 6.0935V1.62414C23.3976 1.62414 20.334 2.19689 19.0055 0.935547V10.9882C19.0055 10.9882 22.0097 10.4294 23.1133 7.64044Z" fill="#FCA742"/>
<path d="M14.6134 4.02026L16.9129 1.7207C16.7316 1.73807 16.5518 1.74795 16.3772 1.75204L14.6134 3.51583V4.02026Z" fill="#FFEDD2"/>
<path d="M10.7215 12.2101H11.8903C12.0714 12.2098 12.245 12.1378 12.3731 12.0098C12.5011 11.8817 12.5731 11.7081 12.5733 11.527V11.0848H13.0156C13.1966 11.0846 13.3703 11.0126 13.4983 10.8845C13.6263 10.7565 13.6984 10.5829 13.6986 10.4018V9.23306C13.6984 9.05198 13.6263 8.87837 13.4983 8.75033C13.3703 8.62228 13.1966 8.55026 13.0156 8.55005H12.5733V8.10782C12.5731 7.92673 12.5011 7.75313 12.3731 7.62508C12.245 7.49704 12.0714 7.42501 11.8903 7.4248H10.7215C10.5404 7.42501 10.3668 7.49704 10.2388 7.62508C10.1107 7.75313 10.0387 7.92673 10.0385 8.10782V8.55005H9.59634C9.41526 8.55026 9.24165 8.62228 9.11361 8.75033C8.98556 8.87837 8.91354 9.05198 8.91333 9.23306V10.4018C8.91354 10.5829 8.98556 10.7565 9.11361 10.8845C9.24165 11.0126 9.41526 11.0846 9.59634 11.0848H10.0385V11.527C10.0387 11.7081 10.1107 11.8817 10.2388 12.0098C10.3668 12.1378 10.5404 12.2098 10.7215 12.2101ZM9.59634 10.5201C9.56498 10.5201 9.53491 10.5076 9.51273 10.4854C9.49055 10.4632 9.47807 10.4332 9.47804 10.4018V9.23306C9.47807 9.2017 9.49055 9.17163 9.51273 9.14945C9.53491 9.12727 9.56498 9.11479 9.59634 9.11476H10.3209C10.3957 9.11476 10.4676 9.08501 10.5205 9.03206C10.5735 8.97911 10.6032 8.90729 10.6032 8.8324V8.10782C10.6033 8.07645 10.6157 8.04638 10.6379 8.0242C10.6601 8.00202 10.6902 7.98955 10.7215 7.98951H11.8903C11.9217 7.98955 11.9518 8.00202 11.9739 8.0242C11.9961 8.04638 12.0086 8.07645 12.0086 8.10782V8.8324C12.0086 8.90729 12.0384 8.97911 12.0913 9.03206C12.1443 9.08501 12.2161 9.11476 12.291 9.11476H13.0156C13.0469 9.11479 13.077 9.12727 13.0992 9.14945C13.1214 9.17163 13.1338 9.2017 13.1339 9.23306V10.4018C13.1338 10.4332 13.1214 10.4632 13.0992 10.4854C13.077 10.5076 13.0469 10.5201 13.0156 10.5201H12.291C12.2161 10.5201 12.1443 10.5498 12.0913 10.6028C12.0384 10.6557 12.0086 10.7276 12.0086 10.8025V11.527C12.0086 11.5584 11.9961 11.5885 11.9739 11.6107C11.9518 11.6328 11.9217 11.6453 11.8903 11.6453H10.7215C10.6902 11.6453 10.6601 11.6328 10.6379 11.6107C10.6157 11.5885 10.6033 11.5584 10.6032 11.527V10.8025C10.6032 10.7276 10.5735 10.6557 10.5205 10.6028C10.4676 10.5498 10.3957 10.5201 10.3209 10.5201H9.59634Z" fill="#494456"/>
<path d="M2.97101 13.0405C3.07878 13.1316 3.21333 13.185 3.35423 13.1927V13.3287C3.35425 13.4135 3.37135 13.4974 3.40452 13.5753C3.43769 13.6533 3.48625 13.7238 3.54729 13.7826V17.9229C3.54873 19.1787 4.04821 20.3826 4.93616 21.2705C5.82411 22.1585 7.02801 22.6579 8.28376 22.6594H9.61788C10.6924 22.6602 11.7349 22.2937 12.5726 21.6208C12.7882 21.7506 12.9843 21.8746 13.1677 21.9975C14.3013 22.7578 14.9359 23.2761 14.9421 23.2813C14.9926 23.3227 15.0559 23.3454 15.1212 23.3454C15.1865 23.3454 15.2498 23.3227 15.3003 23.2813C15.3066 23.2762 15.9411 22.7579 17.0749 21.9975C17.2796 21.8603 17.4993 21.7218 17.7472 21.574C18.5613 21.089 21.2299 19.2838 21.3958 16.4164C21.4493 15.6676 21.2636 14.9211 20.8654 14.2846C20.4455 13.6282 19.6284 12.8455 18.1214 12.8455C16.3133 12.8455 15.4884 13.9392 15.1214 14.783C14.7543 13.9392 13.9293 12.8455 12.1214 12.8455C10.6144 12.8455 9.79746 13.6281 9.37732 14.2846C8.97922 14.9211 8.79352 15.6676 8.84699 16.4164C8.92583 17.7788 9.60037 19.112 10.7978 20.2722C10.8244 20.2983 10.8559 20.3189 10.8904 20.3328C10.925 20.3467 10.962 20.3536 10.9992 20.3532C11.0365 20.3527 11.0733 20.3449 11.1075 20.3302C11.1417 20.3154 11.1727 20.2941 11.1986 20.2673C11.2245 20.2406 11.2449 20.209 11.2585 20.1743C11.2722 20.1396 11.2788 20.1026 11.2781 20.0654C11.2774 20.0281 11.2693 19.9914 11.2543 19.9573C11.2393 19.9232 11.2177 19.8923 11.1908 19.8666C10.0812 18.7915 9.48256 17.6197 9.4107 16.3838C9.36441 15.7538 9.51928 15.1253 9.85301 14.5889C10.3534 13.8067 11.1165 13.4101 12.1214 13.4101C14.5389 13.4101 14.8298 15.7085 14.8409 15.8057C14.8484 15.8749 14.8813 15.9388 14.9331 15.9853C14.9849 16.0318 15.052 16.0575 15.1216 16.0575C15.1912 16.0575 15.2583 16.0318 15.3102 15.9853C15.362 15.9388 15.3948 15.8749 15.4023 15.8057C15.4678 15.3783 15.6184 14.9684 15.8453 14.6003C16.3362 13.8105 17.1021 13.4101 18.1217 13.4101C19.1265 13.4101 19.8897 13.8067 20.3901 14.5889C20.7239 15.1253 20.8788 15.7537 20.8324 16.3838C20.6824 18.9738 18.2118 20.6401 17.4583 21.0891C17.2016 21.242 16.9733 21.3855 16.7604 21.5286C15.9428 22.0769 15.387 22.4957 15.1212 22.7027C14.8555 22.4959 14.2996 22.0769 13.4822 21.5286C13.3332 21.4287 13.1763 21.3284 13.0088 21.2251C13.6126 20.6064 14.0354 19.8341 14.2312 18.992C14.5734 18.8601 14.8608 18.6162 15.0467 18.3001C15.2326 17.984 15.3059 17.6142 15.2548 17.2511C15.2038 16.8879 15.0312 16.5528 14.7654 16.3002C14.4995 16.0476 14.156 15.8925 13.7907 15.86C13.4254 15.8276 13.0599 15.9198 12.7537 16.1216C12.4475 16.3234 12.2187 16.623 12.1044 16.9714C11.9902 17.3199 11.9973 17.6968 12.1245 18.0407C12.2518 18.3846 12.4918 18.6753 12.8054 18.8655C12.6012 19.5528 12.1807 20.1558 11.6064 20.585C11.032 21.0142 10.3345 21.2465 9.61753 21.2475H8.28341C7.40196 21.2464 6.5569 20.8958 5.93362 20.2726C5.31034 19.6493 4.95973 18.8042 4.9587 17.9228V13.7827C5.01979 13.7239 5.06838 13.6534 5.10158 13.5754C5.13477 13.4974 5.15189 13.4135 5.1519 13.3287V13.1926C5.29279 13.1849 5.42733 13.1314 5.53513 13.0404C7.07713 12.8155 8.18607 11.5662 8.18607 10.0326V5.50403C8.18549 4.99364 7.98253 4.5043 7.62169 4.14333C7.26085 3.78236 6.77159 3.57922 6.2612 3.57846H6.20473V3.37806C6.20473 3.30317 6.17498 3.23135 6.12203 3.1784C6.06908 3.12545 5.99726 3.0957 5.92237 3.0957H5.52002C5.29689 3.09585 5.08294 3.18453 4.92512 3.34227C4.7673 3.5 4.67852 3.71391 4.67826 3.93704V4.63149C4.67852 4.85455 4.76724 5.06841 4.92496 5.22615C5.08269 5.38388 5.29653 5.47262 5.5196 5.4729H5.92195C5.99684 5.4729 6.06865 5.44316 6.1216 5.3902C6.17456 5.33725 6.2043 5.26543 6.2043 5.19055V4.99022H6.26077C6.39701 4.99039 6.52761 5.04459 6.62393 5.14092C6.72026 5.23726 6.77444 5.36787 6.77459 5.5041V10.0328C6.77697 10.2668 6.72749 10.4985 6.6297 10.7112C6.53192 10.9238 6.38826 11.1122 6.20903 11.2628C6.18024 11.2866 6.15647 11.3158 6.13907 11.3489C6.12168 11.382 6.11102 11.4181 6.1077 11.4553C6.10439 11.4925 6.10849 11.53 6.11978 11.5656C6.13106 11.6013 6.14929 11.6343 6.17342 11.6628C6.19756 11.6913 6.22711 11.7147 6.26036 11.7318C6.29362 11.7488 6.32992 11.759 6.36716 11.7619C6.4044 11.7648 6.44184 11.7602 6.47732 11.7485C6.5128 11.7368 6.5456 11.7182 6.57383 11.6938C6.81465 11.4893 7.00791 11.2348 7.14012 10.9479C7.27234 10.661 7.34031 10.3487 7.33929 10.0328V5.50403C7.3389 5.21819 7.2252 4.94415 7.02312 4.74199C6.82103 4.53982 6.54704 4.42602 6.2612 4.42552H6.20473V4.14316H6.2612C6.62201 4.14355 6.96794 4.28707 7.22307 4.54221C7.4782 4.79735 7.6217 5.14329 7.62207 5.5041V10.0328C7.62207 11.1739 6.86353 12.1222 5.7692 12.4168V11.909C5.7692 11.8341 5.73945 11.7623 5.6865 11.7093C5.63355 11.6564 5.56173 11.6266 5.48685 11.6266H3.05204C2.68089 11.5562 2.34595 11.3584 2.10498 11.0674C1.86401 10.7765 1.73212 10.4106 1.73204 10.0328V5.50403C1.73219 5.3678 1.78637 5.23719 1.8827 5.14085C1.97902 5.04452 2.10962 4.99032 2.24586 4.99015H2.30233V5.19055C2.30233 5.26543 2.33208 5.33725 2.38503 5.3902C2.43798 5.44316 2.5098 5.4729 2.58468 5.4729H2.98703C3.21011 5.47264 3.42397 5.38391 3.58171 5.22617C3.73945 5.06843 3.82818 4.85457 3.82844 4.63149V3.93704C3.82816 3.71398 3.73942 3.50013 3.58169 3.34241C3.42395 3.18469 3.2101 3.09596 2.98703 3.0957H2.58468C2.5098 3.0957 2.43798 3.12545 2.38503 3.1784C2.33208 3.23135 2.30233 3.30317 2.30233 3.37806V3.57846H2.24586C1.7353 3.57898 1.24581 3.78201 0.884771 4.14301C0.523735 4.50401 0.320648 4.99348 0.320068 5.50403V10.0327C0.320068 11.566 1.42908 12.8156 2.97101 13.0405ZM5.64002 4.9082H5.52002C5.44667 4.9081 5.37635 4.87892 5.32449 4.82704C5.27263 4.77517 5.24346 4.70484 5.24339 4.63149V3.93704C5.24346 3.8637 5.27263 3.79338 5.32449 3.74152C5.37636 3.68965 5.44668 3.66048 5.52002 3.66041H5.64002V4.9082ZM12.5891 17.4765C12.5889 17.2988 12.6335 17.1239 12.7186 16.9678C12.8037 16.8118 12.9267 16.6797 13.0763 16.5837C13.2258 16.4877 13.3971 16.4308 13.5744 16.4183C13.7517 16.4058 13.9293 16.4381 14.0908 16.5122C14.2524 16.5863 14.3927 16.6998 14.4989 16.8423C14.6051 16.9848 14.6737 17.1518 14.6985 17.3278C14.7233 17.5038 14.7034 17.6832 14.6407 17.8495C14.578 18.0158 14.4745 18.1636 14.3397 18.2794C14.3485 18.1616 14.3545 18.043 14.3545 17.9229C14.3545 17.7357 14.2801 17.5561 14.1477 17.4238C14.0154 17.2914 13.8358 17.217 13.6486 17.217C13.4614 17.217 13.2819 17.2914 13.1495 17.4238C13.0171 17.5561 12.9427 17.7357 12.9427 17.9229C12.9427 18.0341 12.937 18.144 12.9263 18.2525C12.8196 18.1534 12.7346 18.0333 12.6765 17.8997C12.6184 17.7662 12.5886 17.6221 12.5888 17.4765H12.5891ZM8.28419 21.8124H9.6183C10.4998 21.8112 11.3548 21.511 12.0436 20.961C12.7324 20.4109 13.2143 19.6435 13.4106 18.7842C13.4122 18.7775 13.414 18.771 13.4152 18.7644C13.4766 18.4882 13.5077 18.2061 13.5079 17.9231C13.5079 17.8857 13.5227 17.8498 13.5492 17.8233C13.5757 17.7968 13.6116 17.7819 13.649 17.7819C13.6865 17.7819 13.7224 17.7968 13.7489 17.8233C13.7753 17.8498 13.7902 17.8857 13.7902 17.9231C13.7889 19.0291 13.349 20.0895 12.5669 20.8716C11.7848 21.6537 10.7245 22.0936 9.61845 22.0949H8.28433C7.1783 22.0936 6.11795 21.6537 5.33587 20.8716C4.55379 20.0895 4.11385 19.0291 4.11256 17.9231V13.9611H4.39492V17.9229C4.39609 18.954 4.80619 19.9426 5.53524 20.6717C6.2643 21.4009 7.2528 21.8111 8.2839 21.8124H8.28419ZM5.20414 12.5416C5.20387 12.5625 5.19605 12.5825 5.18212 12.5981C5.18106 12.5994 5.18028 12.6009 5.17929 12.6022C5.17122 12.6107 5.16152 12.6174 5.15079 12.622C5.14005 12.6266 5.1285 12.629 5.11682 12.629H4.86976C4.79488 12.629 4.72306 12.6587 4.67011 12.7117C4.61716 12.7646 4.58741 12.8365 4.58741 12.9114V13.3287C4.58739 13.3467 4.58026 13.3639 4.56758 13.3765C4.5549 13.3892 4.53772 13.3963 4.51979 13.3964H3.98649C3.96858 13.3963 3.9514 13.3892 3.93874 13.3765C3.92608 13.3638 3.91896 13.3467 3.91894 13.3287V12.9114C3.91894 12.8365 3.88919 12.7646 3.83624 12.7117C3.78329 12.6587 3.71147 12.629 3.63659 12.629H3.38953C3.36637 12.629 3.34417 12.6197 3.3278 12.6034C3.31143 12.587 3.30223 12.5648 3.30221 12.5416V12.1913H5.20414V12.5416ZM2.86668 3.66041H2.98668C3.06003 3.66048 3.13036 3.68965 3.18223 3.74151C3.23411 3.79337 3.26329 3.86369 3.26339 3.93704V4.63149C3.26329 4.70485 3.23411 4.77518 3.18224 4.82705C3.13037 4.87892 3.06004 4.9081 2.98668 4.9082H2.86668V3.66041ZM0.884774 5.50403C0.885167 5.14323 1.02867 4.79731 1.2838 4.54219C1.53893 4.28706 1.88484 4.14355 2.24564 4.14316H2.30212V4.42552H2.24564C1.95971 4.42591 1.6856 4.53967 1.48343 4.74186C1.28125 4.94405 1.1675 5.21817 1.16713 5.5041V10.0328C1.1655 10.5054 1.31791 10.9657 1.60129 11.344C1.88467 11.7223 2.28359 11.9979 2.73764 12.1292V12.4167C1.64353 12.122 0.884774 11.1736 0.884774 10.0327V5.50403Z" fill="#494456"/>
<path d="M23.3458 1.34643C23.3166 1.35186 20.4099 1.87937 19.2 0.730614C19.1947 0.725532 19.1886 0.722003 19.183 0.717485C19.1756 0.711414 19.1684 0.705273 19.1606 0.70005C19.1526 0.694931 19.1444 0.69022 19.1359 0.685932C19.128 0.681767 19.1201 0.677391 19.1118 0.674003C19.103 0.670599 19.0939 0.667677 19.0848 0.66525C19.0764 0.662779 19.0683 0.660167 19.0598 0.658544C19.0504 0.6569 19.041 0.655746 19.0315 0.655085C19.0229 0.654309 19.0145 0.65332 19.0058 0.65332C18.9963 0.653453 18.9869 0.65409 18.9775 0.655226C18.9689 0.656073 18.9603 0.656779 18.9516 0.658403C18.943 0.660026 18.9336 0.662991 18.9246 0.665462C18.9161 0.667743 18.9077 0.670476 18.8995 0.67365C18.8827 0.681328 18.8663 0.689905 18.8505 0.699344C18.8424 0.704911 18.8347 0.71092 18.8273 0.717344C18.8218 0.72172 18.8159 0.725179 18.8108 0.73005C17.6031 1.87669 14.6941 1.35123 14.6649 1.34586C14.6241 1.33826 14.5822 1.33974 14.5421 1.35017C14.5019 1.36061 14.4646 1.37976 14.4327 1.40625C14.4008 1.43274 14.3752 1.46594 14.3575 1.50347C14.3399 1.541 14.3308 1.58195 14.3308 1.62341V6.09334C14.3269 6.65789 14.4301 7.21806 14.6348 7.74419C15.7826 10.6449 18.8247 11.2416 18.9535 11.2656H18.9543C18.9709 11.2687 18.9879 11.2703 19.0049 11.2704H19.0055C19.0225 11.2703 19.0394 11.2687 19.0561 11.2656H19.0568C19.1857 11.2416 22.2277 10.6449 23.3755 7.74412C23.5803 7.21801 23.6834 6.65787 23.6796 6.09334V1.62398C23.6796 1.5825 23.6704 1.54154 23.6528 1.50399C23.6352 1.46645 23.6095 1.43325 23.5776 1.40675C23.5457 1.38025 23.5083 1.36111 23.4682 1.35069C23.4281 1.34026 23.3861 1.33881 23.3453 1.34643H23.3458ZM23.1153 6.09334C23.1191 6.58675 23.0294 7.07641 22.8508 7.53638C21.8969 9.94725 19.3954 10.6096 19.0053 10.6993C18.614 10.6104 16.117 9.95417 15.1603 7.53638C14.9818 7.07639 14.8921 6.58674 14.8959 6.09334V1.95285C15.7104 2.06007 17.8006 2.22271 19.0056 1.30414C20.2106 2.22278 22.3008 2.06014 23.1153 1.95285V6.09334Z" fill="#494456"/>
</g>
<defs>
<clipPath id="clip0_1443_8658">
<rect width="24" height="24" fill="white"/>
</clipPath>
</defs>
</svg>
