<svg width="24" height="24" viewBox="0 0 24 24" fill="none" xmlns="http://www.w3.org/2000/svg">
<g clip-path="url(#clip0_1506_18261)">
<path d="M20.6276 14.4369C20.2196 13.7992 19.47 13.1279 18.1213 13.1279C16.269 13.1279 15.5472 14.3649 15.2759 15.1477C15.2646 15.1798 15.2437 15.2076 15.216 15.2273C15.1883 15.247 15.1552 15.2575 15.1212 15.2575C15.0872 15.2575 15.0541 15.247 15.0264 15.2273C14.9987 15.2076 14.9778 15.1798 14.9665 15.1477C14.6952 14.3649 13.9734 13.1279 12.1211 13.1279C10.7728 13.1279 10.0228 13.7992 9.61476 14.4369C9.24999 15.0239 9.07981 15.711 9.12847 16.4003C9.28659 19.1336 11.8609 20.8678 12.6404 21.332C12.88 21.4748 13.1159 21.6236 13.3479 21.7786C14.0467 22.2481 14.5528 22.6226 14.8412 22.8435C14.9216 22.905 15.02 22.9384 15.1212 22.9384C15.2225 22.9384 15.3209 22.905 15.4013 22.8435C15.6896 22.6226 16.1956 22.2481 16.8945 21.7786C17.126 21.6233 17.3624 21.4751 17.602 21.332C18.3815 20.8678 20.9558 19.1336 21.1139 16.4003C21.1626 15.711 20.9924 15.0239 20.6276 14.4369Z" fill="#FF8585"/>
<path d="M13.0156 8.83326H12.291V8.1086C12.291 8.05598 12.2806 8.00389 12.2605 7.95528C12.2403 7.90667 12.2108 7.86251 12.1736 7.82531C12.1364 7.78811 12.0922 7.75861 12.0436 7.73848C11.995 7.71835 11.9429 7.708 11.8903 7.70801H10.7215C10.6689 7.70801 10.6168 7.71837 10.5682 7.7385C10.5196 7.75863 10.4754 7.78814 10.4382 7.82534C10.401 7.86254 10.3715 7.9067 10.3514 7.9553C10.3313 8.0039 10.3209 8.05599 10.3209 8.1086V8.83326H9.59626C9.54365 8.83326 9.49155 8.84362 9.44294 8.86375C9.39434 8.88389 9.35017 8.9134 9.31298 8.95061C9.27578 8.98782 9.24627 9.03198 9.22614 9.08059C9.20602 9.1292 9.19566 9.1813 9.19567 9.23391V10.4026C9.19566 10.4553 9.20602 10.5074 9.22614 10.556C9.24627 10.6046 9.27578 10.6487 9.31298 10.6859C9.35017 10.7232 9.39434 10.7527 9.44294 10.7728C9.49155 10.7929 9.54365 10.8033 9.59626 10.8033H10.3209V11.5279C10.3209 11.5805 10.3313 11.6326 10.3514 11.6812C10.3715 11.7298 10.401 11.774 10.4382 11.8112C10.4754 11.8484 10.5196 11.8779 10.5682 11.898C10.6168 11.9182 10.6689 11.9285 10.7215 11.9285H11.8903C11.9966 11.9285 12.0985 11.8863 12.1736 11.8112C12.2488 11.7361 12.291 11.6342 12.291 11.5279V10.8033H13.0156C13.1218 10.8033 13.2237 10.7611 13.2989 10.686C13.374 10.6108 13.4162 10.5089 13.4162 10.4026V9.23391C13.4162 9.12765 13.374 9.02574 13.2989 8.95061C13.2237 8.87547 13.1218 8.83326 13.0156 8.83326Z" fill="#B9D379"/>
<path d="M3.45127 12.7943C1.88668 12.7943 0.602402 11.5978 0.602402 10.0332V5.50455C0.602906 5.0689 0.776193 4.65123 1.08425 4.34317C1.3923 4.03512 1.80997 3.86183 2.24563 3.86133H2.63958C2.75191 3.86133 2.85963 3.90595 2.93906 3.98538C3.01849 4.0648 3.06311 4.17253 3.06311 4.28486C3.06311 4.39718 3.01849 4.50491 2.93906 4.58434C2.85963 4.66377 2.75191 4.70839 2.63958 4.70839H2.24563C2.03453 4.70863 1.83215 4.7926 1.6829 4.94187C1.53364 5.09114 1.44968 5.29353 1.44946 5.50462V10.0333C1.44946 10.9868 2.12337 11.7351 3.01991 11.9095C3.15897 11.9291 3.29958 11.9355 3.43984 11.9284C3.6737 11.9284 3.86337 12.2133 3.86337 12.4473C3.86337 12.6812 3.68513 12.7943 3.45127 12.7943Z" fill="#A7A7B5"/>
<path d="M2.5843 3.97905V5.1914H2.98666C3.13493 5.1914 3.27713 5.1325 3.38197 5.02766C3.48682 4.92281 3.54572 4.78061 3.54572 4.63234V3.93789C3.54572 3.86448 3.53126 3.79179 3.50316 3.72396C3.47506 3.65614 3.43388 3.59451 3.38197 3.54261C3.33005 3.4907 3.26842 3.44952 3.2006 3.42144C3.13277 3.39335 3.06007 3.3789 2.98666 3.37891H2.5843V3.97905Z" fill="#E0E0E0"/>
<path d="M5.05518 12.7943C6.61977 12.7943 7.90405 11.5978 7.90405 10.0332V5.50455C7.90352 5.06889 7.73022 4.65122 7.42216 4.34317C7.11409 4.03512 6.69642 3.86183 6.26075 3.86133H5.8668C5.75447 3.86133 5.64675 3.90595 5.56732 3.98538C5.48789 4.0648 5.44327 4.17253 5.44327 4.28486C5.44327 4.39718 5.48789 4.50491 5.56732 4.58434C5.64675 4.66377 5.75447 4.70839 5.8668 4.70839H6.26075C6.47185 4.70863 6.67424 4.7926 6.82351 4.94187C6.97278 5.09114 7.05675 5.29352 7.05699 5.50462V10.0333C7.05699 10.9868 6.38301 11.7351 5.48647 11.9095C5.34741 11.9291 5.2068 11.9355 5.06654 11.9284C4.83268 11.9284 4.64301 12.2133 4.64301 12.4473C4.64301 12.6812 4.82118 12.7943 5.05518 12.7943Z" fill="#A7A7B5"/>
<path d="M5.92235 3.97905V5.1914H5.52C5.44658 5.1914 5.37389 5.17694 5.30607 5.14884C5.23824 5.12075 5.17662 5.07957 5.12471 5.02765C5.0728 4.97574 5.03163 4.91411 5.00354 4.84628C4.97545 4.77845 4.961 4.70575 4.96101 4.63234V3.93789C4.961 3.86448 4.97545 3.79179 5.00354 3.72397C5.03163 3.65614 5.0728 3.59452 5.12471 3.54261C5.17662 3.4907 5.23825 3.44953 5.30607 3.42144C5.3739 3.39335 5.44659 3.3789 5.52 3.37891H5.92235V3.97905Z" fill="#E0E0E0"/>
<path d="M13.6486 18.1787C13.6847 19.5535 12.8883 20.494 12.1978 21.0489C12.3743 21.1693 12.5262 21.2645 12.6396 21.3321C12.811 21.4343 12.9803 21.5404 13.1478 21.6489C14.1258 20.6354 14.3461 19.1508 14.3461 19.1508C15.3394 18.4323 14.9908 17.3545 14.9908 17.3545L13.6486 18.1787Z" fill="#E05F5F"/>
<path d="M13.6486 18.8191C14.3898 18.8191 14.9908 18.2182 14.9908 17.4769C14.9908 16.7357 14.3898 16.1348 13.6486 16.1348C12.9073 16.1348 12.3064 16.7357 12.3064 17.4769C12.3064 18.2182 12.9073 18.8191 13.6486 18.8191Z" fill="white"/>
<path d="M9.61786 22.3771H8.28374C7.10285 22.3757 5.97072 21.906 5.13571 21.071C4.30069 20.236 3.83098 19.1039 3.82962 17.923V13.239C3.82962 13.1266 3.87424 13.0189 3.95367 12.9395C4.0331 12.8601 4.14082 12.8154 4.25315 12.8154C4.36548 12.8154 4.4732 12.8601 4.55263 12.9395C4.63206 13.0189 4.67668 13.1266 4.67668 13.239V17.9229C4.67778 18.8792 5.05816 19.7961 5.73438 20.4723C6.4106 21.1485 7.32743 21.5289 8.28374 21.53H9.61786C11.9143 21.53 13.2249 19.6136 13.2249 17.6247C13.2249 17.5123 13.2695 17.4046 13.349 17.3252C13.4284 17.2458 13.5361 17.2011 13.6484 17.2011C13.7608 17.2011 13.8685 17.2458 13.9479 17.3252C14.0274 17.4046 14.072 17.5123 14.072 17.6247C14.0721 20.0808 12.4971 22.3771 9.61786 22.3771Z" fill="#A7A7B5"/>
<path d="M3.01991 11.9092V12.5419C3.01992 12.6399 3.05889 12.7339 3.12822 12.8033C3.19756 12.8726 3.2916 12.9115 3.38965 12.9115H3.63671V13.329C3.63671 13.4218 3.67357 13.5108 3.73919 13.5764C3.80481 13.642 3.89381 13.6789 3.98661 13.6789H4.52005C4.61285 13.6789 4.70185 13.642 4.76747 13.5764C4.83309 13.5108 4.86995 13.4218 4.86995 13.329V12.9115H5.11701C5.21505 12.9115 5.30908 12.8726 5.37841 12.8033C5.44773 12.7339 5.48668 12.6399 5.48668 12.5419V11.9092H3.01991Z" fill="#E0E0E0"/>
<path d="M19.0055 0.935547C17.677 2.19689 14.6135 1.62414 14.6135 1.62414V6.0935C14.61 6.62245 14.7065 7.14729 14.8978 7.64044C16.0013 10.4294 19.0055 10.9882 19.0055 10.9882C19.0055 10.9882 22.0098 10.4294 23.1133 7.64044C23.3046 7.14728 23.401 6.62244 23.3976 6.0935V1.62414C23.3976 1.62414 20.3341 2.19689 19.0055 0.935547Z" fill="#FFDC6C"/>
<path d="M19.0055 0.935547C18.7912 1.13354 18.543 1.29154 18.273 1.40206L14.6135 5.06157V6.0935C14.6121 6.49337 14.6663 6.89149 14.7746 7.27642L20.4327 1.61835C19.8908 1.50025 19.3795 1.29054 19.0055 0.935547Z" fill="#FFEDD2"/>
<path d="M15.2881 8.42326C15.446 8.68137 15.6267 8.92485 15.828 9.15082L22.9745 2.02896V1.68555C22.7381 1.71378 22.4187 1.74244 22.0577 1.75141L15.2881 8.42326Z" fill="#FFEDD2"/>
<path d="M23.1133 7.64044C23.3046 7.14728 23.401 6.62244 23.3976 6.0935V1.62414C23.3976 1.62414 20.3341 2.19689 19.0055 0.935547V10.9882C19.0055 10.9882 22.0098 10.4294 23.1133 7.64044Z" fill="#FCA742"/>
<path d="M14.6135 4.02026L16.9129 1.7207C16.7317 1.73807 16.5519 1.74795 16.3772 1.75204L14.6135 3.51583V4.02026Z" fill="#FFEDD2"/>
<path d="M10.7215 12.2101H11.8903C12.0714 12.2098 12.245 12.1378 12.373 12.0098C12.5011 11.8817 12.5731 11.7081 12.5733 11.527V11.0848H13.0156C13.1966 11.0846 13.3702 11.0126 13.4983 10.8845C13.6263 10.7565 13.6984 10.5829 13.6986 10.4018V9.23306C13.6984 9.05198 13.6263 8.87837 13.4983 8.75033C13.3702 8.62228 13.1966 8.55026 13.0156 8.55005H12.5733V8.10782C12.5731 7.92673 12.5011 7.75313 12.373 7.62508C12.245 7.49704 12.0714 7.42501 11.8903 7.4248H10.7215C10.5404 7.42501 10.3668 7.49704 10.2388 7.62508C10.1107 7.75313 10.0387 7.92673 10.0385 8.10782V8.55005H9.59633C9.41525 8.55026 9.24164 8.62228 9.1136 8.75033C8.98555 8.87837 8.91353 9.05198 8.91332 9.23306V10.4018C8.91353 10.5829 8.98555 10.7565 9.1136 10.8845C9.24164 11.0126 9.41525 11.0846 9.59633 11.0848H10.0385V11.527C10.0387 11.7081 10.1107 11.8817 10.2388 12.0098C10.3668 12.1378 10.5404 12.2098 10.7215 12.2101ZM9.59633 10.5201C9.56497 10.5201 9.5349 10.5076 9.51272 10.4854C9.49054 10.4632 9.47807 10.4332 9.47803 10.4018V9.23306C9.47807 9.2017 9.49054 9.17163 9.51272 9.14945C9.5349 9.12727 9.56497 9.11479 9.59633 9.11476H10.3209C10.3957 9.11476 10.4676 9.08501 10.5205 9.03206C10.5735 8.97911 10.6032 8.90729 10.6032 8.8324V8.10782C10.6032 8.07645 10.6157 8.04638 10.6379 8.0242C10.6601 8.00202 10.6901 7.98955 10.7215 7.98951H11.8903C11.9217 7.98955 11.9517 8.00202 11.9739 8.0242C11.9961 8.04638 12.0086 8.07645 12.0086 8.10782V8.8324C12.0086 8.90729 12.0384 8.97911 12.0913 9.03206C12.1443 9.08501 12.2161 9.11476 12.291 9.11476H13.0156C13.0469 9.11479 13.077 9.12727 13.0992 9.14945C13.1214 9.17163 13.1338 9.2017 13.1339 9.23306V10.4018C13.1338 10.4332 13.1214 10.4632 13.0992 10.4854C13.077 10.5076 13.0469 10.5201 13.0156 10.5201H12.291C12.2161 10.5201 12.1443 10.5498 12.0913 10.6028C12.0384 10.6557 12.0086 10.7276 12.0086 10.8025V11.527C12.0086 11.5584 11.9961 11.5885 11.9739 11.6107C11.9517 11.6328 11.9217 11.6453 11.8903 11.6453H10.7215C10.6901 11.6453 10.6601 11.6328 10.6379 11.6107C10.6157 11.5885 10.6032 11.5584 10.6032 11.527V10.8025C10.6032 10.7276 10.5735 10.6557 10.5205 10.6028C10.4676 10.5498 10.3957 10.5201 10.3209 10.5201H9.59633Z" fill="#494456"/>
<path d="M2.97099 13.0405C3.07876 13.1316 3.21331 13.185 3.35422 13.1927V13.3287C3.35423 13.4135 3.37133 13.4974 3.40451 13.5753C3.43768 13.6533 3.48624 13.7238 3.54728 13.7826V17.9229C3.54872 19.1787 4.0482 20.3826 4.93615 21.2705C5.82409 22.1585 7.028 22.6579 8.28375 22.6594H9.61787C10.6924 22.6602 11.7349 22.2937 12.5725 21.6208C12.7882 21.7506 12.9843 21.8746 13.1677 21.9975C14.3013 22.7578 14.9358 23.2761 14.9421 23.2813C14.9926 23.3227 15.0559 23.3454 15.1212 23.3454C15.1865 23.3454 15.2498 23.3227 15.3003 23.2813C15.3066 23.2762 15.9411 22.7579 17.0749 21.9975C17.2796 21.8603 17.4993 21.7218 17.7472 21.574C18.5613 21.089 21.2299 19.2838 21.3958 16.4164C21.4493 15.6676 21.2636 14.9211 20.8654 14.2846C20.4455 13.6282 19.6284 12.8455 18.1213 12.8455C16.3133 12.8455 15.4884 13.9392 15.1213 14.783C14.7543 13.9392 13.9293 12.8455 12.1213 12.8455C10.6144 12.8455 9.79744 13.6281 9.3773 14.2846C8.97921 14.9211 8.79351 15.6676 8.84697 16.4164C8.92582 17.7788 9.60036 19.112 10.7978 20.2722C10.8244 20.2983 10.8558 20.3189 10.8904 20.3328C10.925 20.3467 10.9619 20.3536 10.9992 20.3532C11.0364 20.3527 11.0732 20.3449 11.1075 20.3302C11.1417 20.3154 11.1726 20.2941 11.1986 20.2673C11.2245 20.2406 11.2449 20.209 11.2585 20.1743C11.2722 20.1396 11.2788 20.1026 11.2781 20.0654C11.2774 20.0281 11.2693 19.9914 11.2543 19.9573C11.2393 19.9232 11.2177 19.8923 11.1908 19.8666C10.0811 18.7915 9.48255 17.6197 9.41069 16.3838C9.36439 15.7538 9.51926 15.1253 9.85299 14.5889C10.3534 13.8067 11.1165 13.4101 12.1213 13.4101C14.5389 13.4101 14.8297 15.7085 14.8409 15.8057C14.8484 15.8749 14.8813 15.9388 14.9331 15.9853C14.9849 16.0318 15.052 16.0575 15.1216 16.0575C15.1912 16.0575 15.2583 16.0318 15.3101 15.9853C15.3619 15.9388 15.3948 15.8749 15.4023 15.8057C15.4678 15.3783 15.6184 14.9684 15.8453 14.6003C16.3362 13.8105 17.1021 13.4101 18.1217 13.4101C19.1265 13.4101 19.8897 13.8067 20.3901 14.5889C20.7239 15.1253 20.8788 15.7537 20.8324 16.3838C20.6824 18.9738 18.2118 20.6401 17.4583 21.0891C17.2016 21.242 16.9733 21.3855 16.7603 21.5286C15.9428 22.0769 15.387 22.4957 15.1212 22.7027C14.8555 22.4959 14.2996 22.0769 13.4821 21.5286C13.3331 21.4287 13.1763 21.3284 13.0088 21.2251C13.6126 20.6064 14.0354 19.8341 14.2312 18.992C14.5734 18.8601 14.8608 18.6162 15.0467 18.3001C15.2325 17.984 15.3059 17.6142 15.2548 17.2511C15.2038 16.8879 15.0312 16.5528 14.7654 16.3002C14.4995 16.0476 14.156 15.8925 13.7907 15.86C13.4254 15.8276 13.0599 15.9198 12.7537 16.1216C12.4475 16.3234 12.2186 16.623 12.1044 16.9714C11.9902 17.3199 11.9972 17.6968 12.1245 18.0407C12.2518 18.3846 12.4918 18.6753 12.8053 18.8655C12.6012 19.5528 12.1807 20.1558 11.6064 20.585C11.032 21.0142 10.3345 21.2465 9.61751 21.2475H8.28339C7.40194 21.2464 6.55689 20.8958 5.93361 20.2726C5.31033 19.6493 4.95972 18.8042 4.95869 17.9228V13.7827C5.01977 13.7239 5.06837 13.6534 5.10156 13.5754C5.13476 13.4974 5.15188 13.4135 5.15189 13.3287V13.1926C5.29278 13.1849 5.42731 13.1314 5.53511 13.0404C7.07711 12.8155 8.18605 11.5662 8.18605 10.0326V5.50403C8.18547 4.99364 7.98251 4.5043 7.62168 4.14333C7.26084 3.78236 6.77158 3.57922 6.26118 3.57846H6.20471V3.37806C6.20471 3.30317 6.17496 3.23135 6.12201 3.1784C6.06906 3.12545 5.99724 3.0957 5.92236 3.0957H5.52001C5.29688 3.09585 5.08292 3.18453 4.9251 3.34227C4.76729 3.5 4.6785 3.71391 4.67824 3.93704V4.63149C4.6785 4.85455 4.76723 5.06841 4.92495 5.22615C5.08267 5.38388 5.29652 5.47262 5.51958 5.4729H5.92194C5.99682 5.4729 6.06864 5.44316 6.12159 5.3902C6.17454 5.33725 6.20429 5.26543 6.20429 5.19055V4.99022H6.26076C6.39699 4.99039 6.52759 5.04459 6.62392 5.14092C6.72024 5.23726 6.77442 5.36787 6.77457 5.5041V10.0328C6.77695 10.2668 6.72747 10.4985 6.62969 10.7112C6.53191 10.9238 6.38824 11.1122 6.20902 11.2628C6.18023 11.2866 6.15645 11.3158 6.13906 11.3489C6.12166 11.382 6.111 11.4181 6.10769 11.4553C6.10438 11.4925 6.10848 11.53 6.11976 11.5656C6.13104 11.6013 6.14928 11.6343 6.17341 11.6628C6.19754 11.6913 6.22709 11.7147 6.26035 11.7318C6.2936 11.7488 6.3299 11.759 6.36714 11.7619C6.40439 11.7648 6.44183 11.7602 6.47731 11.7485C6.51278 11.7368 6.54559 11.7182 6.57382 11.6938C6.81463 11.4893 7.00789 11.2348 7.14011 10.9479C7.27232 10.661 7.34029 10.3487 7.33928 10.0328V5.50403C7.33889 5.21819 7.22519 4.94415 7.0231 4.74199C6.82102 4.53982 6.54703 4.42602 6.26118 4.42552H6.20471V4.14316H6.26118C6.622 4.14355 6.96793 4.28707 7.22306 4.54221C7.47819 4.79735 7.62168 5.14329 7.62205 5.5041V10.0328C7.62205 11.1739 6.86351 12.1222 5.76918 12.4168V11.909C5.76918 11.8341 5.73944 11.7623 5.68648 11.7093C5.63353 11.6564 5.56172 11.6266 5.48683 11.6266H3.05203C2.68087 11.5562 2.34593 11.3584 2.10496 11.0674C1.864 10.7765 1.7321 10.4106 1.73203 10.0328V5.50403C1.73218 5.3678 1.78636 5.23719 1.88268 5.14085C1.97901 5.04452 2.10961 4.99032 2.24584 4.99015H2.30231V5.19055C2.30231 5.26543 2.33206 5.33725 2.38501 5.3902C2.43796 5.44316 2.50978 5.4729 2.58467 5.4729H2.98702C3.21009 5.47264 3.42396 5.38391 3.5817 5.22617C3.73944 5.06843 3.82817 4.85457 3.82843 4.63149V3.93704C3.82815 3.71398 3.73941 3.50013 3.58167 3.34241C3.42394 3.18469 3.21008 3.09596 2.98702 3.0957H2.58467C2.50978 3.0957 2.43796 3.12545 2.38501 3.1784C2.33206 3.23135 2.30231 3.30317 2.30231 3.37806V3.57846H2.24584C1.73529 3.57898 1.24579 3.78201 0.884756 4.14301C0.52372 4.50401 0.320632 4.99348 0.320053 5.50403V10.0327C0.320053 11.566 1.42906 12.8156 2.97099 13.0405ZM5.64001 4.9082H5.52001C5.44665 4.9081 5.37633 4.87892 5.32447 4.82704C5.27261 4.77517 5.24345 4.70484 5.24337 4.63149V3.93704C5.24345 3.8637 5.27262 3.79338 5.32448 3.74152C5.37634 3.68965 5.44666 3.66048 5.52001 3.66041H5.64001V4.9082ZM12.5891 17.4765C12.5889 17.2988 12.6334 17.1239 12.7186 16.9678C12.8037 16.8118 12.9267 16.6797 13.0763 16.5837C13.2258 16.4877 13.3971 16.4308 13.5744 16.4183C13.7517 16.4058 13.9293 16.4381 14.0908 16.5122C14.2524 16.5863 14.3927 16.6998 14.4989 16.8423C14.6051 16.9848 14.6737 17.1518 14.6985 17.3278C14.7233 17.5038 14.7034 17.6832 14.6407 17.8495C14.578 18.0158 14.4745 18.1636 14.3397 18.2794C14.3485 18.1616 14.3545 18.043 14.3545 17.9229C14.3545 17.7357 14.2801 17.5561 14.1477 17.4238C14.0154 17.2914 13.8358 17.217 13.6486 17.217C13.4614 17.217 13.2818 17.2914 13.1495 17.4238C13.0171 17.5561 12.9427 17.7357 12.9427 17.9229C12.9427 18.0341 12.937 18.144 12.9263 18.2525C12.8196 18.1534 12.7345 18.0333 12.6765 17.8997C12.6184 17.7662 12.5885 17.6221 12.5888 17.4765H12.5891ZM8.28417 21.8124H9.61829C10.4998 21.8112 11.3548 21.511 12.0436 20.961C12.7324 20.4109 13.2143 19.6435 13.4106 18.7842C13.4122 18.7775 13.414 18.771 13.4152 18.7644C13.4766 18.4882 13.5077 18.2061 13.5078 17.9231C13.5078 17.8857 13.5227 17.8498 13.5492 17.8233C13.5757 17.7968 13.6116 17.7819 13.649 17.7819C13.6865 17.7819 13.7224 17.7968 13.7488 17.8233C13.7753 17.8498 13.7902 17.8857 13.7902 17.9231C13.7889 19.0291 13.349 20.0895 12.5669 20.8716C11.7848 21.6537 10.7245 22.0936 9.61843 22.0949H8.28431C7.17829 22.0936 6.11793 21.6537 5.33585 20.8716C4.55377 20.0895 4.11384 19.0291 4.11255 17.9231V13.9611H4.3949V17.9229C4.39608 18.954 4.80617 19.9426 5.53523 20.6717C6.26429 21.4009 7.25278 21.8111 8.28389 21.8124H8.28417ZM5.20412 12.5416C5.20386 12.5625 5.19603 12.5825 5.1821 12.5981C5.18104 12.5994 5.18027 12.6009 5.17928 12.6022C5.1712 12.6107 5.1615 12.6174 5.15077 12.622C5.14004 12.6266 5.12848 12.629 5.11681 12.629H4.86975C4.79486 12.629 4.72305 12.6587 4.67009 12.7117C4.61714 12.7646 4.58739 12.8365 4.58739 12.9114V13.3287C4.58738 13.3467 4.58025 13.3639 4.56757 13.3765C4.55489 13.3892 4.5377 13.3963 4.51977 13.3964H3.98648C3.96856 13.3963 3.95139 13.3892 3.93873 13.3765C3.92606 13.3638 3.91894 13.3467 3.91892 13.3287V12.9114C3.91892 12.8365 3.88918 12.7646 3.83622 12.7117C3.78327 12.6587 3.71146 12.629 3.63657 12.629H3.38951C3.36635 12.629 3.34415 12.6197 3.32779 12.6034C3.31142 12.587 3.30221 12.5648 3.30219 12.5416V12.1913H5.20412V12.5416ZM2.86666 3.66041H2.98667C3.06002 3.66048 3.13034 3.68965 3.18222 3.74151C3.23409 3.79337 3.26328 3.86369 3.26337 3.93704V4.63149C3.26328 4.70485 3.23409 4.77518 3.18222 4.82705C3.13035 4.87892 3.06002 4.9081 2.98667 4.9082H2.86666V3.66041ZM0.884759 5.50403C0.885151 5.14323 1.02865 4.79731 1.28378 4.54219C1.53891 4.28706 1.88482 4.14355 2.24563 4.14316H2.3021V4.42552H2.24563C1.9597 4.42591 1.68559 4.53967 1.48341 4.74186C1.28123 4.94405 1.16749 5.21817 1.16711 5.5041V10.0328C1.16548 10.5054 1.3179 10.9657 1.60128 11.344C1.88466 11.7223 2.28357 11.9979 2.73763 12.1292V12.4167C1.64351 12.122 0.884759 11.1736 0.884759 10.0327V5.50403Z" fill="#494456"/>
<path d="M23.3457 1.34643C23.3166 1.35186 20.4099 1.87937 19.2 0.730614C19.1946 0.725532 19.1886 0.722003 19.183 0.717485C19.1756 0.711414 19.1684 0.705273 19.1606 0.70005C19.1526 0.694931 19.1444 0.69022 19.1359 0.685932C19.1279 0.681767 19.1201 0.677391 19.1118 0.674003C19.1029 0.670599 19.0939 0.667677 19.0847 0.66525C19.0764 0.662779 19.0682 0.660167 19.0598 0.658544C19.0504 0.6569 19.041 0.655746 19.0315 0.655085C19.0229 0.654309 19.0144 0.65332 19.0058 0.65332C18.9963 0.653453 18.9869 0.65409 18.9775 0.655226C18.9688 0.656073 18.9602 0.656779 18.9516 0.658403C18.943 0.660026 18.9336 0.662991 18.9246 0.665462C18.9161 0.667743 18.9077 0.670476 18.8994 0.67365C18.8827 0.681328 18.8663 0.689905 18.8505 0.699344C18.8424 0.704911 18.8346 0.71092 18.8272 0.717344C18.8218 0.72172 18.8159 0.725179 18.8108 0.73005C17.603 1.87669 14.6941 1.35123 14.6649 1.34586C14.6241 1.33826 14.5822 1.33974 14.542 1.35017C14.5019 1.36061 14.4646 1.37976 14.4327 1.40625C14.4008 1.43274 14.3751 1.46594 14.3575 1.50347C14.3399 1.541 14.3308 1.58195 14.3308 1.62341V6.09334C14.3269 6.65789 14.43 7.21806 14.6348 7.74419C15.7826 10.6449 18.8246 11.2416 18.9535 11.2656H18.9542C18.9709 11.2687 18.9879 11.2703 19.0048 11.2704H19.0055C19.0224 11.2703 19.0394 11.2687 19.0561 11.2656H19.0568C19.1857 11.2416 22.2277 10.6449 23.3755 7.74412C23.5803 7.21801 23.6834 6.65787 23.6795 6.09334V1.62398C23.6795 1.5825 23.6704 1.54154 23.6528 1.50399C23.6352 1.46645 23.6095 1.43325 23.5776 1.40675C23.5457 1.38025 23.5083 1.36111 23.4682 1.35069C23.428 1.34026 23.3861 1.33881 23.3453 1.34643H23.3457ZM23.1153 6.09334C23.1191 6.58675 23.0293 7.07641 22.8508 7.53638C21.8968 9.94725 19.3954 10.6096 19.0053 10.6993C18.614 10.6104 16.117 9.95417 15.1603 7.53638C14.9818 7.07639 14.8921 6.58674 14.8959 6.09334V1.95285C15.7104 2.06007 17.8005 2.22271 19.0056 1.30414C20.2106 2.22278 22.3007 2.06014 23.1153 1.95285V6.09334Z" fill="#494456"/>
</g>
<defs>
<clipPath id="clip0_1506_18261">
<rect width="24" height="24" fill="white"/>
</clipPath>
</defs>
</svg>
