<svg width="24" height="24" viewBox="0 0 24 24" fill="none" xmlns="http://www.w3.org/2000/svg">
<g clip-path="url(#clip0_1506_18209)">
<path d="M23.4037 19.3463C23.4742 19.415 23.5302 19.4973 23.5682 19.5881C23.6062 19.679 23.6255 19.7765 23.625 19.875C23.6244 20.0737 23.5452 20.2642 23.4047 20.4047C23.2641 20.5452 23.0737 20.6244 22.875 20.625H1.125C1.02652 20.6255 0.928951 20.6062 0.838106 20.5682C0.747261 20.5302 0.665005 20.4743 0.596249 20.4038C0.525748 20.335 0.469822 20.2527 0.431809 20.1619C0.393796 20.0711 0.374475 19.9735 0.374999 19.875C0.375592 19.6763 0.454801 19.4859 0.595325 19.3453C0.735848 19.2048 0.926269 19.1256 1.125 19.125H22.875C22.9735 19.1245 23.071 19.1438 23.1619 19.1818C23.2527 19.2198 23.335 19.2758 23.4037 19.3463Z" fill="#966857"/>
<path d="M1.125 19.875H22.875C23.006 19.8752 23.1347 19.91 23.248 19.9759C23.3613 20.0417 23.4553 20.1363 23.5204 20.25C23.586 20.1363 23.6207 20.0073 23.6209 19.876C23.621 19.7447 23.5868 19.6157 23.5214 19.5018C23.4561 19.3879 23.362 19.2932 23.2486 19.227C23.1351 19.1609 23.0063 19.1257 22.875 19.125H1.125C0.92627 19.1256 0.735849 19.2048 0.595326 19.3453C0.454802 19.4858 0.375594 19.6763 0.375 19.875C0.375589 20.0071 0.411728 20.1367 0.479625 20.25C0.545099 20.1366 0.639124 20.0423 0.752349 19.9765C0.865574 19.9107 0.994051 19.8757 1.125 19.875Z" fill="#966857"/>
<path d="M21 7.965L12 3L3 7.965L1.125 9V7.125L4.125 5.47125L7.125 3.81375L12 1.125L22.875 7.125V9L21 7.965Z" fill="#FF936B"/>
<path d="M12 1.875L3 6.84L1.125 7.875V9L3 7.965L12 3L21 7.965L22.875 9V7.875L21 6.84L12 1.875Z" fill="#FF7045"/>
<path d="M21 7.965V19.125H9.75V9.375H4.5V19.125H3V7.965L12 3L21 7.965ZM19.5 13.125V10.125C19.4994 9.92627 19.4202 9.73585 19.2797 9.59533C19.1392 9.4548 18.9487 9.37559 18.75 9.375H12C11.8013 9.37559 11.6108 9.4548 11.4703 9.59533C11.3298 9.73585 11.2506 9.92627 11.25 10.125V13.125C11.2506 13.3237 11.3298 13.5142 11.4703 13.6547C11.6108 13.7952 11.8013 13.8744 12 13.875H18.75C18.9487 13.8744 19.1392 13.7952 19.2797 13.6547C19.4202 13.5142 19.4994 13.3237 19.5 13.125Z" fill="#F7F7F7"/>
<path d="M12 3L3 7.965V9.465L12 4.5L21 9.465V7.965L12 3Z" fill="#CFCFCF"/>
<path d="M19.5 11.625V13.125C19.4994 13.3237 19.4202 13.5142 19.2797 13.6547C19.1392 13.7952 18.9487 13.8744 18.75 13.875H16.125V11.625H19.5Z" fill="#A3D4FF"/>
<path d="M19.5 10.125V11.625H16.125V9.375H18.75C18.9487 9.37559 19.1392 9.4548 19.2797 9.59533C19.4202 9.73585 19.4994 9.92627 19.5 10.125Z" fill="#65B1FC"/>
<path d="M16.125 11.625V13.875H14.625V11.625V9.375H16.125V11.625Z" fill="#B2876D"/>
<path d="M16.125 11.625V13.875H15.375V11.625V9.375H16.125V11.625Z" fill="#966857"/>
<path d="M14.625 11.625V13.875H12C11.8013 13.8744 11.6108 13.7952 11.4703 13.6547C11.3298 13.5142 11.2506 13.3237 11.25 13.125V11.625H14.625Z" fill="#65B1FC"/>
<path d="M14.625 9.375V11.625H11.25V10.125C11.2506 9.92627 11.3298 9.73585 11.4703 9.59533C11.6108 9.4548 11.8013 9.37559 12 9.375H14.625Z" fill="#A3D4FF"/>
<path d="M4.5 9.375H9.75V19.125H4.5V9.375Z" fill="#F2D1A5"/>
<path d="M4.5 9.375V10.5H7.125C7.52282 10.5 7.90436 10.658 8.18566 10.9393C8.46696 11.2206 8.625 11.6022 8.625 12V19.125H9.75V9.375H4.5Z" fill="#F2BB88"/>
<path d="M7.5 0.375V1.875H7.125H4.125H3.75V0.375H7.5Z" fill="#FF936B"/>
<path d="M7.5 1.125V1.875H7.125H4.125H3.75V1.125H7.5Z" fill="#FF7045"/>
<path d="M7.125 1.875V3.81375L4.125 5.47125V1.875H7.125Z" fill="#B2876D"/>
<path d="M4.125 1.875H7.125V3H4.125V1.875Z" fill="#966857"/>
<path d="M9 23.625H22.125C22.5228 23.625 22.9044 23.467 23.1857 23.1857C23.467 22.9044 23.625 22.5228 23.625 22.125V17.625C23.625 17.2272 23.467 16.8456 23.1857 16.5643C22.9044 16.283 22.5228 16.125 22.125 16.125H9L6.375 19.875L9 23.625Z" fill="#FF936B"/>
<path d="M22.125 16.125H21C21.3978 16.125 21.7794 16.283 22.0607 16.5643C22.342 16.8456 22.5 17.2272 22.5 17.625V22.125C22.5 22.5228 22.342 22.9044 22.0607 23.1857C21.7794 23.467 21.3978 23.625 21 23.625H22.125C22.5228 23.625 22.9044 23.467 23.1857 23.1857C23.467 22.9044 23.625 22.5228 23.625 22.125V17.625C23.625 17.2272 23.467 16.8456 23.1857 16.5643C22.9044 16.283 22.5228 16.125 22.125 16.125Z" fill="#FF7045"/>
<path d="M13.125 19.125C13.125 18.8266 13.0065 18.5405 12.7955 18.3295C12.5845 18.1185 12.2984 18 12 18H10.5C10.4005 18 10.3052 18.0395 10.2348 18.1098C10.1645 18.1802 10.125 18.2755 10.125 18.375V21.75H10.875V20.25H11.7461L12.4016 21.8895L13.0984 21.6105L12.504 20.1251C12.69 20.0323 12.8466 19.8897 12.9563 19.7131C13.0659 19.5365 13.1243 19.3329 13.125 19.125ZM10.875 19.5V18.75H12C12.0995 18.75 12.1948 18.7895 12.2652 18.8598C12.3355 18.9302 12.375 19.0255 12.375 19.125C12.375 19.2245 12.3355 19.3198 12.2652 19.3902C12.1948 19.4605 12.0995 19.5 12 19.5H10.875Z" fill="#F2F6FC"/>
<path d="M13.5 18.75V21C13.5 21.1989 13.579 21.3897 13.7197 21.5303C13.8603 21.671 14.0511 21.75 14.25 21.75H16.125V21H14.25V20.25H15.75V19.5H14.25V18.75H16.125V18H14.25C14.0511 18 13.8603 18.079 13.7197 18.2197C13.579 18.3603 13.5 18.5511 13.5 18.75Z" fill="#F2F6FC"/>
<path d="M18.75 20.0674L17.568 18.1763C17.5248 18.1072 17.4604 18.0541 17.3844 18.0249C17.3083 17.9957 17.2249 17.9921 17.1466 18.0145C17.0683 18.037 16.9995 18.0843 16.9505 18.1493C16.9015 18.2144 16.875 18.2936 16.875 18.375V21.75H17.625V19.6826L18.807 21.5738C18.8502 21.6428 18.9146 21.6959 18.9906 21.7251C19.0667 21.7543 19.1501 21.7579 19.2284 21.7355C19.3067 21.713 19.3755 21.6657 19.4245 21.6007C19.4735 21.5356 19.5 21.4564 19.5 21.375V18H18.75V20.0674Z" fill="#F2F6FC"/>
<path d="M22.5 18H20.25V18.75H21V21.75H21.75V18.75H22.5V18Z" fill="#F2F6FC"/>
<path d="M4.875 9.75H9.375V15H10.125V9.375C10.125 9.27554 10.0855 9.18016 10.0152 9.10983C9.94484 9.03951 9.84946 9 9.75 9H4.5C4.40054 9 4.30516 9.03951 4.23484 9.10983C4.16451 9.18016 4.125 9.27554 4.125 9.375V18.75H3.375V8.187L12 3.42825L20.625 8.187V15H21.375V8.60063L22.6939 9.32812C22.751 9.35961 22.8153 9.37567 22.8804 9.37473C22.9456 9.37378 23.0094 9.35587 23.0656 9.32274C23.1217 9.28962 23.1682 9.24243 23.2006 9.18583C23.2329 9.12924 23.25 9.06519 23.25 9V7.125C23.25 7.05797 23.232 6.99218 23.1979 6.93447C23.1638 6.87676 23.1148 6.82925 23.0561 6.79688L12.1811 0.796875C12.1257 0.766075 12.0634 0.749911 12 0.749911C11.9366 0.749911 11.8743 0.766075 11.8189 0.796875L7.5 3.17963V2.25C7.59946 2.25 7.69484 2.21049 7.76517 2.14016C7.83549 2.06984 7.875 1.97446 7.875 1.875V0.375C7.875 0.275544 7.83549 0.180161 7.76517 0.109835C7.69484 0.0395088 7.59946 0 7.5 0L3.75 0C3.65054 0 3.55516 0.0395088 3.48484 0.109835C3.41451 0.180161 3.375 0.275544 3.375 0.375V1.875C3.375 1.97446 3.41451 2.06984 3.48484 2.14016C3.55516 2.21049 3.65054 2.25 3.75 2.25V5.25L0.943875 6.79688C0.885184 6.82925 0.836242 6.87676 0.802145 6.93447C0.768048 6.99218 0.750042 7.05797 0.75 7.125V9C0.75004 9.06519 0.767072 9.12924 0.799416 9.18583C0.831759 9.24243 0.878297 9.28962 0.934439 9.32274C0.990581 9.35587 1.05439 9.37378 1.11957 9.37473C1.18475 9.37567 1.24905 9.35961 1.30613 9.32812L2.625 8.60063V18.75H1.125C0.826631 18.75 0.540483 18.8685 0.329505 19.0795C0.118526 19.2905 0 19.5766 0 19.875C0 20.1734 0.118526 20.4595 0.329505 20.6705C0.540483 20.8815 0.826631 21 1.125 21H5.625V20.25H1.125C1.02554 20.25 0.930161 20.2105 0.859835 20.1402C0.789509 20.0698 0.75 19.9745 0.75 19.875C0.75 19.7755 0.789509 19.6802 0.859835 19.6098C0.930161 19.5395 1.02554 19.5 1.125 19.5H5.625V18.75H4.875V9.75ZM4.125 0.75H7.125V1.5H4.125V0.75ZM4.5 2.25H6.75V3.59325L4.5 4.83488V2.25ZM1.5 7.34625L12 1.55325L22.5 7.34625V8.36475L12.1811 2.67188C12.1257 2.64128 12.0633 2.62523 12 2.62523C11.9367 2.62523 11.8743 2.64128 11.8189 2.67188L1.5 8.36475V7.34625Z" fill="black"/>
<path d="M12 9C11.7016 9 11.4155 9.11853 11.2045 9.3295C10.9935 9.54048 10.875 9.82663 10.875 10.125V13.125C10.875 13.4234 10.9935 13.7095 11.2045 13.9205C11.4155 14.1315 11.7016 14.25 12 14.25H18.75C19.0484 14.25 19.3345 14.1315 19.5455 13.9205C19.7565 13.7095 19.875 13.4234 19.875 13.125V10.125C19.875 9.82663 19.7565 9.54048 19.5455 9.3295C19.3345 9.11853 19.0484 9 18.75 9H12ZM15.75 13.5H15V9.75H15.75V13.5ZM12 9.75H14.25V11.25H11.625V10.125C11.625 10.0255 11.6645 9.93016 11.7348 9.85983C11.8052 9.78951 11.9005 9.75 12 9.75ZM11.625 13.125V12H14.25V13.5H12C11.9005 13.5 11.8052 13.4605 11.7348 13.3902C11.6645 13.3198 11.625 13.2245 11.625 13.125ZM18.75 13.5H16.5V12H19.125V13.125C19.125 13.2245 19.0855 13.3198 19.0152 13.3902C18.9448 13.4605 18.8495 13.5 18.75 13.5ZM19.125 10.125V11.25H16.5V9.75H18.75C18.8495 9.75 18.9448 9.78951 19.0152 9.85983C19.0855 9.93016 19.125 10.0255 19.125 10.125Z" fill="black"/>
<path d="M22.125 15.75H9C8.9397 15.75 8.88031 15.7646 8.82684 15.7925C8.77338 15.8204 8.72742 15.8607 8.69287 15.9101L6.06787 19.6601C6.02383 19.7231 6.00021 19.7981 6.00021 19.875C6.00021 19.9519 6.02383 20.0269 6.06787 20.0899L8.69287 23.8399C8.72742 23.8893 8.77338 23.9296 8.82684 23.9575C8.88031 23.9854 8.9397 24 9 24H22.125C22.6221 23.9994 23.0987 23.8017 23.4502 23.4502C23.8017 23.0987 23.9994 22.6221 24 22.125V17.625C23.9994 17.1279 23.8017 16.6513 23.4502 16.2998C23.0987 15.9483 22.6221 15.7506 22.125 15.75ZM23.25 22.125C23.25 22.4234 23.1315 22.7095 22.9205 22.9205C22.7095 23.1315 22.4234 23.25 22.125 23.25H9.19537L6.83287 19.875L9.19537 16.5H22.125C22.4234 16.5 22.7095 16.6185 22.9205 16.8295C23.1315 17.0405 23.25 17.3266 23.25 17.625V22.125Z" fill="black"/>
<path d="M13.125 19.125C13.125 18.8266 13.0065 18.5405 12.7955 18.3295C12.5845 18.1185 12.2984 18 12 18H10.5C10.4005 18 10.3052 18.0395 10.2348 18.1098C10.1645 18.1802 10.125 18.2755 10.125 18.375V21.75H10.875V20.25H11.7461L12.4016 21.8895L13.0984 21.6105L12.504 20.1251C12.69 20.0323 12.8466 19.8897 12.9563 19.7131C13.0659 19.5365 13.1243 19.3329 13.125 19.125ZM10.875 19.5V18.75H12C12.0995 18.75 12.1948 18.7895 12.2652 18.8598C12.3355 18.9302 12.375 19.0255 12.375 19.125C12.375 19.2245 12.3355 19.3198 12.2652 19.3902C12.1948 19.4605 12.0995 19.5 12 19.5H10.875Z" fill="black"/>
<path d="M13.5 18.75V21C13.5 21.1989 13.579 21.3897 13.7197 21.5303C13.8603 21.671 14.0511 21.75 14.25 21.75H16.125V21H14.25V20.25H15.75V19.5H14.25V18.75H16.125V18H14.25C14.0511 18 13.8603 18.079 13.7197 18.2197C13.579 18.3603 13.5 18.5511 13.5 18.75Z" fill="black"/>
<path d="M18.75 20.0674L17.568 18.1763C17.5248 18.1072 17.4604 18.0541 17.3844 18.0249C17.3083 17.9957 17.2249 17.9921 17.1466 18.0145C17.0683 18.037 16.9995 18.0843 16.9505 18.1493C16.9015 18.2144 16.875 18.2936 16.875 18.375V21.75H17.625V19.6826L18.807 21.5738C18.8502 21.6428 18.9146 21.6959 18.9906 21.7251C19.0667 21.7543 19.1501 21.7579 19.2284 21.7355C19.3067 21.713 19.3755 21.6657 19.4245 21.6007C19.4735 21.5356 19.5 21.4564 19.5 21.375V18H18.75V20.0674Z" fill="black"/>
<path d="M20.25 18.75H21V21.75H21.75V18.75H22.5V18H20.25V18.75Z" fill="black"/>
</g>
<defs>
<clipPath id="clip0_1506_18209">
<rect width="24" height="24" fill="white"/>
</clipPath>
</defs>
</svg>
