<svg width="21" height="16" viewBox="0 0 21 16" fill="none" xmlns="http://www.w3.org/2000/svg">
<path fill-rule="evenodd" clip-rule="evenodd" d="M5.93213 14.2647V15.1111V15.9574H5.55748V15.7519C5.43865 15.9043 5.25833 16 5.01324 16C4.53007 16 4.15129 15.6283 4.15129 15.1111C4.15129 14.5942 4.53007 14.2221 5.01324 14.2221C5.25833 14.2221 5.43865 14.3178 5.55748 14.4702V14.2647H5.93213ZM5.05989 14.5694C4.73558 14.5694 4.53711 14.8138 4.53711 15.1114C4.53711 15.4089 4.73558 15.6533 5.05989 15.6533C5.36976 15.6533 5.57896 15.4194 5.57896 15.1114C5.57896 14.8033 5.36976 14.5694 5.05989 14.5694ZM18.5928 15.1114C18.5928 14.8138 18.7913 14.5694 19.1156 14.5694C19.4259 14.5694 19.6347 14.8033 19.6347 15.1114C19.6347 15.4194 19.4259 15.6533 19.1156 15.6533C18.7913 15.6533 18.5928 15.4089 18.5928 15.1114ZM19.9883 13.5849V15.1111V15.9574H19.6132V15.7519C19.4944 15.9043 19.3141 16 19.069 16C18.5858 16 18.207 15.6283 18.207 15.1111C18.207 14.5942 18.5858 14.2221 19.069 14.2221C19.3141 14.2221 19.4944 14.3178 19.6132 14.4702V13.5849H19.9883ZM10.5827 14.5513C10.8241 14.5513 10.9792 14.7001 11.0189 14.9619H10.1247C10.1647 14.7175 10.3158 14.5513 10.5827 14.5513ZM9.73189 15.1111C9.73189 14.5833 10.0851 14.2221 10.5901 14.2221C11.0729 14.2221 11.4046 14.5833 11.4083 15.1111C11.4083 15.1605 11.4046 15.2067 11.4009 15.2525H10.1214C10.1755 15.5573 10.3954 15.6672 10.6368 15.6672C10.8096 15.6672 10.9937 15.6032 11.1381 15.4901L11.3217 15.7629C11.1125 15.9364 10.8748 16 10.6153 16C10.0995 16 9.73189 15.6494 9.73189 15.1111ZM15.1141 15.1114C15.1141 14.8138 15.3125 14.5694 15.6369 14.5694C15.9467 14.5694 16.1559 14.8033 16.1559 15.1114C16.1559 15.4194 15.9467 15.6533 15.6369 15.6533C15.3125 15.6533 15.1141 15.4089 15.1141 15.1114ZM16.5091 14.2647V15.1111V15.9574H16.1345V15.7519C16.0152 15.9043 15.8353 16 15.5902 16C15.107 16 14.7283 15.6283 14.7283 15.1111C14.7283 14.5942 15.107 14.2221 15.5902 14.2221C15.8353 14.2221 16.0152 14.3178 16.1345 14.4702V14.2647H16.5091ZM12.9981 15.1111C12.9981 15.6246 13.3621 16 13.9174 16C14.177 16 14.3499 15.9432 14.5372 15.7981L14.3573 15.5006C14.2166 15.5999 14.0689 15.653 13.9063 15.653C13.6072 15.6494 13.3872 15.437 13.3872 15.1111C13.3872 14.7851 13.6072 14.5727 13.9063 14.5691C14.0689 14.5691 14.2166 14.6222 14.3573 14.7215L14.5372 14.424C14.3499 14.2789 14.177 14.2221 13.9174 14.2221C13.3621 14.2221 12.9981 14.5975 12.9981 15.1111ZM17.3743 14.4698C17.4717 14.321 17.6124 14.2217 17.8286 14.2217C17.9045 14.2217 18.0126 14.2359 18.0955 14.2679L17.98 14.6149C17.9008 14.5829 17.8216 14.5723 17.7456 14.5723C17.5005 14.5723 17.378 14.728 17.378 15.0081V15.957H17.0029V14.2643H17.3743V14.4698ZM7.78517 14.3992C7.60486 14.2825 7.35647 14.2221 7.08249 14.2221C6.64595 14.2221 6.36496 14.4276 6.36496 14.7641C6.36496 15.0401 6.57415 15.2104 6.95953 15.2635L7.13654 15.2882C7.34203 15.3166 7.43899 15.3697 7.43899 15.4653C7.43899 15.5963 7.302 15.6708 7.04618 15.6708C6.78665 15.6708 6.59932 15.5894 6.47306 15.4937L6.29646 15.7803C6.50194 15.9291 6.76148 16 7.04247 16C7.54008 16 7.8285 15.7698 7.8285 15.4475C7.8285 15.15 7.60156 14.9943 7.22649 14.9412L7.04989 14.9161C6.88774 14.895 6.75776 14.8634 6.75776 14.7499C6.75776 14.6258 6.88031 14.5517 7.08579 14.5517C7.30572 14.5517 7.51862 14.6331 7.62302 14.6968L7.78517 14.3992ZM12.1655 14.4698C12.2625 14.321 12.4032 14.2217 12.6194 14.2217C12.6953 14.2217 12.8034 14.2359 12.8863 14.2679L12.7708 14.6149C12.6916 14.5829 12.6124 14.5723 12.5365 14.5723C12.2914 14.5723 12.1688 14.728 12.1688 15.0081V15.957H11.7942V14.2643H12.1655V14.4698ZM9.42198 14.2647L8.80925 14.2647V13.7511H8.43047V14.2647H8.08098V14.6011H8.43047V15.3733C8.43047 15.7661 8.58561 16 9.02876 16C9.19133 16 9.37865 15.9505 9.49749 15.8691L9.38938 15.5537C9.27756 15.6173 9.15502 15.6494 9.05764 15.6494C8.87031 15.6494 8.80925 15.5359 8.80925 15.366V14.6011L9.42198 14.6011V14.2647ZM3.81996 14.8946V15.957H3.44118V15.015C3.44118 14.728 3.31864 14.5687 3.06282 14.5687C2.81401 14.5687 2.64112 14.7247 2.64112 15.0186V15.957H2.26234V15.015C2.26234 14.728 2.1365 14.5687 1.88769 14.5687C1.63146 14.5687 1.46559 14.7247 1.46559 15.0186V15.957H1.08722L1.08722 14.2643H1.46229V14.473C1.60299 14.2748 1.78289 14.2217 1.96691 14.2217C2.23016 14.2217 2.41749 14.3352 2.53632 14.5229C2.69518 14.2853 2.92211 14.2181 3.14204 14.2217C3.56043 14.2253 3.81996 14.4945 3.81996 14.8946Z" fill="#F9F9F9"/>
<path d="M13.3393 11.3886H7.66095V1.36328H13.3393V11.3886Z" fill="#FF5F00"/>
<path d="M8.02122 6.3761C8.02122 4.34242 8.99045 2.53088 10.4998 1.36345C9.39605 0.509772 8.00306 0.000239372 6.48918 0.000239372C2.90522 0.000239372 0 2.85476 0 6.3761C0 9.89743 2.90522 12.752 6.48918 12.752C8.00306 12.752 9.39605 12.2424 10.4998 11.3887C8.99045 10.2213 8.02122 8.40977 8.02122 6.3761Z" fill="#EB001B"/>
<path d="M21 6.3761C21 9.89743 18.0948 12.752 14.5108 12.752C12.9969 12.752 11.6039 12.2424 10.4998 11.3887C12.0095 10.2213 12.9788 8.40977 12.9788 6.3761C12.9788 4.34242 12.0095 2.53088 10.4998 1.36345C11.6039 0.509772 12.9969 0.000239372 14.5108 0.000239372C18.0948 0.000239372 21 2.85476 21 6.3761Z" fill="#F79E1B"/>
</svg>
