<svg width="24" height="24" viewBox="0 0 24 24" fill="none" xmlns="http://www.w3.org/2000/svg">
<g clip-path="url(#clip0_1443_8185)">
<path d="M2.91775 22.3054C2.91775 22.87 2.46605 23.3218 1.90138 23.3218C1.33677 23.3218 0.88501 22.8701 0.88501 22.3054V13.1394C0.88501 12.5748 1.33671 12.123 1.90138 12.123C2.466 12.123 2.91775 12.5748 2.91775 13.1394V22.3054Z" fill="#80C3FF"/>
<path d="M1.90137 12.123C2.46598 12.123 2.91774 12.5748 2.91774 13.1394V22.3054C2.91774 22.87 2.46604 23.3218 1.90137 23.3218" fill="#2A8BF4"/>
<path d="M1.90144 23.6051C1.18624 23.6051 0.602783 23.0216 0.602783 22.3064V13.1405C0.602783 12.4253 1.18624 11.8418 1.90144 11.8418C2.61664 11.8418 3.20009 12.4253 3.20009 13.1405V22.3064C3.20009 23.0216 2.61664 23.6051 1.90144 23.6051ZM1.90144 12.4064C1.48735 12.4064 1.1674 12.7452 1.1674 13.1405V22.3064C1.1674 22.7205 1.50619 23.0405 1.90144 23.0405C2.29669 23.0405 2.63548 22.7017 2.63548 22.3064V13.1405C2.63548 12.7452 2.31552 12.4064 1.90144 12.4064Z" fill="#33363A"/>
<path d="M1.90147 22.0613C1.75089 22.0613 1.61914 21.9295 1.61914 21.779V21.5343C1.61914 21.3837 1.75089 21.252 1.90147 21.252C2.05206 21.252 2.18381 21.3837 2.18381 21.5343V21.779C2.18381 21.9295 2.07084 22.0613 1.90147 22.0613Z" fill="#33363A"/>
<path d="M1.90147 8.34089C1.75089 8.34089 1.61914 8.20914 1.61914 8.05856V4.06847C1.61914 3.91788 1.75089 3.78613 1.90147 3.78613C2.05206 3.78613 2.18381 3.91788 2.18381 4.06847V8.05856C2.18381 8.22798 2.07084 8.34089 1.90147 8.34089Z" fill="#33363A"/>
<path d="M1.90145 12.3691C1.63795 12.3691 1.43091 12.162 1.43091 11.8985V8.84945C1.43091 8.58595 1.63795 8.37891 1.90145 8.37891C2.16495 8.37891 2.37199 8.58595 2.37199 8.84945V11.8985C2.37199 12.1432 2.16495 12.3691 1.90145 12.3691Z" fill="#33363A"/>
<path d="M1.90142 8.26597C1.03564 8.26597 0.320435 7.55077 0.320435 6.68498V4.18175C0.320435 4.03116 0.452184 3.89941 0.602769 3.89941C0.753354 3.89941 0.885103 4.03116 0.885103 4.18175V6.68498C0.885103 7.2496 1.33681 7.70135 1.90147 7.70135C2.46614 7.70135 2.91785 7.24965 2.91785 6.68498V4.18175C2.91785 4.03116 3.0496 3.89941 3.20018 3.89941C3.35077 3.89941 3.48252 4.03116 3.48252 4.18175V6.68498C3.48241 7.5696 2.786 8.26597 1.90142 8.26597Z" fill="#33363A"/>
<path d="M3.29423 8.68016C3.29423 9.11303 2.93661 9.47066 2.50374 9.47066H1.29916C0.866294 9.47066 0.508667 9.11303 0.508667 8.68016V7.23092C0.508667 6.79806 0.866294 6.44043 1.29916 6.44043H2.50374C2.93661 6.44043 3.29423 6.79806 3.29423 7.23092V8.68016Z" fill="#33363A"/>
<path d="M2.50372 9.73357H1.29915C0.715694 9.73357 0.226318 9.26303 0.226318 8.66074V7.2115C0.226318 6.62805 0.696858 6.13867 1.29915 6.13867H2.50372C3.08718 6.13867 3.57655 6.60921 3.57655 7.2115V8.66074C3.5765 9.26303 3.08718 9.73357 2.50372 9.73357ZM1.29915 6.72218C1.01681 6.72218 0.790987 6.94805 0.790987 7.23034V8.67958C0.790987 8.96191 1.01686 9.18774 1.29915 9.18774H2.50372C2.78606 9.18774 3.01188 8.96186 3.01188 8.67958V7.23034C3.01188 6.948 2.78601 6.72218 2.50372 6.72218H1.29915Z" fill="#33363A"/>
<path d="M23.4706 14.0618C23.4706 19.4071 19.1417 23.736 13.7964 23.736C8.45116 23.736 4.14111 19.4071 4.14111 14.0618C4.14111 8.71658 8.47 4.3877 13.7964 4.3877C19.1417 4.3877 23.4706 8.71658 23.4706 14.0618Z" fill="white"/>
<path d="M13.8153 4.3877C19.1606 4.3877 23.4894 8.71658 23.4894 14.0618C23.4894 19.4071 19.1606 23.736 13.8153 23.736" fill="#C8DBDB"/>
<path d="M13.8152 23.9999C8.3382 23.9999 3.87756 19.5392 3.87756 14.0434C3.87756 8.56638 8.3382 4.08691 13.8152 4.08691C19.2922 4.08691 23.7717 8.54755 23.7717 14.0434C23.7528 19.5392 19.2922 23.9999 13.8152 23.9999ZM13.8152 4.67042C8.63937 4.67042 4.44218 8.88639 4.44218 14.0622C4.44218 19.2381 8.65815 23.454 13.8152 23.454C18.991 23.454 23.207 19.2381 23.207 14.0622C23.1882 8.88639 18.991 4.67042 13.8152 4.67042Z" fill="#33363A"/>
<path d="M13.8153 20.4797C17.3599 20.4797 20.2334 17.6062 20.2334 14.0616C20.2334 10.517 17.3599 7.64355 13.8153 7.64355C10.2707 7.64355 7.39722 10.517 7.39722 14.0616C7.39722 17.6062 10.2707 20.4797 13.8153 20.4797Z" fill="white"/>
<path d="M7.39722 14.0616C7.39722 10.5232 10.2769 7.64355 13.8153 7.64355C17.3537 7.64355 20.2334 10.5232 20.2334 14.0616" fill="#C8DBDB"/>
<path d="M13.8152 20.7621C10.1263 20.7621 7.11487 17.7507 7.11487 14.0617C7.11487 10.3727 10.1263 7.36133 13.8152 7.36133C17.5042 7.36133 20.5156 10.3727 20.5156 14.0617C20.5156 17.7507 17.5042 20.7621 13.8152 20.7621ZM13.8152 7.92594C10.4274 7.92594 7.67949 10.6738 7.67949 14.0617C7.67949 17.4496 10.4274 20.1974 13.8152 20.1974C17.2031 20.1974 19.951 17.4496 19.951 14.0617C19.951 10.6739 17.2031 7.92594 13.8152 7.92594Z" fill="#33363A"/>
<path d="M13.8153 17.9389C15.9566 17.9389 17.6925 16.2031 17.6925 14.0617C17.6925 11.9204 15.9566 10.1846 13.8153 10.1846C11.674 10.1846 9.93811 11.9204 9.93811 14.0617C9.93811 16.2031 11.674 17.9389 13.8153 17.9389Z" fill="#C8DBDB"/>
<path d="M13.8153 17.9389C11.6697 17.9389 9.93811 16.2074 9.93811 14.0617C9.93811 11.9161 11.6697 10.1846 13.8153 10.1846" fill="white"/>
<path d="M23.0376 10.4104C21.7013 4.36872 15.735 0.566828 9.69336 1.90315L12.1025 12.8383L23.0376 10.4104Z" fill="#83ED88"/>
<path d="M21.8331 10.6738C20.6474 5.30971 15.3398 1.92191 9.97571 3.10765L12.1213 12.8195L21.8331 10.6738Z" fill="#5FCE96"/>
<path d="M21.0803 10.8437C19.9887 5.89373 15.0952 2.76942 10.1451 3.86104L12.1214 12.82L21.0803 10.8437Z" fill="#F42535"/>
<path d="M12.1213 12.8196L21.0803 10.8433C20.5344 8.37771 19.0287 6.34502 17.0525 5.08398L12.1213 12.8196Z" fill="#FC4259"/>
<path d="M20.4592 10.9755L21.0803 10.8437C19.9887 5.89373 15.0952 2.76942 10.1451 3.86104L10.2769 4.48216C14.8128 3.78574 19.1794 6.57131 20.4592 10.9755Z" fill="#D60024"/>
<path d="M20.5909 9.33758C19.8568 7.54954 18.5958 6.08147 17.0337 5.08398L16.5631 5.81802C18.3888 6.98493 19.8004 8.77296 20.4403 10.9751L21.0614 10.8433C20.9861 10.4669 20.8732 10.0904 20.7415 9.73287C20.7038 9.60107 20.6473 9.46932 20.5909 9.33758Z" fill="#F42535"/>
<path d="M10.1262 3.87988L12.1213 12.82L21.0802 10.8437L12.8177 11.7284L10.1262 3.87988Z" fill="#FC4259"/>
<path d="M12.8177 11.7284L12.1213 12.82L21.0803 10.8438L12.8177 11.7284Z" fill="#FF647E"/>
<path d="M12.1213 13.1027C11.9896 13.1027 11.8767 13.0086 11.839 12.8768L9.42988 1.94166C9.41104 1.86636 9.42988 1.79107 9.4675 1.73461C9.50512 1.67816 9.58041 1.6217 9.63687 1.60286C15.8103 0.228917 21.946 4.14377 23.32 10.3171C23.3388 10.3924 23.32 10.4677 23.2824 10.5242C23.2447 10.5806 23.1695 10.6371 23.113 10.6559L12.1967 13.065C12.1589 13.1027 12.1401 13.1027 12.1213 13.1027ZM10.0321 2.12986L12.3283 12.5004L22.6989 10.2042C21.3061 4.57664 15.7162 1.01941 10.0321 2.12986Z" fill="#33363A"/>
<path d="M21.0803 11.1264C20.9485 11.1264 20.8356 11.0323 20.798 10.9005C19.744 6.11994 14.9822 3.08971 10.2016 4.14371C10.051 4.18133 9.90046 4.08725 9.86279 3.93666C9.82517 3.78608 9.91924 3.63555 10.0698 3.59787C15.1704 2.46859 20.2145 5.70586 21.3438 10.7876C21.3814 10.9382 21.2873 11.0887 21.1368 11.1264C21.1179 11.1264 21.0991 11.1264 21.0803 11.1264Z" fill="#33363A"/>
<path d="M15.3587 10.5427C15.3587 13.5353 12.9307 15.9633 9.93813 15.9633C6.94552 15.9633 4.51758 13.5353 4.51758 10.5427C4.51758 7.55012 6.94552 5.12218 9.93813 5.12218C12.9307 5.10334 15.3587 7.53128 15.3587 10.5427Z" fill="#A07F3C"/>
<path d="M15.3587 10.542C15.3587 13.5346 12.9307 15.9625 9.93813 15.9625C6.94552 15.9625 4.51758 13.5346 4.51758 10.542" fill="#84692C"/>
<path d="M9.93811 5.10254V15.9624C12.9307 15.9624 15.3587 13.5345 15.3587 10.5419C15.3587 7.54926 12.9307 5.10254 9.93811 5.10254Z" fill="#84692C"/>
<path d="M9.93811 10.542V15.9625C12.9307 15.9625 15.3587 13.5346 15.3587 10.542H9.93811Z" fill="#705622"/>
<path d="M9.93806 16.2455C6.79492 16.2455 4.23523 13.6858 4.23523 10.5427C4.23523 7.39953 6.79492 4.83984 9.93806 4.83984C11.4626 4.83984 12.893 5.44213 13.9658 6.51496C15.0387 7.58779 15.6409 9.01819 15.6409 10.5427C15.6409 13.6858 13.0812 16.2455 9.93806 16.2455ZM9.93806 5.38562C7.09604 5.38562 4.79985 7.70065 4.79985 10.5238C4.79985 13.3659 7.11487 15.6621 9.93806 15.6621C12.7801 15.6621 15.0763 13.347 15.0763 10.5238C15.0763 9.14989 14.5493 7.85124 13.5706 6.89132C12.5919 5.93146 11.312 5.38562 9.93806 5.38562Z" fill="#33363A"/>
<path d="M9.9381 14.1933C11.9547 14.1933 13.5895 12.5586 13.5895 10.542C13.5895 8.52539 11.9547 6.89062 9.9381 6.89062C7.92151 6.89062 6.28674 8.52539 6.28674 10.542C6.28674 12.5586 7.92151 14.1933 9.9381 14.1933Z" fill="#BEDD05"/>
<path d="M6.28674 10.542C6.28674 8.52812 7.92419 6.89062 9.9381 6.89062L6.28674 10.542Z" fill="#DEF21D"/>
<path d="M6.28674 10.542C6.28674 12.5558 7.92419 14.1933 9.9381 14.1933C11.952 14.1933 13.5895 12.5559 13.5895 10.542H6.28674Z" fill="#85C606"/>
<path d="M6.28674 10.542C6.28674 12.5558 7.92419 14.1933 9.9381 14.1933L6.28674 10.542Z" fill="#BEDD05"/>
<path d="M9.93811 6.89062V14.1933C11.952 14.1933 13.5895 12.5558 13.5895 10.5419C13.5706 8.52807 11.952 6.89062 9.93811 6.89062Z" fill="#85C606"/>
<path d="M13.5705 10.543C13.5705 8.5291 11.9331 6.8916 9.91919 6.8916L13.5705 10.543Z" fill="#52C408"/>
<path d="M9.93799 10.543V14.1943C11.9518 14.1943 13.5893 12.5569 13.5893 10.543H9.93799Z" fill="#52C408"/>
<path d="M9.93811 14.1748C11.952 14.1748 13.5895 12.5373 13.5895 10.5234L9.93811 14.1748Z" fill="#25C10A"/>
<path d="M9.93806 11.8415C10.6553 11.8415 11.2367 11.26 11.2367 10.5428C11.2367 9.82557 10.6553 9.24414 9.93806 9.24414C9.22083 9.24414 8.6394 9.82557 8.6394 10.5428C8.6394 11.26 9.22083 11.8415 9.93806 11.8415Z" fill="#BEDD05"/>
<path d="M9.93811 11.8229C10.6533 11.8229 11.2368 11.2394 11.2368 10.5242C11.2368 9.80904 10.6533 9.22559 9.93811 9.22559C9.93811 9.24437 9.93811 11.8229 9.93811 11.8229Z" fill="#85C606"/>
<path d="M8.6394 10.5428H11.2368C11.2368 9.82759 10.6533 9.24414 9.93811 9.24414C9.22286 9.24409 8.6394 9.82754 8.6394 10.5428Z" fill="#85C606"/>
<path d="M9.93811 10.5428H11.2368C11.2368 9.82759 10.6533 9.24414 9.93811 9.24414V10.5428Z" fill="#52C408"/>
<path d="M9.93804 11.3138C10.3642 11.3138 10.7097 10.9683 10.7097 10.5422C10.7097 10.116 10.3642 9.77051 9.93804 9.77051C9.51187 9.77051 9.16638 10.116 9.16638 10.5422C9.16638 10.9683 9.51187 11.3138 9.93804 11.3138Z" fill="#BEDD05"/>
<path d="M10.7097 10.5422C10.7097 10.1093 10.3709 9.77051 9.93804 9.77051C9.50517 9.77051 9.16638 10.1093 9.16638 10.5422H10.7097Z" fill="#85C606"/>
<path d="M9.93802 11.3141V9.75195C9.50515 9.75195 9.16636 10.0907 9.16636 10.5236C9.14753 10.9565 9.5051 11.3141 9.93802 11.3141Z" fill="#85C606"/>
<path d="M9.93804 10.5424V9.75195C9.50517 9.75195 9.16638 10.0907 9.16638 10.5236H9.93804V10.5424Z" fill="#52C408"/>
<path d="M9.93803 14.4571C7.77359 14.4571 6.00439 12.6879 6.00439 10.5235C6.00439 8.35904 7.77359 6.58984 9.93803 6.58984C12.1025 6.58984 13.8717 8.35904 13.8717 10.5235C13.8528 12.7068 12.1025 14.4571 9.93803 14.4571ZM9.93803 7.1733C8.07471 7.1733 6.56901 8.67899 6.56901 10.5423C6.56901 12.4056 8.07471 13.9113 9.93803 13.9113C11.8014 13.9113 13.3071 12.4056 13.3071 10.5423C13.2882 8.67899 11.7825 7.1733 9.93803 7.1733Z" fill="#33363A"/>
<path d="M16.7702 6.38327C16.2996 7.79489 13.5894 19.5582 15.001 20.0287C16.4126 20.4993 21.4191 9.52641 21.8895 8.11485C22.36 6.70328 21.4755 5.57399 20.0639 5.10345C18.6523 4.63286 17.2595 4.97165 16.7702 6.38327Z" fill="#FFE108"/>
<path d="M16.7702 6.38273C16.2996 7.79435 13.5894 19.5576 15.001 20.0282C16.4126 20.4987 21.4191 9.52587 21.8895 8.11431C22.36 6.70274 21.1932 6.38273 19.7816 5.91219C18.37 5.42282 17.2595 4.97111 16.7702 6.38273Z" fill="#FFB206"/>
<path d="M16.7702 6.38281C16.2996 7.79443 13.5894 19.5577 15.001 20.0283C16.4126 20.4988 21.4191 9.52595 21.8895 8.11439" fill="#FF8103"/>
<path d="M15.001 20.0284C13.9282 19.6707 15.2269 12.8386 16.1303 8.92383L20.8544 10.5237C19.1981 14.1937 16.0738 20.4048 15.001 20.0284Z" fill="#FF6B06"/>
<path d="M15.001 20.028C14.2105 19.7645 14.7186 15.9061 15.415 12.3301L19.3675 13.6664C17.7301 16.9225 15.7915 20.3103 15.001 20.028Z" fill="#ED4706"/>
<path d="M15.001 20.0286C14.4364 19.8404 14.5305 17.9018 14.8692 15.5303L17.843 16.5466C16.6761 18.6358 15.5468 20.2168 15.001 20.0286Z" fill="#D83705"/>
<path d="M15.1139 20.3484C15.0198 20.3484 14.9634 20.3295 14.9069 20.3108C14.5681 20.1978 13.7776 19.9155 14.9069 13.5163C15.4715 10.3167 16.262 7.02294 16.5067 6.30769C16.9961 4.85845 18.4641 4.27499 20.1581 4.83961C21.852 5.40423 22.6425 6.77823 22.1532 8.20863C21.9085 8.94267 20.5345 12.0294 19.0476 14.909C16.5444 19.7461 15.5657 20.3484 15.1139 20.3484ZM17.0526 6.47706C16.8079 7.17342 16.0362 10.3919 15.4716 13.5539C14.4364 19.4073 15.0952 19.7649 15.0952 19.7649C15.0952 19.7649 15.848 19.8778 18.5771 14.6079C20.0452 11.7659 21.4003 8.73563 21.6262 8.02042C22.0967 6.62764 21.0239 5.72423 19.9699 5.36661C18.9159 5.00903 17.5231 5.08427 17.0526 6.47706Z" fill="#33363A"/>
<path d="M20.1393 5.21569C20.4028 5.15923 20.5721 4.91457 20.5157 4.65107C20.3086 3.6347 20.9674 2.63721 21.9838 2.44896C22.2472 2.3925 22.4166 2.14784 22.3602 1.88434C22.3037 1.62084 22.059 1.45147 21.7955 1.50793C20.271 1.80905 19.2735 3.31479 19.5746 4.83928C19.6311 5.10277 19.8758 5.2722 20.1393 5.21569Z" fill="#92FC6B"/>
<path d="M21.9273 2.14817C22.059 2.12933 22.2096 2.14817 22.3037 2.24229C22.2284 2.35521 22.1343 2.4305 21.9837 2.46817C20.9674 2.67521 20.3086 3.65391 20.5157 4.67029C20.5721 4.93378 20.4027 5.17845 20.1392 5.2349C19.951 5.27252 19.7628 5.19728 19.6499 5.0467C19.5934 3.65386 20.5345 2.41166 21.9273 2.14817Z" fill="#70D63A"/>
<path d="M20.0451 5.51697C19.8945 5.51697 19.7439 5.47935 19.631 5.38523C19.4616 5.27231 19.3486 5.10289 19.311 4.89585C18.9722 3.22073 20.0639 1.5645 21.7578 1.22571C22.1719 1.15042 22.5671 1.41392 22.6424 1.828C22.7177 2.24208 22.4542 2.63733 22.0401 2.71262C21.1743 2.88199 20.6097 3.729 20.7791 4.59473C20.8167 4.80177 20.7791 4.98998 20.6662 5.15935C20.5533 5.32872 20.3838 5.44168 20.1768 5.4793C20.1392 5.51697 20.0827 5.51697 20.0451 5.51697ZM21.8895 1.79033C21.8707 1.79033 21.8707 1.79033 21.8519 1.79033C20.478 2.07266 19.5746 3.40894 19.8569 4.78294C19.8757 4.83939 19.8945 4.87707 19.9321 4.91469C19.9698 4.95231 20.0263 4.95231 20.0827 4.95231C20.1392 4.93347 20.1769 4.91469 20.2145 4.87701C20.2521 4.83939 20.2521 4.78289 20.2521 4.72643C20.0262 3.55952 20.7791 2.4114 21.946 2.18558C22.0589 2.16674 22.1154 2.05383 22.0966 1.9597C22.059 1.84684 21.9837 1.79033 21.8895 1.79033Z" fill="#33363A"/>
<path d="M20.365 5.1221C20.5721 4.95273 20.5909 4.65156 20.4026 4.44451C19.7251 3.67286 19.8004 2.46828 20.572 1.7907C20.7602 1.62133 20.7979 1.32016 20.6096 1.11311C20.4403 0.906073 20.1391 0.887237 19.9321 1.07549C18.7652 2.11065 18.6334 3.89868 19.6686 5.06559C19.8757 5.27268 20.1768 5.29147 20.365 5.1221Z" fill="#92FC6B"/>
<path d="M20.3838 1.54536C20.4967 1.45123 20.6285 1.41361 20.7602 1.43245C20.7602 1.5642 20.7038 1.69595 20.5909 1.79007C19.8192 2.46766 19.7439 3.67218 20.4215 4.44389C20.5909 4.65093 20.5721 4.95205 20.3839 5.12147C20.2333 5.25322 20.0262 5.27206 19.8569 5.19677C19.1228 4.02976 19.311 2.48644 20.3838 1.54536Z" fill="#70D63A"/>
<path d="M20.0639 5.51705C20.045 5.51705 20.0263 5.51705 20.0074 5.51705C19.8004 5.49821 19.6122 5.40414 19.4804 5.25355C18.9346 4.63243 18.6523 3.82315 18.7088 2.99498C18.7652 2.16686 19.1416 1.39516 19.7628 0.849374C20.0827 0.56704 20.5532 0.604712 20.8356 0.924667C21.1179 1.24462 21.0802 1.71516 20.7603 1.9975C20.4403 2.27983 20.2521 2.67508 20.2145 3.08911C20.1956 3.52198 20.3274 3.91722 20.6097 4.23723C20.7415 4.38782 20.8167 4.57602 20.7979 4.78306C20.7791 4.9901 20.685 5.17831 20.5344 5.31006C20.4215 5.46059 20.2333 5.51705 20.0639 5.51705ZM20.2709 1.24462C20.2333 1.24462 20.1768 1.26346 20.1392 1.30108C19.631 1.75278 19.3298 2.37391 19.2734 3.05144C19.2358 3.72902 19.4427 4.38776 19.8945 4.89592C19.9321 4.93354 19.9698 4.95238 20.0263 4.97122C20.0827 4.97122 20.1204 4.95238 20.1768 4.91476C20.2145 4.87714 20.2333 4.83947 20.2333 4.78301C20.2333 4.72655 20.2145 4.68888 20.1768 4.65126C19.8004 4.21839 19.6122 3.65373 19.6498 3.08911C19.6875 2.50566 19.951 1.97866 20.3839 1.60225C20.4592 1.52696 20.478 1.41404 20.4027 1.31991C20.3838 1.26341 20.3274 1.24462 20.2709 1.24462Z" fill="#33363A"/>
<path d="M20.1768 4.40636C20.0074 4.19932 20.0262 3.8982 20.2144 3.72878C20.9861 3.0512 21.0614 1.84668 20.3838 1.07497C20.2144 0.867924 20.2332 0.566805 20.4214 0.397384C20.6096 0.227963 20.9296 0.246799 21.099 0.435005C22.1341 1.60191 22.0212 3.40878 20.8355 4.4251C20.6473 4.63219 20.3462 4.61341 20.1768 4.40636Z" fill="#92FC6B"/>
<path d="M20.6286 0.887143C20.5345 0.77423 20.4028 0.736558 20.271 0.717773C20.2522 0.849523 20.2898 0.981272 20.3839 1.09418C21.0615 1.86584 20.9862 3.07042 20.2146 3.748C20.0075 3.91737 19.9887 4.21854 20.1769 4.42558C20.3087 4.57617 20.5157 4.61379 20.6851 4.55733C21.5509 3.50329 21.5697 1.94114 20.6286 0.887143Z" fill="#70D63A"/>
<path d="M20.5344 4.8588C20.5156 4.8588 20.4968 4.8588 20.478 4.8588C20.2709 4.83996 20.0827 4.74588 19.951 4.5953C19.8192 4.44471 19.7439 4.25651 19.7628 4.04947C19.7816 3.84243 19.8757 3.65422 20.0263 3.52247C20.685 2.93902 20.7603 1.92265 20.1768 1.2639C19.8945 0.943945 19.9322 0.473406 20.2521 0.191071C20.4027 0.0593224 20.5909 -0.0159701 20.798 0.00286586C21.005 0.0217019 21.1932 0.115779 21.325 0.266364C21.8708 0.887489 22.1531 1.69677 22.0966 2.52493C22.0402 3.35305 21.6637 4.12476 21.0426 4.67054C20.892 4.80234 20.7226 4.8588 20.5344 4.8588ZM20.7603 0.58637C20.7038 0.58637 20.6662 0.605206 20.6285 0.642827C20.5532 0.718119 20.5344 0.831032 20.6097 0.925161C21.4002 1.82857 21.3061 3.18373 20.4027 3.97423C20.3274 4.04952 20.3085 4.16243 20.3838 4.25656C20.4214 4.29418 20.4591 4.31302 20.5156 4.31302C20.572 4.31302 20.6097 4.29418 20.6473 4.25656C21.1555 3.80486 21.4567 3.18373 21.5131 2.5062C21.5696 1.82862 21.3437 1.16987 20.892 0.661714C20.8732 0.605155 20.8167 0.58637 20.7603 0.58637Z" fill="#33363A"/>
<path d="M20.064 4.18107C20.0075 3.91758 20.1769 3.67291 20.4404 3.61646C21.4567 3.40941 22.1155 2.43071 21.9084 1.41434C21.852 1.15084 22.0214 0.906182 22.2849 0.849725C22.5484 0.793269 22.793 0.962638 22.8495 1.22614C23.1506 2.75067 22.1531 4.25637 20.6286 4.55748C20.3651 4.61399 20.1016 4.44457 20.064 4.18107Z" fill="#92FC6B"/>
<path d="M22.2095 1.35804C22.1907 1.22629 22.0966 1.11338 21.9837 1.03809C21.9084 1.151 21.8707 1.28275 21.8895 1.4145C22.0966 2.43087 21.4378 3.42835 20.4215 3.61661C20.158 3.67307 19.9886 3.91773 20.045 4.18123C20.0827 4.36943 20.2332 4.52002 20.4215 4.55764C21.7013 4.08715 22.4918 2.73199 22.2095 1.35804Z" fill="#70D63A"/>
<path d="M20.5156 4.85857C20.1579 4.85857 19.838 4.61391 19.7627 4.25628C19.6874 3.8422 19.9509 3.44695 20.365 3.37166C21.2308 3.20229 21.7954 2.35529 21.626 1.48955C21.5507 1.07547 21.8142 0.68022 22.2283 0.604927C22.4354 0.567307 22.6236 0.604927 22.7929 0.71784C22.9623 0.830753 23.0753 1.00017 23.1129 1.20722C23.4517 2.88233 22.36 4.53856 20.6661 4.87735C20.6285 4.85857 20.572 4.85857 20.5156 4.85857ZM20.3274 4.14337C20.3462 4.25628 20.4591 4.31274 20.5532 4.29395C21.9272 4.01162 22.8306 2.67534 22.5483 1.30134C22.5295 1.24489 22.5107 1.20722 22.473 1.1696C22.4354 1.13197 22.3789 1.13197 22.3224 1.13197C22.2095 1.15081 22.1531 1.26372 22.1719 1.35785C22.3977 2.52476 21.6449 3.67288 20.478 3.89871C20.3838 3.91749 20.3085 4.0304 20.3274 4.14337Z" fill="#33363A"/>
<path d="M19.8569 5.66813C19.6123 5.59284 19.4805 5.31051 19.5558 5.06584C19.8946 4.08714 19.3676 3.01431 18.3889 2.67552C18.1442 2.60023 18.0125 2.3179 18.0878 2.07324C18.1819 1.82857 18.4454 1.69682 18.6901 1.77212C20.1769 2.28028 20.9674 3.8801 20.4593 5.36696C20.3839 5.61162 20.1204 5.74337 19.8569 5.66813Z" fill="#92FC6B"/>
<path d="M18.483 2.37407C18.3512 2.33645 18.2195 2.35523 18.1066 2.41169C18.163 2.5246 18.2572 2.63757 18.3889 2.67519C19.3676 3.01398 19.8946 4.06797 19.5558 5.06551C19.4805 5.31017 19.6123 5.59251 19.8569 5.6678C20.0451 5.72425 20.2333 5.6678 20.3651 5.53605C20.591 4.18089 19.8193 2.82577 18.483 2.37407Z" fill="#70D63A"/>
<path d="M20.0074 5.96894C19.9321 5.96894 19.8381 5.95011 19.7628 5.93132C19.3675 5.79957 19.1605 5.36671 19.2922 4.97146C19.424 4.57621 19.4051 4.14334 19.2169 3.7481C19.0287 3.37168 18.7088 3.07051 18.2947 2.93877C17.8995 2.80702 17.6924 2.37415 17.8242 1.9789C17.9559 1.58365 18.3888 1.37661 18.784 1.50836C19.5745 1.77186 20.2144 2.33648 20.5721 3.08935C20.9485 3.84222 21.0049 4.68918 20.7226 5.46083C20.6662 5.64904 20.5156 5.79962 20.3462 5.8937C20.2521 5.95011 20.1392 5.96894 20.0074 5.96894ZM18.5394 2.03531C18.4641 2.03531 18.3888 2.09176 18.3512 2.16706C18.3135 2.26118 18.37 2.3741 18.4641 2.41172C19.0099 2.59992 19.4428 2.97633 19.7063 3.50333C19.9698 4.03033 20.0074 4.61378 19.8192 5.15961C19.7816 5.25374 19.838 5.36665 19.9321 5.40427C19.9885 5.42311 20.0262 5.42311 20.0827 5.38544C20.1203 5.3666 20.158 5.32898 20.1768 5.27253C20.4027 4.63262 20.3462 3.9362 20.0451 3.33391C19.7439 2.73162 19.2169 2.26108 18.577 2.05404C18.577 2.03531 18.5582 2.03531 18.5394 2.03531Z" fill="#33363A"/>
<path d="M19.8757 5.66738C20.1204 5.74267 20.4027 5.61092 20.478 5.36626C20.8168 4.38756 21.8708 3.86056 22.8683 4.18052C23.113 4.25581 23.3953 4.12406 23.4706 3.8794C23.5459 3.63473 23.4141 3.3524 23.1695 3.27711C21.6826 2.76895 20.0828 3.57823 19.5746 5.0463C19.4993 5.30975 19.631 5.59208 19.8757 5.66738Z" fill="#92FC6B"/>
<path d="M22.9624 3.89878C23.0942 3.9364 23.1883 4.04937 23.2448 4.16228C23.1318 4.21873 23.0001 4.23757 22.8683 4.1999C21.8896 3.86111 20.8168 4.3881 20.478 5.38564C20.4027 5.6303 20.1204 5.76205 19.8757 5.68676C19.6875 5.6303 19.5746 5.46088 19.5558 5.27268C20.1957 4.04937 21.6261 3.44708 22.9624 3.89878Z" fill="#70D63A"/>
<path d="M20.0263 5.98837C19.951 5.98837 19.8569 5.96954 19.7816 5.95075C19.5934 5.8943 19.4428 5.74371 19.3488 5.57434C19.2546 5.40497 19.2546 5.17909 19.3112 4.99089C19.857 3.37228 21.6262 2.48766 23.2636 3.03349C23.6589 3.16524 23.8659 3.5981 23.7342 3.99335C23.6024 4.3886 23.1695 4.59564 22.7743 4.46389C21.9462 4.18156 21.0239 4.63326 20.7416 5.46143C20.6474 5.78133 20.3463 5.98837 20.0263 5.98837ZM19.9698 5.40492C20.064 5.44254 20.1769 5.38608 20.2145 5.29201C20.5909 4.16272 21.8331 3.56043 22.9624 3.9369C23.0565 3.97452 23.1694 3.91806 23.2071 3.82398C23.2447 3.72985 23.1882 3.61694 23.0753 3.57932C21.739 3.12762 20.2897 3.84282 19.838 5.17915C19.8192 5.2356 19.8192 5.27327 19.8569 5.32973C19.8757 5.34841 19.9133 5.38608 19.9698 5.40492Z" fill="#33363A"/>
<path d="M21.7013 8.34099C21.6637 8.34099 21.6449 8.34099 21.6072 8.32215L20.365 7.90807C20.2144 7.85161 20.1391 7.70103 20.1956 7.55044C20.2521 7.39986 20.4027 7.32457 20.5533 7.38107L21.7955 7.79516C21.9461 7.85161 22.0214 8.0022 21.9648 8.15278C21.9272 8.2657 21.8143 8.34099 21.7013 8.34099Z" fill="#33363A"/>
<path d="M19.5557 7.58804C19.5181 7.58804 19.4993 7.58804 19.4616 7.56921L19.2546 7.49391C19.104 7.43746 19.0287 7.28687 19.0664 7.13629C19.1228 6.9857 19.2734 6.91041 19.424 6.94808L19.631 7.02337C19.7816 7.07983 19.8569 7.23041 19.8192 7.381C19.7816 7.5128 19.6687 7.58804 19.5557 7.58804Z" fill="#33363A"/>
<path d="M18.5017 7.24936C18.464 7.24936 18.4452 7.24936 18.4075 7.23052L18.3134 7.21169C18.1628 7.15523 18.0875 7.00465 18.1252 6.85406C18.1817 6.70348 18.3322 6.62818 18.4828 6.66585L18.577 6.68469C18.7275 6.74115 18.8028 6.89173 18.7652 7.04232C18.7275 7.17407 18.6146 7.24936 18.5017 7.24936Z" fill="#33363A"/>
<path d="M17.6923 6.96713C17.6547 6.96713 17.6359 6.96713 17.5982 6.9483L17.5041 6.92946C17.3535 6.873 17.2782 6.72242 17.3159 6.57183C17.3723 6.42125 17.5229 6.34596 17.6735 6.38363L17.7676 6.40246C17.9182 6.45892 17.9935 6.60951 17.9558 6.76009C17.937 6.89184 17.8241 6.96713 17.6923 6.96713Z" fill="#33363A"/>
<path d="M21.1932 9.82829C21.1555 9.82829 21.1367 9.82829 21.099 9.80946L19.8568 9.39538C19.7063 9.33892 19.631 9.18833 19.6875 9.03775C19.7439 8.88716 19.8945 8.81187 20.0451 8.86838L21.2873 9.28246C21.4379 9.33892 21.5132 9.4895 21.4567 9.64009C21.419 9.75305 21.3061 9.82829 21.1932 9.82829Z" fill="#33363A"/>
<path d="M19.0476 9.0939C19.0099 9.0939 18.9911 9.0939 18.9534 9.07507L18.7464 8.99977C18.5958 8.94332 18.5205 8.79273 18.5582 8.64215C18.6146 8.49156 18.7652 8.41627 18.9158 8.45394L19.1229 8.52923C19.2734 8.58569 19.3487 8.73627 19.3111 8.88686C19.2734 9.01861 19.1605 9.0939 19.0476 9.0939Z" fill="#33363A"/>
<path d="M17.9936 8.73666C17.9748 8.73666 17.9372 8.73666 17.8995 8.71783L17.8054 8.69899C17.6548 8.66137 17.5795 8.49195 17.6171 8.34136C17.6548 8.19078 17.8242 8.11549 17.9748 8.15316L18.0689 8.172C18.2195 8.20962 18.2948 8.37904 18.2571 8.52962C18.2194 8.66137 18.1065 8.73666 17.9936 8.73666Z" fill="#33363A"/>
<path d="M17.1843 8.47299C17.1654 8.47299 17.1278 8.47299 17.0902 8.45416L16.996 8.43532C16.8454 8.37886 16.7702 8.22828 16.8078 8.07769C16.8454 7.92711 17.0149 7.85182 17.1654 7.88949L17.2596 7.90832C17.4102 7.96478 17.4855 8.11537 17.4478 8.26595C17.4289 8.3977 17.316 8.47299 17.1843 8.47299Z" fill="#33363A"/>
<path d="M20.6097 11.2961C20.572 11.2961 20.5532 11.2961 20.5155 11.2772L19.2733 10.8631C19.1228 10.8067 19.0475 10.6561 19.104 10.5055C19.1604 10.3549 19.311 10.2796 19.4616 10.3362L20.7038 10.7502C20.8544 10.8067 20.9297 10.9573 20.8732 11.1079C20.8355 11.2396 20.7226 11.2961 20.6097 11.2961Z" fill="#33363A"/>
<path d="M18.4641 10.5617C18.4452 10.5617 18.4076 10.5617 18.3699 10.5428L18.1629 10.4675C18.0123 10.4111 17.937 10.2605 17.9747 10.1099C18.0311 9.95933 18.1817 9.88404 18.3323 9.92171L18.5394 9.99701C18.6899 10.0535 18.7652 10.204 18.7276 10.3546C18.6899 10.4864 18.577 10.5617 18.4641 10.5617Z" fill="#33363A"/>
<path d="M17.41 10.223C17.3724 10.223 17.3535 10.223 17.3159 10.2042L17.2217 10.1853C17.0712 10.1289 16.9959 9.97828 17.0335 9.82769C17.09 9.67711 17.2406 9.60182 17.3912 9.63949L17.4853 9.65832C17.6359 9.71478 17.7112 9.86537 17.6735 10.016C17.6359 10.1289 17.523 10.223 17.41 10.223Z" fill="#33363A"/>
<path d="M16.6008 9.94077C16.582 9.94077 16.5443 9.94077 16.5067 9.92193L16.4125 9.90309C16.2619 9.86547 16.1867 9.69605 16.2243 9.54547C16.2808 9.39488 16.4314 9.31959 16.582 9.35726L16.6761 9.3761C16.8267 9.41372 16.902 9.58314 16.8643 9.73372C16.8455 9.86547 16.7325 9.94077 16.6008 9.94077Z" fill="#33363A"/>
<path d="M19.9133 12.7267C19.8756 12.7267 19.8568 12.7267 19.8191 12.7079L18.5769 12.2938C18.4263 12.2374 18.3511 12.0868 18.4076 11.9362C18.464 11.7856 18.6146 11.7103 18.7652 11.7668L20.0074 12.1809C20.158 12.2374 20.2333 12.3879 20.1768 12.5385C20.1391 12.6703 20.0262 12.7267 19.9133 12.7267Z" fill="#33363A"/>
<path d="M17.7677 11.9923C17.7301 11.9923 17.7112 11.9923 17.6736 11.9735L17.4477 11.8982C17.2971 11.8418 17.2218 11.6912 17.2595 11.5406C17.3159 11.39 17.4665 11.3147 17.6171 11.3524L17.843 11.4277C17.9936 11.4841 18.0689 11.6347 18.0312 11.7853C17.9936 11.917 17.8806 11.9923 17.7677 11.9923Z" fill="#33363A"/>
<path d="M16.7137 11.6537C16.6761 11.6537 16.6572 11.6537 16.6196 11.6348L16.5254 11.616C16.3749 11.5595 16.2996 11.4089 16.3372 11.2584C16.3937 11.1078 16.5443 11.0325 16.6949 11.0702L16.789 11.089C16.9396 11.1454 17.0149 11.296 16.9772 11.4466C16.9396 11.5595 16.8266 11.6537 16.7137 11.6537Z" fill="#33363A"/>
<path d="M15.9044 11.3714C15.8668 11.3714 15.8479 11.3714 15.8103 11.3526L15.7161 11.3338C15.5655 11.2773 15.4902 11.1267 15.5279 10.9761C15.5844 10.8255 15.735 10.7503 15.8855 10.7879L15.9797 10.8068C16.1303 10.8632 16.2055 11.0138 16.1679 11.1644C16.1303 11.2961 16.0361 11.3714 15.9044 11.3714Z" fill="#33363A"/>
<path d="M19.1981 14.1757C19.1605 14.1757 19.1416 14.1757 19.1039 14.1568L17.937 13.7616C17.7865 13.7051 17.7112 13.5545 17.7677 13.404C17.8241 13.2534 17.9747 13.1781 18.1253 13.2346L19.2922 13.6298C19.4428 13.6863 19.5181 13.8369 19.4616 13.9875C19.424 14.1004 19.3298 14.1757 19.1981 14.1757Z" fill="#33363A"/>
<path d="M17.2031 13.4794C17.1842 13.4794 17.1466 13.4794 17.109 13.4605L16.9019 13.4041C16.7513 13.3664 16.676 13.197 16.7137 13.0464C16.7513 12.8959 16.9207 12.8206 17.0713 12.8582L17.2784 12.9147C17.429 12.9523 17.5043 13.1217 17.4666 13.2723C17.4289 13.4041 17.316 13.4794 17.2031 13.4794Z" fill="#33363A"/>
<path d="M16.2243 13.1595C16.2055 13.1595 16.1678 13.1595 16.1302 13.1407L16.0549 13.1218C15.9043 13.0654 15.829 12.9148 15.8667 12.7642C15.9043 12.6136 16.0737 12.5383 16.2243 12.576L16.2996 12.5948C16.4502 12.6513 16.5255 12.8019 16.4878 12.9525C16.4502 13.0654 16.356 13.1595 16.2243 13.1595Z" fill="#33363A"/>
<path d="M15.4715 12.8958C15.4526 12.8958 15.415 12.8958 15.3774 12.877L15.3021 12.8582C15.1515 12.8017 15.0762 12.6511 15.1139 12.5005C15.1515 12.35 15.3209 12.2747 15.4715 12.3123L15.5468 12.3312C15.6974 12.3876 15.7726 12.5382 15.735 12.6888C15.7161 12.8206 15.6032 12.8958 15.4715 12.8958Z" fill="#33363A"/>
<path d="M18.464 15.5871C18.4264 15.5871 18.4076 15.5871 18.3699 15.5682L17.1277 15.1542C16.9771 15.0977 16.9018 14.9471 16.9583 14.7965C17.0148 14.646 17.1654 14.5707 17.316 14.6272L18.5582 15.0413C18.7088 15.0977 18.784 15.2483 18.7275 15.3989C18.6899 15.5118 18.577 15.5871 18.464 15.5871Z" fill="#33363A"/>
<path d="M16.3184 14.8341C16.2996 14.8341 16.262 14.8341 16.2243 14.8153L16.0173 14.74C15.8667 14.6836 15.7914 14.533 15.8291 14.3824C15.8667 14.2318 16.0361 14.1565 16.1867 14.1942L16.3937 14.2695C16.5443 14.3259 16.6196 14.4765 16.5819 14.6271C16.5443 14.7589 16.4314 14.8341 16.3184 14.8341Z" fill="#33363A"/>
<path d="M15.2645 14.4955C15.2269 14.4955 15.208 14.4955 15.1704 14.4766L15.0762 14.4578C14.9256 14.4013 14.8504 14.2507 14.888 14.1002C14.9445 13.9496 15.0951 13.8743 15.2456 13.9119L15.3398 13.9308C15.4904 13.9872 15.5657 14.1378 15.528 14.2884C15.5091 14.4202 15.3962 14.4955 15.2645 14.4955Z" fill="#33363A"/>
<path d="M17.6924 16.9992C17.6548 16.9992 17.636 16.9992 17.5983 16.9804L16.3561 16.5663C16.2055 16.5098 16.1302 16.3592 16.1867 16.2086C16.2432 16.0581 16.3938 15.9828 16.5444 16.0393L17.7866 16.4534C17.9371 16.5098 18.0124 16.6604 17.9559 16.811C17.9183 16.9239 17.8053 16.9992 17.6924 16.9992Z" fill="#33363A"/>
<path d="M15.5468 16.2462C15.528 16.2462 15.4904 16.2462 15.4527 16.2274L15.2457 16.1521C15.0951 16.0957 15.0198 15.9451 15.0575 15.7945C15.0951 15.6439 15.2645 15.5686 15.4151 15.6063L15.6221 15.6816C15.7727 15.738 15.848 15.8886 15.8103 16.0392C15.7727 16.171 15.6597 16.2462 15.5468 16.2462Z" fill="#33363A"/>
<path d="M16.8643 18.3732C16.8267 18.3732 16.8079 18.3732 16.7702 18.3544L15.528 17.9403C15.3774 17.8838 15.3021 17.7333 15.3586 17.5827C15.4151 17.4321 15.5657 17.3568 15.7162 17.4133L16.9584 17.8274C17.109 17.8838 17.1843 18.0344 17.1278 18.185C17.0901 18.2979 16.9772 18.3732 16.8643 18.3732Z" fill="#33363A"/>
<path d="M14.9068 17.6955C14.8692 17.6955 14.8504 17.6955 14.8127 17.6766L14.6056 17.6013C14.4551 17.5449 14.3798 17.3943 14.4174 17.2437C14.4739 17.0931 14.6245 17.0178 14.7751 17.0555L14.9821 17.1308C15.1327 17.1873 15.208 17.3378 15.1703 17.4884C15.1327 17.6202 15.0198 17.6955 14.9068 17.6955Z" fill="#33363A"/>
<path d="M15.9421 19.7277C15.9044 19.7277 15.8856 19.7277 15.8479 19.7089L14.6057 19.2948C14.4552 19.2383 14.3799 19.0877 14.4364 18.9372C14.4928 18.7866 14.6434 18.7113 14.794 18.7678L16.0362 19.1819C16.1868 19.2383 16.2621 19.3889 16.2056 19.5395C16.1679 19.6524 16.055 19.7277 15.9421 19.7277Z" fill="#33363A"/>
<path d="M20.6663 17.9576C20.6663 21.1761 17.5984 21.3078 13.8153 21.3078C10.0322 21.3078 6.96436 21.1761 6.96436 17.9576C6.96436 14.7392 10.0322 12.123 13.8153 12.123C17.5984 12.123 20.6663 14.7392 20.6663 17.9576Z" fill="#C17E25"/>
<path d="M20.6663 17.9576C20.6663 21.1761 17.5984 21.3078 13.8153 21.3078C10.0322 21.3078 6.96436 21.1761 6.96436 17.9576C6.96436 14.7392 10.0322 12.123 13.8153 12.123C17.5984 12.123 20.6663 14.7392 20.6663 17.9576Z" fill="white"/>
<path d="M20.6663 17.9578C20.6663 21.1762 17.5984 21.308 13.8153 21.308C10.0322 21.308 6.96436 21.1762 6.96436 17.9578C6.96436 14.7393 10.0322 17.9766 13.8153 17.9766C17.5984 17.9766 20.6663 14.7393 20.6663 17.9578Z" fill="#F4F3E9"/>
<path d="M13.8152 19.633C10.4086 19.633 7.58538 17.0168 7.03955 18.8236C7.56655 21.1951 10.4086 21.2893 13.8152 21.2893C17.2219 21.2893 20.045 21.1763 20.5909 18.8236C20.045 17.0356 17.2219 19.633 13.8152 19.633Z" fill="#E0DECE"/>
<path d="M13.8153 21.5903C10.2957 21.5903 6.68201 21.5903 6.68201 17.9577C6.68201 14.5887 9.8816 11.8408 13.8153 11.8408C17.749 11.8408 20.9486 14.5887 20.9486 17.9577C20.9486 21.5903 17.3161 21.5903 13.8153 21.5903ZM13.8153 12.4054C10.1828 12.4054 7.24668 14.8898 7.24668 17.9577C7.24668 20.8186 9.84404 21.0256 13.8153 21.0256C17.7865 21.0256 20.3839 20.8185 20.3839 17.9577C20.3839 14.8899 17.4478 12.4054 13.8153 12.4054Z" fill="#33363A"/>
<path d="M17.1278 17.0173C17.1278 20.1229 15.641 20.4617 13.8152 20.4617C11.9896 20.4617 10.5027 20.1229 10.5027 17.0173C10.5027 15.4175 11.9895 14.1377 13.8152 14.1377C15.6409 14.1377 17.1278 15.4176 17.1278 17.0173Z" fill="#D3D1C1"/>
<path d="M17.1278 17.0173C17.1278 18.6172 15.641 19.3135 13.8152 19.3135C11.9896 19.3135 10.5027 18.6172 10.5027 17.0173C10.5027 15.4175 11.9895 14.1377 13.8152 14.1377C15.6409 14.1377 17.1278 15.4176 17.1278 17.0173Z" fill="#FFBC00"/>
<path d="M13.8152 14.6828C15.5468 14.6828 16.9583 15.8309 17.1278 17.2801C17.1466 17.186 17.1466 17.0919 17.1466 16.9978C17.1466 15.398 15.6597 14.1182 13.834 14.1182C12.0084 14.1182 10.5027 15.4168 10.5027 16.9978C10.5027 17.0919 10.5027 17.186 10.5215 17.2801C10.6721 15.8309 12.0836 14.6828 13.8152 14.6828Z" fill="#FFCE00"/>
<path d="M17.1278 17.0167C17.1278 18.6165 15.641 19.3129 13.8152 19.3129C11.9896 19.3129 10.5027 18.6165 10.5027 17.0167C10.5027 15.4169 11.9895 17.0167 13.8152 17.0167C15.6409 17.0167 17.1278 15.4169 17.1278 17.0167Z" fill="#FF9100"/>
<path d="M13.8153 19.595C11.5944 19.595 10.2205 18.6163 10.2205 17.0165C10.2205 15.2661 11.8391 13.8545 13.8153 13.8545C15.8104 13.8545 17.429 15.2661 17.429 17.0165C17.4102 18.5975 16.0362 19.595 13.8153 19.595ZM13.8153 14.4192C12.1402 14.4192 10.7851 15.5861 10.7851 17.0165C10.7851 18.8798 13.1189 19.0304 13.8153 19.0304C14.5117 19.0304 16.8644 18.8798 16.8644 17.0165C16.8455 15.5861 15.4904 14.4192 13.8153 14.4192Z" fill="#33363A"/>
<path d="M11.4813 16.5082C11.4625 16.5082 11.4437 16.5082 11.4249 16.5082C11.2178 16.4706 11.0672 16.2823 11.1049 16.0753C11.2555 15.0213 12.7424 14.3438 13.4764 14.3438C13.6834 14.3438 13.8528 14.5131 13.8528 14.7202C13.8528 14.9272 13.6834 15.0966 13.4764 15.0966C12.987 15.0966 11.933 15.5859 11.839 16.1694C11.8201 16.3764 11.6507 16.5082 11.4813 16.5082Z" fill="#FFEF5A"/>
<path d="M11.4249 17.3555C11.4061 17.3555 11.3873 17.3555 11.3685 17.3555C11.1614 17.3178 11.0108 17.1296 11.0485 16.9226C11.0861 16.6779 11.312 16.5273 11.5191 16.5273C11.7261 16.5273 11.8955 16.6967 11.8955 16.9038C11.8955 17.0543 11.8013 17.1861 11.6884 17.2425C11.6131 17.3178 11.5191 17.3555 11.4249 17.3555Z" fill="#FFEF5A"/>
<path d="M11.4626 17.7885C11.4626 17.7885 11.4437 17.7885 11.425 17.7885C11.3308 17.7697 11.2556 17.6756 11.2744 17.5815C11.2932 17.4686 11.3873 17.4121 11.4814 17.4121C11.5943 17.4121 11.6696 17.4874 11.6696 17.6003C11.6696 17.6756 11.632 17.7321 11.5755 17.7697C11.5567 17.7697 11.519 17.7885 11.4626 17.7885Z" fill="#FFEF5A"/>
</g>
<defs>
<clipPath id="clip0_1443_8185">
<rect width="24" height="24" fill="white"/>
</clipPath>
</defs>
</svg>
