<svg width="24" height="24" viewBox="0 0 24 24" fill="none" xmlns="http://www.w3.org/2000/svg">
<path d="M10.3594 7.17188H3.42188C3.42188 9.45937 2.925 11.7187 1.95937 13.7953L0.6375 16.6406C0.370313 17.2125 0.234375 17.8359 0.234375 18.4688C0.234375 19.4672 0.576562 20.4375 1.20937 21.2109C2.52187 22.8234 4.49062 23.7609 6.57187 23.7609H7.20469C9.28594 23.7609 11.2547 22.8234 12.5672 21.2109C13.2047 20.4375 13.5469 19.4719 13.5469 18.4688C13.5469 17.8359 13.4109 17.2125 13.1437 16.6359L11.8219 13.7906C10.8562 11.7188 10.3594 9.45937 10.3594 7.17188Z" fill="#EF917B"/>
<path d="M4.30308 8.9625C5.06245 9.50625 5.95776 9.79688 6.89058 9.79688C7.82339 9.79688 8.7187 9.50625 9.47808 8.9625L10.4015 8.29688C10.3734 7.92188 10.3593 7.54688 10.3593 7.17188H3.42183C3.42183 7.54688 3.40776 7.92188 3.37964 8.29688L4.30308 8.9625Z" fill="#E96B4E"/>
<path d="M10.3594 1.26562C9.44531 0.595312 8.34375 0.234375 7.20938 0.234375H6.57187C5.4375 0.234375 4.33594 0.595312 3.42188 1.26562L1.82812 4.54688L3.42188 7.17188L4.85156 8.20312C5.44688 8.62969 6.15938 8.85938 6.89062 8.85938C7.62187 8.85938 8.33437 8.62969 8.92969 8.20312L10.3594 7.17188L11.9531 4.54688L10.3594 1.26562Z" fill="#EF917B"/>
<path d="M6.65625 14.5781H7.125V23.7656H6.65625V14.5781Z" fill="#E96B4E"/>
<path d="M0.853125 7.36875L1.52344 8.39062C1.71563 8.68125 2.03906 8.85938 2.39062 8.85938C2.9625 8.85938 3.42656 8.39531 3.42656 7.82344V1.26562L2.14219 2.00156C0.960938 2.67656 0.234375 3.93281 0.234375 5.29219C0.234375 6.02813 0.45 6.75 0.853125 7.36875Z" fill="#E96B4E"/>
<path d="M12.9282 7.36875L12.2579 8.39062C12.0657 8.68125 11.7422 8.85938 11.3907 8.85938C10.8188 8.85938 10.3547 8.39531 10.3547 7.82344V1.26562L11.6344 2.00156C12.8157 2.67656 13.5422 3.93281 13.5422 5.29219C13.5469 6.02813 13.3313 6.75 12.9282 7.36875Z" fill="#E96B4E"/>
<path d="M5.25 4.54688H5.71875V5.48438H5.25V4.54688Z" fill="#399349"/>
<path d="M8.0625 4.54688H8.53125V5.48438H8.0625V4.54688Z" fill="#399349"/>
<path d="M7.17188 7.3916H6.60938C6.16875 7.3916 5.8125 7.03535 5.8125 6.59473H6.28125C6.28125 6.77754 6.42656 6.92285 6.60938 6.92285H7.17188C7.35469 6.92285 7.5 6.77754 7.5 6.59473H7.96875C7.96875 7.03535 7.6125 7.3916 7.17188 7.3916Z" fill="#399349"/>
<path d="M6.32812 5.8125H7.45312V6.28125H6.32812V5.8125Z" fill="#399349"/>
<path d="M6.65625 6.04688H7.125V7.17188H6.65625V6.04688Z" fill="#399349"/>
<path d="M8.72341 24H5.05779C4.41091 24 3.88123 23.475 3.88123 22.8234C3.88123 22.2 4.37341 21.6844 4.99216 21.6516L3.88591 14.9578L4.34998 14.8828L5.5031 21.8484C5.51248 21.9141 5.49373 21.9844 5.45154 22.0359C5.40935 22.0875 5.34373 22.1203 5.27341 22.1203H5.06248C4.67341 22.1203 4.35466 22.4391 4.35466 22.8281C4.35466 23.2172 4.67341 23.5359 5.06248 23.5359H8.7281C9.11716 23.5359 9.43591 23.2172 9.43591 22.8281C9.43591 22.4391 9.11716 22.1203 8.7281 22.1203H8.51716C8.44685 22.1203 8.38123 22.0922 8.33904 22.0359C8.29216 21.9844 8.27341 21.9141 8.28748 21.8484L9.4406 14.8828L9.90466 14.9578L8.79841 21.6516C9.41716 21.6844 9.90935 22.2 9.90935 22.8234C9.89998 23.475 9.37029 24 8.72341 24Z" fill="#E96B4E"/>
<path d="M15.0938 7.96875V10.3125L16.5 9.375L15.0938 7.96875Z" fill="#FFB20F"/>
<path d="M21.1875 7.96875V10.3125L19.7812 9.375L21.1875 7.96875Z" fill="#FFB20F"/>
<path d="M23.5172 19.4719L20.4938 12.7969H15.7875L12.7641 19.4719C12.6 19.8328 12.5156 20.2219 12.5156 20.6156C12.5156 21.5672 13.0031 22.4484 13.8047 22.9547C14.6437 23.4844 15.6187 23.7656 16.6125 23.7656H19.6641C20.6578 23.7656 21.6328 23.4844 22.4719 22.9547C23.2734 22.4484 23.7609 21.5625 23.7609 20.6156C23.7656 20.2172 23.6813 19.8281 23.5172 19.4719Z" fill="#FFCB5C"/>
<path d="M15.0984 14.3156C15.4359 14.4562 15.8062 14.5312 16.1812 14.5312H20.0812C20.4609 14.5312 20.8359 14.4516 21.1781 14.3109L20.4937 12.7969H15.7875L15.0984 14.3156Z" fill="#FFB20F"/>
<path d="M14.9625 10.1766L14.9438 10.1953C14.2219 10.8047 14.0438 11.85 14.5313 12.661C14.8782 13.2422 15.5063 13.5985 16.186 13.5985H20.086C20.7704 13.5985 21.4032 13.2375 21.7454 12.6469L21.7641 12.6188C22.2422 11.8031 22.0594 10.7625 21.3329 10.1578C19.4813 8.62033 16.8 8.62502 14.9625 10.1766Z" fill="#FFCB5C"/>
<path d="M19.6875 23.9994H16.5938C16.0266 23.9994 15.5625 23.5354 15.5625 22.9682C15.5625 22.4338 15.9703 21.9932 16.4953 21.9416L15.5672 16.3025L16.0312 16.2275L17.0062 22.1338C17.0156 22.1994 16.9969 22.2697 16.9547 22.3213C16.9125 22.3729 16.8469 22.4057 16.7766 22.4057H16.5938C16.2844 22.4057 16.0312 22.6588 16.0312 22.9682C16.0312 23.2775 16.2844 23.5307 16.5938 23.5307H19.6875C19.9969 23.5307 20.25 23.2775 20.25 22.9682C20.25 22.6588 19.9969 22.4057 19.6875 22.4057H19.5094C19.4391 22.4057 19.3734 22.3775 19.3312 22.3213C19.2844 22.2697 19.2656 22.1994 19.2797 22.1338L20.2547 16.2275L20.7188 16.3025L19.7906 21.9416C20.3109 21.9932 20.7234 22.4338 20.7234 22.9682C20.7188 23.5354 20.2547 23.9994 19.6875 23.9994Z" fill="#FFB20F"/>
<path d="M17.9062 18.1406H18.375V23.7656H17.9062V18.1406Z" fill="#FFB20F"/>
<path d="M16.2656 10.3125H16.7344V11.1094H16.2656V10.3125Z" fill="#399349"/>
<path d="M19.5469 10.3125H20.0156V11.1094H19.5469V10.3125Z" fill="#399349"/>
<path d="M18.375 11.4844H17.9062C17.5172 11.4844 17.2031 11.1703 17.2031 10.7812H17.6719C17.6719 10.9125 17.775 11.0156 17.9062 11.0156H18.375C18.5063 11.0156 18.6094 10.9125 18.6094 10.7812H19.0781C19.0781 11.1703 18.7641 11.4844 18.375 11.4844Z" fill="#399349"/>
<path d="M17.9062 10.3125H18.375V11.25H17.9062V10.3125Z" fill="#399349"/>
<path d="M13.5974 10.6055L15.4707 11.0748L15.3568 11.5295L13.4835 11.0602L13.5974 10.6055Z" fill="#FFB20F"/>
<path d="M15.3717 11.8223L15.4856 12.277L13.6123 12.7462L13.4984 12.2916L15.3717 11.8223Z" fill="#FFB20F"/>
<path d="M22.6871 10.6025L22.801 11.0572L20.9277 11.5265L20.8138 11.0718L22.6871 10.6025Z" fill="#FFB20F"/>
<path d="M20.9083 11.8271L22.7816 12.2964L22.6677 12.7511L20.7944 12.2818L20.9083 11.8271Z" fill="#FFB20F"/>
<path d="M19.6875 23.9994H16.5938C16.0266 23.9994 15.5625 23.5354 15.5625 22.9682C15.5625 22.4338 15.9703 21.9932 16.4953 21.9416L15.5672 16.3025L16.0312 16.2275L17.0062 22.1338C17.0156 22.1994 16.9969 22.2697 16.9547 22.3213C16.9125 22.3729 16.8469 22.4057 16.7766 22.4057H16.5938C16.2844 22.4057 16.0312 22.6588 16.0312 22.9682C16.0312 23.2775 16.2844 23.5307 16.5938 23.5307H19.6875C19.9969 23.5307 20.25 23.2775 20.25 22.9682C20.25 22.6588 19.9969 22.4057 19.6875 22.4057H19.5094C19.4391 22.4057 19.3734 22.3775 19.3312 22.3213C19.2844 22.2697 19.2656 22.1994 19.2797 22.1338L20.2547 16.2275L20.7188 16.3025L19.7906 21.9416C20.3109 21.9932 20.7234 22.4338 20.7234 22.9682C20.7188 23.5354 20.2547 23.9994 19.6875 23.9994Z" fill="#13392D"/>
<path d="M17.9062 18.1406H18.375V23.7656H17.9062V18.1406Z" fill="#13392D"/>
<path d="M20.0813 13.8281H16.1813C15.4266 13.8281 14.7141 13.425 14.3297 12.7781C13.7813 11.8641 13.9735 10.7016 14.7891 10.0125L14.8079 9.99377C16.7344 8.3719 19.5422 8.36252 21.4782 9.97502C22.2985 10.6547 22.5001 11.8172 21.961 12.7313L21.9422 12.7594C21.5579 13.4203 20.8454 13.8281 20.0813 13.8281ZM15.1125 10.3547L15.0938 10.3735C14.4563 10.9125 14.3016 11.8219 14.7329 12.5391C15.0375 13.0453 15.5954 13.3594 16.186 13.3594H20.086C20.6813 13.3594 21.2438 13.0406 21.5438 12.525L21.5626 12.4969C21.9844 11.7797 21.8251 10.8703 21.1876 10.336C19.4204 8.86877 16.8657 8.87815 15.1125 10.3547Z" fill="#13392D"/>
<path d="M16.2656 10.3125H16.7344V11.1094H16.2656V10.3125Z" fill="#13392D"/>
<path d="M19.5469 10.3125H20.0156V11.1094H19.5469V10.3125Z" fill="#13392D"/>
<path d="M18.375 11.4844H17.9062C17.5172 11.4844 17.2031 11.1703 17.2031 10.7812H17.6719C17.6719 10.9125 17.775 11.0156 17.9062 11.0156H18.375C18.5063 11.0156 18.6094 10.9125 18.6094 10.7812H19.0781C19.0781 11.1703 18.7641 11.4844 18.375 11.4844Z" fill="#13392D"/>
<path d="M17.9062 10.3125H18.375V11.25H17.9062V10.3125Z" fill="#13392D"/>
<path d="M13.5974 10.6055L15.4707 11.0748L15.3568 11.5295L13.4835 11.0602L13.5974 10.6055Z" fill="#13392D"/>
<path d="M15.3717 11.8223L15.4856 12.277L13.6123 12.7462L13.4984 12.2916L15.3717 11.8223Z" fill="#13392D"/>
<path d="M22.6871 10.6025L22.801 11.0572L20.9277 11.5265L20.8138 11.0718L22.6871 10.6025Z" fill="#13392D"/>
<path d="M20.9083 11.8271L22.7816 12.2964L22.6677 12.7511L20.7944 12.2818L20.9083 11.8271Z" fill="#13392D"/>
<path d="M19.6641 23.9994H16.6125C15.5719 23.9994 14.5594 23.7041 13.6782 23.151C12.8016 22.5979 12.2766 21.651 12.2766 20.6104C12.2766 20.1791 12.3657 19.7619 12.5438 19.3729L15.2813 13.3447L15.7079 13.5369L12.975 19.565C12.825 19.8979 12.75 20.2494 12.75 20.6104C12.75 21.4869 13.1907 22.2885 13.9313 22.7525C14.7375 23.2588 15.6657 23.526 16.6125 23.526H19.6641C20.6157 23.526 21.5438 23.2588 22.3454 22.7525C23.086 22.2838 23.5266 21.4869 23.5266 20.6104C23.5266 20.2494 23.4516 19.8979 23.3016 19.565L21.061 14.6244L21.4875 14.4322L23.7282 19.3729C23.9063 19.7666 23.9954 20.1838 23.9954 20.6104C23.9954 21.6463 23.4704 22.5979 22.5938 23.151C21.7219 23.7041 20.7047 23.9994 19.6641 23.9994Z" fill="#13392D"/>
<path d="M15.3281 10.0642H14.8594V7.96887C14.8594 7.87512 14.9156 7.79075 15.0047 7.75325C15.0938 7.71575 15.1922 7.73919 15.2578 7.80481L16.6031 9.15012L16.2703 9.48294L15.3281 8.53606V10.0642Z" fill="#13392D"/>
<path d="M21.4219 10.0361H20.9532V8.53606L20.0157 9.47356L19.6829 9.14075L21.0188 7.80481C21.0844 7.73919 21.1875 7.71575 21.2719 7.75325C21.361 7.79075 21.4172 7.87512 21.4172 7.96887V10.0361H21.4219Z" fill="#13392D"/>
<path d="M8.72341 24H5.05779C4.41091 24 3.88123 23.475 3.88123 22.8234C3.88123 22.2 4.37341 21.6844 4.99216 21.6516L3.88591 14.9578L4.34998 14.8828L5.5031 21.8484C5.51248 21.9141 5.49373 21.9844 5.45154 22.0359C5.40935 22.0875 5.34373 22.1203 5.27341 22.1203H5.06248C4.67341 22.1203 4.35466 22.4391 4.35466 22.8281C4.35466 23.2172 4.67341 23.5359 5.06248 23.5359H8.7281C9.11716 23.5359 9.43591 23.2172 9.43591 22.8281C9.43591 22.4391 9.11716 22.1203 8.7281 22.1203H8.51716C8.44685 22.1203 8.38123 22.0922 8.33904 22.0359C8.29216 21.9844 8.27341 21.9141 8.28748 21.8484L9.4406 14.8828L9.90466 14.9578L8.79841 21.6516C9.41716 21.6844 9.90935 22.2 9.90935 22.8234C9.89998 23.475 9.37029 24 8.72341 24Z" fill="#13392D"/>
<path d="M6.65625 14.5781H7.125V23.7656H6.65625V14.5781Z" fill="#13392D"/>
<path d="M2.38594 9.09434C1.95469 9.09434 1.56094 8.87871 1.32188 8.51777L0.65625 7.4959C0.225 6.83965 0 6.07559 0 5.29277C0 3.85371 0.773438 2.51309 2.025 1.7959L3.30469 1.05996C3.375 1.01777 3.46875 1.01777 3.53906 1.05996C3.60938 1.10684 3.65625 1.18184 3.65625 1.26621V7.82402C3.65625 8.52715 3.08906 9.09434 2.38594 9.09434ZM1.05 7.23809L1.72031 8.25996C1.87031 8.48496 2.11875 8.6209 2.39062 8.6209C2.83125 8.6209 3.19219 8.25996 3.19219 7.81934V1.66934L2.25938 2.20371C1.15313 2.83652 0.46875 4.02246 0.46875 5.29277C0.46875 5.98652 0.670312 6.66152 1.05 7.23809Z" fill="#13392D"/>
<path d="M11.3953 9.09356C10.6969 9.09356 10.125 8.52637 10.125 7.82324V1.26543C10.125 1.18105 10.1719 1.10605 10.2422 1.06387C10.3125 1.02168 10.4016 1.02168 10.4766 1.06387L11.7563 1.7998C13.0031 2.51699 13.7812 3.85293 13.7812 5.29668C13.7812 6.07949 13.5563 6.84356 13.125 7.49981L12.4547 8.52168C12.2203 8.87793 11.8219 9.09356 11.3953 9.09356ZM10.5938 1.66855V7.82324C10.5938 8.26387 10.9547 8.62481 11.3953 8.62481C11.6672 8.62481 11.9156 8.48887 12.0656 8.26387L12.7359 7.24199C13.1156 6.66074 13.3172 5.98574 13.3172 5.29199C13.3172 4.02168 12.6328 2.83574 11.5266 2.20293L10.5938 1.66855Z" fill="#13392D"/>
<path d="M5.25 4.54688H5.71875V5.48438H5.25V4.54688Z" fill="#13392D"/>
<path d="M8.0625 4.54688H8.53125V5.48438H8.0625V4.54688Z" fill="#13392D"/>
<path d="M7.17188 7.3916H6.60938C6.16875 7.3916 5.8125 7.03535 5.8125 6.59473H6.28125C6.28125 6.77754 6.42656 6.92285 6.60938 6.92285H7.17188C7.35469 6.92285 7.5 6.77754 7.5 6.59473H7.96875C7.96875 7.03535 7.6125 7.3916 7.17188 7.3916Z" fill="#13392D"/>
<path d="M6.32812 5.8125H7.45312V6.28125H6.32812V5.8125Z" fill="#13392D"/>
<path d="M6.65625 6.04688H7.125V7.17188H6.65625V6.04688Z" fill="#13392D"/>
<path d="M6.89062 9.09375C6.10313 9.09375 5.35312 8.85 4.71562 8.39062L3.28594 7.35938C3.225 7.31719 3.1875 7.24687 3.1875 7.16719V1.26562C3.1875 1.19062 3.225 1.12031 3.28125 1.07812C4.24219 0.375 5.38125 0 6.57187 0H7.20938C8.4 0 9.53906 0.370312 10.5 1.07812C10.5609 1.12031 10.5938 1.19062 10.5938 1.26562V7.17188C10.5938 7.24687 10.5562 7.31719 10.4953 7.36406L9.06562 8.39531C8.42812 8.85 7.67812 9.09375 6.89062 9.09375ZM3.65625 7.05L4.9875 8.01094C5.54531 8.41406 6.20156 8.625 6.89062 8.625C7.57969 8.625 8.23594 8.41406 8.79375 8.01094L10.125 7.05V1.3875C9.26719 0.7875 8.25938 0.46875 7.20938 0.46875H6.57187C5.52187 0.46875 4.51406 0.7875 3.65625 1.3875V7.05Z" fill="#13392D"/>
<path d="M13.2703 17.8734C13.2141 17.4797 13.0969 17.0953 12.9328 16.7344L11.6109 13.8891C10.6359 11.8031 10.125 9.47813 10.125 7.17188H10.5938C10.5938 9.40781 11.0906 11.6672 12.0328 13.6969L13.3547 16.5422C13.5422 16.9453 13.6688 17.3719 13.7344 17.8078L13.2703 17.8734Z" fill="#13392D"/>
<path d="M9.54849 23.6063L9.3938 23.1656C10.1579 22.8984 10.861 22.5047 11.4797 21.9844L11.7797 22.3453C11.1188 22.8984 10.3688 23.3203 9.54849 23.6063Z" fill="#13392D"/>
<path d="M4.22344 23.6016C2.97188 23.1656 1.86563 22.3922 1.03125 21.3609C0.365625 20.5453 0 19.5188 0 18.4688C0 17.8078 0.145313 17.1375 0.426563 16.5375L1.74844 13.6922C2.69063 11.6672 3.1875 9.40781 3.1875 7.17188H3.65625C3.65625 9.47813 3.14531 11.8031 2.17031 13.8937L0.848438 16.7391C0.6 17.2781 0.464063 17.8781 0.464063 18.4734C0.464063 19.4156 0.792188 20.3391 1.3875 21.0703C2.17031 22.0312 3.20156 22.7531 4.37344 23.1609L4.22344 23.6016Z" fill="#13392D"/>
</svg>
