<svg width="24" height="24" viewBox="0 0 24 24" fill="none" xmlns="http://www.w3.org/2000/svg">
<path fill-rule="evenodd" clip-rule="evenodd" d="M18.6998 12.375C19.4675 12.375 20.1833 12.7677 20.5964 13.4161L22.0298 15.6657C22.4713 16.3587 22.4997 17.237 22.105 17.9573C21.7103 18.6776 20.9543 19.1255 20.1332 19.1255H3.85805C3.03686 19.1255 2.28089 18.6776 1.88618 17.9573C1.49147 17.237 1.5199 16.3587 1.96144 15.6657L3.39477 13.4161C3.80788 12.7677 4.52371 12.375 5.29139 12.375H18.6998Z" fill="#518D60"/>
<path fill-rule="evenodd" clip-rule="evenodd" d="M18.6998 9.75C19.4675 9.75 20.1833 10.1427 20.5964 10.7911L22.0298 13.0407C22.4713 13.7337 22.4997 14.612 22.105 15.3323C21.7103 16.0526 20.9543 16.5005 20.1332 16.5005H3.85805C3.03686 16.5005 2.28089 16.0526 1.88618 15.3323C1.49147 14.612 1.5199 13.7337 1.96144 13.0407L3.39477 10.7911C3.80788 10.1427 4.52371 9.75 5.29139 9.75H18.6998Z" fill="#5ECF7A"/>
<path fill-rule="evenodd" clip-rule="evenodd" d="M18.6998 7.125C19.4675 7.125 20.1833 7.5177 20.5964 8.16608L22.0298 10.4157C22.4713 11.1087 22.4997 11.987 22.105 12.7073C21.7103 13.4276 20.9543 13.8755 20.1332 13.8755H3.85805C3.03686 13.8755 2.28089 13.4276 1.88618 12.7073C1.49147 11.987 1.5199 11.1087 1.96144 10.4157L3.39477 8.16608C3.80788 7.5177 4.52371 7.125 5.29139 7.125H18.6998Z" fill="#518D60"/>
<path fill-rule="evenodd" clip-rule="evenodd" d="M18.6998 4.5C19.4675 4.5 20.1833 4.8927 20.5964 5.54108L22.0298 7.7907C22.4713 8.4837 22.4997 9.36202 22.105 10.0823C21.7103 10.8026 20.9543 11.2505 20.1332 11.2505H3.85805C3.03686 11.2505 2.28089 10.8026 1.88618 10.0823C1.49147 9.36202 1.5199 8.4837 1.96144 7.7907L3.39477 5.54108C3.80788 4.8927 4.52371 4.5 5.29139 4.5H18.6998Z" fill="#5ECF7A"/>
<path fill-rule="evenodd" clip-rule="evenodd" d="M13.6576 3C14.8043 3 15.7673 3.86175 15.8941 5.00175L16.4866 10.3343C16.4956 10.4168 16.5001 10.5 16.5001 10.5832V18.375C16.5001 18.972 16.2631 19.5443 15.8408 19.9658C15.4193 20.388 14.8471 20.625 14.2501 20.625H9.75006C9.15306 20.625 8.58081 20.388 8.15931 19.9658C7.73706 19.5443 7.50006 18.972 7.50006 18.375V10.5832C7.50006 10.5 7.50456 10.4168 7.51356 10.3343L8.10606 5.00175C8.23281 3.86175 9.19581 3 10.3426 3H13.6576Z" fill="#FDBD22"/>
<path fill-rule="evenodd" clip-rule="evenodd" d="M11.9953 14.435C12.2562 14.435 12.4682 14.223 12.4682 13.9621C12.4682 13.9132 12.4331 13.8822 12.3997 13.8496C12.3214 13.7722 12.2211 13.7078 12.1143 13.6442C11.8502 13.4885 11.5477 13.3523 11.273 13.2015C10.5401 12.8004 10.0224 12.2656 10.0224 11.5025C10.0224 10.6783 10.5295 9.97148 11.2477 9.67636C11.2763 9.28912 11.6007 8.9834 11.9953 8.9834C12.3899 8.9834 12.7144 9.28912 12.7429 9.67636C13.263 9.88996 13.6715 10.3188 13.8582 10.852C13.9943 11.2425 13.788 11.6705 13.3975 11.8074C13.007 11.9436 12.579 11.7373 12.4421 11.3468C12.3777 11.1617 12.2016 11.0297 11.9953 11.0297C11.7344 11.0297 11.5225 11.2416 11.5225 11.5025C11.5225 11.5514 11.5575 11.5824 11.5909 11.615C11.6692 11.6917 11.7695 11.7569 11.8763 11.8205C12.1404 11.9762 12.4429 12.1123 12.7176 12.2623C13.4505 12.6642 13.9682 13.1991 13.9682 13.9621C13.9682 14.7863 13.4611 15.4932 12.7429 15.7875C12.7144 16.1755 12.3899 16.4813 11.9953 16.4813C11.6007 16.4813 11.2763 16.1755 11.2477 15.7875C10.7349 15.5771 10.3306 15.1573 10.1406 14.6347C9.99957 14.245 10.2009 13.8146 10.5898 13.6735C10.9787 13.5325 11.4091 13.7339 11.5502 14.1227C11.6162 14.3045 11.7907 14.435 11.9953 14.435Z" fill="#E4E6E7"/>
<path fill-rule="evenodd" clip-rule="evenodd" d="M7.62613 19.1254H3.85799C3.0368 19.1254 2.28083 18.6775 1.88612 17.9572C1.49141 17.2369 1.51984 16.3586 1.96138 15.6656L2.02911 15.5596C1.97727 15.4871 1.9296 15.4115 1.88612 15.3322C1.49141 14.6119 1.51984 13.7336 1.96138 13.0406L2.02911 12.9346C1.97727 12.8621 1.9296 12.7865 1.88612 12.7072C1.49141 11.9869 1.51984 11.1086 1.96138 10.4156L2.02911 10.3096C1.97727 10.2371 1.9296 10.1615 1.88612 10.0822C1.49141 9.36195 1.51984 8.48363 1.96138 7.79063L3.39471 5.541C3.80782 4.89263 4.52365 4.49993 5.29133 4.49993H8.21736C8.52845 3.61845 9.36804 3 10.3389 3H13.6522C14.623 3 15.4626 3.61845 15.7737 4.49993H18.6998C19.4674 4.49993 20.1833 4.89263 20.5964 5.541L22.0297 7.79063C22.4712 8.48363 22.4997 9.36195 22.105 10.0822C22.0615 10.1615 22.0138 10.2371 21.962 10.3096L22.0297 10.4156C22.4712 11.1086 22.4997 11.9869 22.105 12.7072C22.0615 12.7865 22.0138 12.8621 21.962 12.9346L22.0297 13.0406C22.4712 13.7336 22.4997 14.6119 22.105 15.3322C22.0615 15.4115 22.0138 15.4871 21.962 15.5596L22.0297 15.6656C22.4712 16.3586 22.4997 17.2369 22.105 17.9572C21.7103 18.6775 20.9543 19.1254 20.1331 19.1254H16.3649C16.2546 19.4388 16.0748 19.7265 15.8356 19.9659C15.4133 20.388 14.8413 20.6253 14.2451 20.6253H9.74603C9.14978 20.6253 8.57779 20.388 8.15548 19.9659C7.91631 19.7265 7.73652 19.4388 7.62613 19.1254ZM16.4937 17.6249H20.1331C20.4065 17.6249 20.6583 17.4758 20.7904 17.2359C20.9217 16.996 20.9125 16.703 20.7653 16.472L20.731 16.419C20.5387 16.472 20.338 16.5004 20.1331 16.5004H16.4937V17.6249ZM13.6522 4.49993H10.3389C9.95676 4.49993 9.63564 4.78762 9.59383 5.1672L9.00093 10.5007C8.99842 10.528 8.99675 10.5558 8.99675 10.5831V18.3752C8.99675 18.5741 9.07536 18.7647 9.21585 18.9054C9.35717 19.0461 9.54784 19.1254 9.74603 19.1254H14.2451C14.4432 19.1254 14.6339 19.0461 14.7752 18.9054C14.9157 18.7647 14.9943 18.5741 14.9943 18.3752V10.5831C14.9943 10.5558 14.9927 10.528 14.9902 10.5002L14.3973 5.1672C14.3554 4.78762 14.0343 4.49993 13.6522 4.49993ZM11.9955 14.4534C12.2565 14.4534 12.4689 14.2413 12.4689 13.9804C12.4689 13.9316 12.4329 13.9006 12.4003 13.868C12.3217 13.7908 12.2213 13.7257 12.1143 13.6622C11.8509 13.5063 11.5481 13.3703 11.273 13.2196C10.5405 12.818 10.0228 12.283 10.0228 11.5202C10.0228 10.6954 10.5296 9.9888 11.2479 9.69375C11.2764 9.3063 11.6008 9.00023 11.9955 9.00023C12.3903 9.00023 12.7147 9.3063 12.7431 9.69375C13.2633 9.9069 13.6714 10.3364 13.8579 10.8692C13.9942 11.2604 13.7885 11.6882 13.3979 11.8247C13.0066 11.9612 12.5792 11.7549 12.4421 11.3643C12.3777 11.1795 12.2021 11.0467 11.9955 11.0467C11.7346 11.0467 11.5222 11.2588 11.5222 11.5202C11.5222 11.569 11.5582 11.5995 11.5908 11.6321C11.6694 11.7098 11.7698 11.7743 11.8768 11.8379C12.1402 11.9938 12.4429 12.1303 12.7181 12.2804C13.4506 12.6821 13.9683 13.217 13.9683 13.9804C13.9683 14.8046 13.4615 15.5118 12.7431 15.8063C12.7147 16.1943 12.3903 16.5004 11.9955 16.5004C11.6008 16.5004 11.2764 16.1943 11.2479 15.8063C10.7353 15.5963 10.3306 15.1758 10.1407 14.6529C9.99941 14.2639 10.2009 13.8334 10.5898 13.6922C10.9787 13.5509 11.4093 13.752 11.5507 14.141C11.6167 14.3232 11.7907 14.4534 11.9955 14.4534ZM16.4937 14.9999H20.1331C20.4065 14.9999 20.6583 14.8508 20.7904 14.6109C20.9217 14.371 20.9125 14.078 20.7653 13.847L20.731 13.794C20.5387 13.847 20.338 13.8754 20.1331 13.8754H16.4937V14.9999ZM7.99241 6.00038H5.29133C5.03543 6.00038 4.7971 6.1311 4.65912 6.34688L3.22579 8.59703C3.07861 8.82803 3.06941 9.12098 3.2007 9.3609C3.33283 9.60083 3.58454 9.74993 3.85799 9.74993H7.57596L7.99241 6.00038ZM7.49735 11.2504H3.85799C3.65311 11.2504 3.45241 11.222 3.26007 11.169L3.22579 11.222C3.07861 11.453 3.06941 11.746 3.2007 11.9859C3.33283 12.2258 3.58454 12.3749 3.85799 12.3749H7.49735V11.2504ZM16.4151 9.74993H20.1331C20.4065 9.74993 20.6583 9.60083 20.7904 9.3609C20.9217 9.12098 20.9125 8.82803 20.7653 8.59703L19.332 6.34688C19.194 6.1311 18.9556 6.00038 18.6998 6.00038H15.9987L16.4151 9.74993ZM7.49735 16.5004H3.85799C3.65311 16.5004 3.45241 16.472 3.26007 16.419L3.22579 16.472C3.07861 16.703 3.06941 16.996 3.2007 17.2359C3.33283 17.4758 3.58454 17.6249 3.85799 17.6249H7.49735V16.5004ZM7.49735 13.8754H3.85799C3.65311 13.8754 3.45241 13.847 3.26007 13.794L3.22579 13.847C3.07861 14.078 3.06941 14.371 3.2007 14.6109C3.33283 14.8508 3.58454 14.9999 3.85799 14.9999H7.49735V13.8754ZM16.4937 12.3749H20.1331C20.4065 12.3749 20.6583 12.2258 20.7904 11.9859C20.9217 11.746 20.9125 11.453 20.7653 11.222L20.731 11.169C20.5387 11.222 20.338 11.2504 20.1331 11.2504H16.4937V12.3749Z" fill="#2B2D42"/>
</svg>
