<svg width="24" height="24" viewBox="0 0 24 24" fill="none" xmlns="http://www.w3.org/2000/svg">
<g clip-path="url(#clip0_1486_13864)">
<path d="M18.476 21.1998H10.8V16.3998C10.8 15.7358 9.63601 15.1998 8.20001 15.1998C7.8645 15.1984 7.52964 15.2292 7.20001 15.2918V10.9358C8.46521 7.98579 10.6232 5.84179 12.54 4.89179C12.8819 5.09644 13.2736 5.203 13.672 5.19979H15.912C16.314 5.20259 16.7088 5.09316 17.052 4.88379C17.924 5.31579 21.856 7.56779 23.276 13.5998C24.876 20.3998 20.076 21.1998 18.476 21.1998Z" fill="#FFDC00"/>
<path d="M23.276 13.5998C21.856 7.56779 17.924 5.31579 17.052 4.88379C16.8339 5.01646 16.5932 5.10797 16.342 5.15379C17.7136 5.97299 20.842 8.35979 22.076 13.5998C23.676 20.3998 18.876 21.1998 17.276 21.1998H18.476C20.076 21.1998 24.876 20.3998 23.276 13.5998Z" fill="#FEC108"/>
<path d="M18.8 0.867414C18.804 1.74741 18.628 3.66741 17.22 4.76741C17.1673 4.8106 17.1111 4.84939 17.052 4.88341C16.7088 5.09278 16.314 5.20222 15.912 5.19941H13.672C13.2735 5.20263 12.8819 5.09607 12.54 4.89141C12.48 4.85141 12.42 4.81141 12.364 4.76741C10.956 3.66741 10.784 1.74741 10.784 0.867414C10.7847 0.73438 10.8514 0.610381 10.9621 0.536586C11.0728 0.462792 11.2129 0.448859 11.336 0.499414C11.848 0.715414 12.02 1.19941 12.796 1.19941C13.792 1.19941 13.792 0.399414 14.788 0.399414C15.784 0.399414 15.788 1.19941 16.788 1.19941C17.564 1.19941 17.736 0.711414 18.248 0.499414C18.3711 0.448859 18.5112 0.462792 18.6219 0.536586C18.7326 0.610381 18.7993 0.73438 18.8 0.867414Z" fill="#FFDC00"/>
<path d="M18.248 0.499736C18.0149 0.619809 17.7973 0.767833 17.6 0.940536C17.5944 1.84894 17.3924 3.69614 16.0208 4.76774C15.9681 4.81092 15.9119 4.84971 15.8528 4.88374C15.5096 5.0931 15.1148 5.20254 14.7128 5.19974H15.9128C16.3148 5.20254 16.7096 5.0931 17.0528 4.88374C17.1119 4.84971 17.1681 4.81092 17.2208 4.76774C18.628 3.66774 18.804 1.74774 18.8 0.867736C18.7993 0.734702 18.7326 0.610703 18.6219 0.536908C18.5112 0.463113 18.3711 0.44918 18.248 0.499736Z" fill="#FEC108"/>
<path d="M6.99999 4.4C8.43593 4.4 9.59999 3.86274 9.59999 3.2C9.59999 2.53726 8.43593 2 6.99999 2C5.56405 2 4.39999 2.53726 4.39999 3.2C4.39999 3.86274 5.56405 4.4 6.99999 4.4Z" fill="#FFDC00"/>
<path d="M9.59999 3.19922V7.19122C8.59277 8.29355 7.78111 9.55974 7.19999 10.9352V8.79922C7.19999 8.13522 6.03599 7.59922 4.59999 7.59922C4.53199 7.59922 4.46799 7.59922 4.39999 7.60322V3.19922C4.39999 3.86322 5.56399 4.39922 6.99999 4.39922C8.43599 4.39922 9.59999 3.86322 9.59999 3.19922Z" fill="#FF9801"/>
<path d="M7.2 8.79961C7.2 9.46361 6.036 9.99961 4.6 9.99961C3.164 9.99961 2 9.46361 2 8.79961C2 8.16761 3.056 7.65161 4.4 7.60361C4.468 7.59961 4.532 7.59961 4.6 7.59961C6.036 7.59961 7.2 8.13561 7.2 8.79961Z" fill="#FFDC00"/>
<path d="M7.2 8.7998V15.2918C6.26 15.4718 5.6 15.8998 5.6 16.3998V20.3998C5.6 19.7358 4.436 19.1998 3 19.1998C2.66449 19.1984 2.32963 19.2292 2 19.2918V8.7998C2 9.4638 3.164 9.9998 4.6 9.9998C6.036 9.9998 7.2 9.4638 7.2 8.7998Z" fill="#FF9801"/>
<path d="M5.59999 20.3993C5.59999 21.0633 4.43599 21.5993 2.99999 21.5993C1.56399 21.5993 0.399994 21.0633 0.399994 20.3993C0.399994 19.8993 1.05999 19.4713 1.99999 19.2913C2.32962 19.2287 2.66449 19.1979 2.99999 19.1993C4.43599 19.1993 5.59999 19.7353 5.59999 20.3993Z" fill="#FFEB3A"/>
<path d="M5.59999 20.3994V22.3994C5.59999 23.0634 4.43599 23.5994 2.99999 23.5994C1.56399 23.5994 0.399994 23.0634 0.399994 22.3994V20.3994C0.399994 21.0634 1.56399 21.5994 2.99999 21.5994C4.43599 21.5994 5.59999 21.0634 5.59999 20.3994Z" fill="#FFDC00"/>
<path d="M10.8 16.3993C10.8 17.0633 9.63601 17.5993 8.20001 17.5993C6.76401 17.5993 5.60001 17.0633 5.60001 16.3993C5.60001 15.8993 6.26001 15.4713 7.20001 15.2913C7.52963 15.2287 7.8645 15.1979 8.20001 15.1993C9.63601 15.1993 10.8 15.7353 10.8 16.3993Z" fill="#FFEB3A"/>
<path d="M10.8 16.3994V21.5994C10.8 22.2634 9.63601 22.7994 8.20001 22.7994C6.76401 22.7994 5.60001 22.2634 5.60001 21.5994V16.3994C5.60001 17.0634 6.76401 17.5994 8.20001 17.5994C9.63601 17.5994 10.8 17.0634 10.8 16.3994Z" fill="#FFDC00"/>
<path d="M18.9064 5.62492C20.8908 5.77452 21.5296 6.60012 21.5484 6.62492C21.6737 6.80382 21.9194 6.84911 22.1002 6.72667C22.2811 6.60423 22.3303 6.35933 22.2108 6.17652C22.182 6.13332 21.6264 5.33972 20.0108 4.97652C20.4239 4.63692 20.6683 4.13398 20.68 3.59932C20.6265 2.7129 20.0094 1.96123 19.1504 1.73612C19.1856 1.44718 19.2035 1.1564 19.204 0.865322C19.2036 0.597162 19.0688 0.347053 18.8451 0.199197C18.6214 0.0513402 18.3385 0.0254048 18.0916 0.130122C17.8897 0.221552 17.7021 0.341879 17.5348 0.487322C17.3385 0.68905 17.0683 0.801767 16.7868 0.799322C16.5058 0.8013 16.2361 0.68863 16.04 0.487322C15.3351 -0.163743 14.2481 -0.163743 13.5432 0.487322C13.3469 0.689489 13.0762 0.802268 12.7944 0.799322C12.5134 0.801657 12.2437 0.688922 12.048 0.487322C11.8811 0.342191 11.6941 0.222009 11.4928 0.130522C11.2461 0.0265066 10.9637 0.0527962 10.7405 0.200565C10.5172 0.348334 10.3827 0.597989 10.382 0.865722C10.382 1.86092 10.5788 3.63612 11.8248 4.82812C11.17 5.2263 10.5584 5.69161 10 6.21652V3.19932C10 2.28732 8.71 1.59932 7 1.59932C5.29 1.59932 4 2.28732 4 3.19932V7.22932C2.5972 7.36932 1.6 7.99932 1.6 8.79932V18.9733C0.6336 19.2329 0 19.7593 0 20.3993V22.3993C0 23.3113 1.29 23.9993 3 23.9993C4.5292 23.9993 5.72 23.4485 5.9548 22.6793C6.64526 23.0449 7.41912 23.2241 8.2 23.1993C9.91 23.1993 11.2 22.5113 11.2 21.5993V16.3993C11.2 15.4873 9.91 14.7993 8.2 14.7993C7.99962 14.7992 7.79937 14.8092 7.6 14.8293V8.79932C7.6 7.92332 6.4092 7.25612 4.8 7.20452V4.30692C5.48049 4.6528 6.23699 4.82212 7 4.79932C7.76301 4.82212 8.51951 4.6528 9.2 4.30692V7.03492C8.9368 7.32972 8.6716 7.65092 8.4104 8.00692C8.29079 8.18504 8.333 8.42579 8.50607 8.55259C8.67914 8.67939 8.92143 8.64706 9.0552 8.47932C9.31211 8.13152 9.58743 7.79771 9.88 7.47932C9.8832 7.47572 9.886 7.47212 9.8892 7.46892C10.6528 6.62032 11.5494 5.90171 12.544 5.34132C12.7401 5.43591 12.9475 5.50487 13.1612 5.54652L12.13 6.50892C11.9685 6.65981 11.9599 6.91303 12.1108 7.07452C12.2617 7.23601 12.5149 7.24461 12.6764 7.09372L14.2764 5.60132H14.404V6.80132C14.404 7.02224 14.5831 7.20132 14.804 7.20132C15.0249 7.20132 15.204 7.02224 15.204 6.80132V5.59932H15.3316L16.9316 7.09172C17.0361 7.18933 17.1847 7.22379 17.3214 7.18212C17.4582 7.14045 17.5623 7.02899 17.5946 6.88972C17.6269 6.75045 17.5825 6.60453 17.478 6.50692L16.44 5.54052C16.6524 5.49848 16.8585 5.42925 17.0532 5.33452C18.1104 5.90652 21.5856 8.16652 22.8872 13.6909C23.4532 16.0957 23.2492 17.9353 22.2812 19.1573C21.0428 20.7193 18.894 20.7993 18.476 20.7993H12.8C12.5791 20.7993 12.4 20.9784 12.4 21.1993C12.4 21.4202 12.5791 21.5993 12.8 21.5993H18.476C19.156 21.5993 21.478 21.4589 22.908 19.6541C24.0352 18.2305 24.2904 16.1625 23.6656 13.5077C22.68 9.31932 20.4888 6.89252 18.9064 5.62492ZM3 19.5993C4.3228 19.5993 5.2 20.0793 5.2 20.3993C5.2 20.7193 4.3228 21.1993 3 21.1993C1.6772 21.1993 0.8 20.7193 0.8 20.3993C0.8 20.0793 1.6772 19.5993 3 19.5993ZM3 23.1993C1.6772 23.1993 0.8 22.7193 0.8 22.3993V21.5069C1.48049 21.8528 2.23699 22.0221 3 21.9993C3.76301 22.0221 4.51951 21.8528 5.2 21.5069V22.3993C5.2 22.7193 4.3228 23.1993 3 23.1993ZM8.2 22.3993C6.8772 22.3993 6 21.9193 6 21.5993V17.5069C6.68049 17.8528 7.43699 18.0221 8.2 17.9993C8.96301 18.0221 9.71951 17.8528 10.4 17.5069V21.5993C10.4 21.9193 9.5228 22.3993 8.2 22.3993ZM10.4 16.3993C10.4 16.7193 9.5228 17.1993 8.2 17.1993C6.8772 17.1993 6 16.7193 6 16.3993C6 16.0793 6.8772 15.5993 8.2 15.5993C9.5228 15.5993 10.4 16.0793 10.4 16.3993ZM5.2 16.3993V19.2917C4.51951 18.9458 3.76301 18.7765 3 18.7993C2.79962 18.7992 2.59937 18.8092 2.4 18.8293V9.90692C3.08049 10.2528 3.83699 10.4221 4.6 10.3993C5.36301 10.4221 6.11951 10.2528 6.8 9.90692V14.9733C5.8336 15.2329 5.2 15.7593 5.2 16.3993ZM6.8 8.79932C6.8 9.11932 5.9228 9.59932 4.6 9.59932C3.2772 9.59932 2.4 9.11932 2.4 8.79932C2.4 8.47932 3.2772 7.99932 4.6 7.99932C5.9228 7.99932 6.8 8.47932 6.8 8.79932ZM7 3.99932C5.6772 3.99932 4.8 3.51932 4.8 3.19932C4.8 2.87932 5.6772 2.39932 7 2.39932C8.3228 2.39932 9.2 2.87932 9.2 3.19932C9.2 3.51932 8.3228 3.99932 7 3.99932ZM19.88 3.59932C19.88 4.25492 19.17 4.79292 18.28 4.79932C18.1311 4.79838 17.9828 4.78135 17.8376 4.74852C18.418 4.12904 18.8215 3.36513 19.006 2.53652C19.4875 2.67839 19.8338 3.09951 19.88 3.59932ZM11.5472 1.11132C11.885 1.42786 12.3315 1.60255 12.7944 1.59932C13.2576 1.6028 13.7044 1.42808 14.0424 1.11132C14.2401 0.911698 14.5094 0.799389 14.7904 0.799389C15.0714 0.799389 15.3407 0.911698 15.5384 1.11132C15.8764 1.42832 16.3234 1.60307 16.7868 1.59932C17.2501 1.6029 17.6971 1.42818 18.0352 1.11132C18.1461 1.01335 18.2694 0.930499 18.402 0.864922C18.402 1.60772 18.264 3.44412 16.9752 4.45092C16.6853 4.66868 16.3338 4.78897 15.9712 4.79452C16.3175 4.19977 16.5915 3.56582 16.7876 2.90612C16.8259 2.76836 16.7878 2.62063 16.6876 2.51858C16.5875 2.41653 16.4405 2.37567 16.302 2.41138C16.1636 2.4471 16.0547 2.55396 16.0164 2.69172C15.7949 3.44363 15.4543 4.15518 15.0076 4.79932H14.5964C14.1506 4.15461 13.81 3.44323 13.5872 2.69172C13.5279 2.47887 13.3073 2.35441 13.0944 2.41372C12.8816 2.47304 12.7571 2.69367 12.8164 2.90652C13.0126 3.56679 13.287 4.20127 13.6336 4.79652C13.2638 4.79462 12.9044 4.67357 12.6088 4.45132C11.32 3.44492 11.182 1.60852 11.182 0.868122C11.3146 0.93163 11.4375 1.0135 11.5472 1.11132Z" fill="black"/>
<path d="M21.654 18.6605C22.1281 18.0086 22.385 17.2241 22.3884 16.4181C22.3935 16.3121 22.3563 16.2085 22.2849 16.1299C22.2136 16.0514 22.114 16.0044 22.008 15.9993C21.7882 15.9911 21.6021 16.1601 21.5892 16.3797C21.5922 17.0185 21.3954 17.6423 21.0264 18.1637C20.246 19.1493 18.7652 19.1993 18.476 19.1993C18.2551 19.1993 18.076 19.3784 18.076 19.5993C18.076 19.8202 18.2551 19.9993 18.476 19.9993C18.8296 19.9993 20.6444 19.9349 21.654 18.6605Z" fill="black"/>
<path d="M13.6 13.5988C13.6 13.3779 13.4209 13.1988 13.2 13.1988C12.9791 13.1988 12.8 13.3779 12.8 13.5988C12.8 14.4825 13.5163 15.1988 14.4 15.1988V15.5988C14.4 15.8197 14.5791 15.9988 14.8 15.9988C15.0209 15.9988 15.2 15.8197 15.2 15.5988V15.1988C16.0836 15.1988 16.8 14.4825 16.8 13.5988C16.8 12.7152 16.0836 11.9988 15.2 11.9988V10.3988C15.6418 10.3988 16 10.757 16 11.1988C16 11.4197 16.1791 11.5988 16.4 11.5988C16.6209 11.5988 16.8 11.4197 16.8 11.1988C16.8 10.3152 16.0836 9.59883 15.2 9.59883V9.19883C15.2 8.97791 15.0209 8.79883 14.8 8.79883C14.5791 8.79883 14.4 8.97791 14.4 9.19883V9.59883C13.5163 9.59883 12.8 10.3152 12.8 11.1988C12.8 12.0825 13.5163 12.7988 14.4 12.7988V14.3988C13.9582 14.3988 13.6 14.0407 13.6 13.5988ZM13.6 11.1988C13.6 10.757 13.9582 10.3988 14.4 10.3988V11.9988C13.9582 11.9988 13.6 11.6407 13.6 11.1988ZM15.2 12.7988C15.6418 12.7988 16 13.157 16 13.5988C16 14.0407 15.6418 14.3988 15.2 14.3988V12.7988Z" fill="black"/>
</g>
<defs>
<clipPath id="clip0_1486_13864">
<rect width="24" height="24" fill="white"/>
</clipPath>
</defs>
</svg>
