<svg id="Layer_1" enable-background="new 0 0 512 512" viewBox="0 0 512 512" xmlns="http://www.w3.org/2000/svg"><path d="m480.258 125.425h-82.551l-1.585-20.664c-.533-6.94-5.895-12.174-12.471-12.174h-12.812v-14.807c0-21.631-17.598-39.229-39.229-39.229-19.463 0-35.654 14.25-38.705 32.864-.664-.113-1.342-.184-2.038-.184h-12.812v-14.806c0-21.631-17.598-39.229-39.229-39.229s-39.226 17.598-39.226 39.229v14.807h-15.604c-6.576 0-11.938 5.234-12.471 12.175l-3.223 42.019h-44.359l-15.638-64.776c-2.239-9.281-7.331-17.263-14.724-23.083-7.423-5.845-16.372-8.934-25.882-8.934h-35.957c-13.091 0-23.742 10.65-23.742 23.742 0 13.091 10.65 23.741 23.741 23.741h31.559l57.335 237.508c-6.892 3.283-13.251 7.761-18.663 13.175-12.646 12.645-19.61 29.412-19.61 47.212s6.964 34.567 19.609 47.212c10.022 10.022 22.801 16.518 36.572 18.741 2.396 30.638 28.074 54.84 59.316 54.84 30.947 0 56.443-23.745 59.251-53.971h72.11c2.808 30.226 28.304 53.971 59.251 53.971 32.818 0 59.519-26.7 59.519-59.518s-26.7-59.518-59.519-59.518c-16.474 0-31.403 6.73-42.19 17.582h-106.231c-10.787-10.852-25.716-17.582-42.19-17.582s-31.402 6.73-42.189 17.582h-6.486c-5.12 0-9.965-2.024-13.64-5.699-3.675-3.676-5.699-8.52-5.699-13.64s2.024-9.964 5.699-13.639c3.676-3.676 8.52-5.7 13.64-5.7h242.751c29.749 0 55.636-19.128 64.416-47.599l46.102-149.464c1.026-2.696 1.547-5.535 1.547-8.442-.001-13.092-10.652-23.742-23.743-23.742zm-319.348 96.369c-.292 3.804 1.038 7.699 3.558 10.418 2.339 2.525 5.504 3.916 8.912 3.916h80.851l-.539 7.018c-.293 3.804 1.036 7.699 3.556 10.42 2.339 2.526 5.505 3.917 8.914 3.917h128.105c3.408 0 6.574-1.391 8.913-3.916 2.519-2.72 3.849-6.615 3.558-10.419l-5.388-70.24h46.789l-37.083 120.226c-2.674 8.67-10 14.056-19.12 14.056h-224.113l-32.417-134.281h29.254zm219.458-113.207 10.195 132.896h-120.696l.411-5.355h31.208c3.408 0 6.574-1.391 8.913-3.916 1.759-1.899 2.921-4.374 3.374-6.987h28.682c4.418 0 8-3.582 8-8s-3.582-8-8-8h-29.462l-6-78.223c.877-1.284 1.392-2.835 1.392-4.507v-17.908h46.457v17.908c0 4.418 3.582 8 8 8s8-3.582 8-8v-17.908zm-48.757-54.036c12.809 0 23.229 10.42 23.229 23.229v14.807h-46.457v-14.807c-.001-12.809 10.419-23.229 23.228-23.229zm-116.011 1.874c0-12.808 10.42-23.229 23.229-23.229s23.229 10.42 23.229 23.229v14.807h-46.457zm-28.32 30.806h12.321v17.908c0 4.418 3.582 8 8 8s8-3.582 8-8v-17.908h46.457v17.908c0 4.418 3.582 8 8 8s8-3.582 8-8v-17.908h9.528l10.195 132.896h-120.697l1.247-16.258h71.34c4.418 0 8-3.582 8-8s-3.582-8-8-8h-70.112zm201.192 304.537c23.996 0 43.519 19.522 43.519 43.518s-19.522 43.518-43.519 43.518-43.519-19.522-43.519-43.518 19.523-43.518 43.519-43.518zm-53.56 17.582c-2.35 4.833-4.05 10.033-5.02 15.483h-73.452c-.97-5.45-2.67-10.651-5.02-15.483zm-137.052-17.582c23.996 0 43.519 19.522 43.519 43.518s-19.522 43.518-43.519 43.518-43.518-19.522-43.518-43.518 19.522-43.518 43.518-43.518zm289.598-239.745c-.078.196-.148.396-.211.598l-46.186 149.737c-6.698 21.721-26.441 36.314-49.127 36.314h-242.75c-9.394 0-18.256 3.689-24.954 10.387-6.696 6.697-10.385 15.559-10.385 24.952s3.688 18.255 10.386 24.954c5.562 5.562 12.621 9.041 20.235 10.062-2.294 4.646-3.998 9.63-5.016 14.859-9.835-1.926-18.937-6.749-26.165-13.976-9.623-9.623-14.923-22.372-14.923-35.898s5.3-26.276 14.924-35.899c5.443-5.444 12.137-9.645 19.354-12.146 3.892-1.349 6.123-5.433 5.156-9.437l-59.99-248.506c-.551-2.279-1.85-4.317-3.658-5.74-1.803-1.418-4.032-2.167-6.448-2.167h-35.958c-4.269 0-7.741-3.473-7.741-7.741 0-4.269 3.473-7.742 7.741-7.742h35.958c5.883 0 11.41 1.903 15.984 5.505 4.544 3.577 7.68 8.51 9.068 14.266l17.116 70.898c.867 3.592 4.081 6.123 7.776 6.123h49.43l-1.188 15.483h-40.643c-2.452 0-4.769 1.125-6.285 3.051-1.518 1.927-2.066 4.442-1.491 6.826l36.279 150.281c.867 3.592 4.081 6.123 7.776 6.123h230.411c16.155 0 29.662-9.947 34.409-25.34l40.277-130.583c.749-2.427.3-5.065-1.208-7.108s-3.896-3.25-6.437-3.25h-58.855l-1.188-15.483h81.324c4.269 0 7.741 3.473 7.741 7.741.004.991-.178 1.952-.538 2.856zm-289.598 312.239c15.978 0 28.977-12.999 28.977-28.976s-12.999-28.976-28.977-28.976-28.976 12.999-28.976 28.976 12.998 28.976 28.976 28.976zm0-41.952c7.155 0 12.977 5.821 12.977 12.976s-5.821 12.976-12.977 12.976c-7.154 0-12.976-5.821-12.976-12.976s5.822-12.976 12.976-12.976zm190.612 41.952c15.978 0 28.976-12.999 28.976-28.976s-12.998-28.976-28.976-28.976-28.976 12.999-28.976 28.976 12.999 28.976 28.976 28.976zm0-41.952c7.155 0 12.976 5.821 12.976 12.976s-5.82 12.976-12.976 12.976-12.976-5.821-12.976-12.976 5.821-12.976 12.976-12.976z"/></svg>