<svg width="24" height="24" viewBox="0 0 24 24" fill="none" xmlns="http://www.w3.org/2000/svg">
<g clip-path="url(#clip0_1443_8312)">
<path fill-rule="evenodd" clip-rule="evenodd" d="M5.08872 0.506836C3.46371 0.506836 2.14563 1.82496 2.14563 3.45002C2.14563 4.22866 2.44727 4.9369 2.94152 5.46307C3.47833 6.03574 4.24235 6.39452 5.08872 6.39452C5.93646 6.39452 6.69911 6.03574 7.23593 5.46307C7.73022 4.9369 8.03182 4.22866 8.03182 3.45002C8.03182 1.82491 6.71505 0.506836 5.08872 0.506836Z" fill="#FFDCD5"/>
<path fill-rule="evenodd" clip-rule="evenodd" d="M2.9415 5.46289C1.82006 5.94523 0.46875 6.76241 0.46875 8.91631V10.7234H5.0887H9.70866V8.91631C9.70866 6.76241 8.3587 5.94523 7.23591 5.46289C6.69909 6.03556 5.93644 6.39434 5.0887 6.39434C4.24228 6.39434 3.47827 6.03556 2.9415 5.46289Z" fill="#D5EA7A"/>
<path fill-rule="evenodd" clip-rule="evenodd" d="M18.91 0.506836C17.285 0.506836 15.9669 1.82496 15.9669 3.45002C15.9669 4.22866 16.2699 4.9369 16.7628 5.46307C17.2996 6.03574 18.0636 6.39452 18.91 6.39452C19.7577 6.39452 20.5204 6.03574 21.0585 5.46307C21.5515 4.9369 21.8544 4.22866 21.8544 3.45002C21.8544 1.82491 20.5363 0.506836 18.91 0.506836Z" fill="#FFDCD5"/>
<path fill-rule="evenodd" clip-rule="evenodd" d="M16.7628 5.46289C15.6414 5.94523 14.29 6.76241 14.29 8.91631V10.7234H18.91H23.5313V8.91631C23.5313 6.76241 22.1799 5.94523 21.0585 5.46289C20.5204 6.03556 19.7577 6.39434 18.91 6.39434C18.0636 6.39434 17.2996 6.03556 16.7628 5.46289Z" fill="#FFCD69"/>
<path fill-rule="evenodd" clip-rule="evenodd" d="M5.5431 14.9688C4.1878 14.9688 3.08765 16.069 3.08765 17.4243C3.08765 18.0741 3.34012 18.6654 3.75201 19.1038C4.1998 19.5822 4.83758 19.8798 5.5431 19.8798C6.24997 19.8798 6.88644 19.5821 7.33555 19.1038C7.74744 18.6654 7.9986 18.074 7.9986 17.4243C7.99855 16.069 6.89971 14.9688 5.5431 14.9688Z" fill="#FFDCD5"/>
<path fill-rule="evenodd" clip-rule="evenodd" d="M3.75211 19.1045C2.81668 19.5071 1.68994 20.1874 1.68994 21.9852V23.492H5.54321H9.39778V21.9852C9.39778 20.1874 8.27105 19.5071 7.33561 19.1045C6.8865 19.5829 6.25003 19.8805 5.54316 19.8805C4.83764 19.8805 4.19986 19.5829 3.75211 19.1045Z" fill="#A0C8FF"/>
<path fill-rule="evenodd" clip-rule="evenodd" d="M15.28 11.7083C16.1729 10.8459 16.1995 9.40822 15.3371 8.5153C14.4748 7.62238 13.0371 7.5958 12.1443 8.45816L11.7709 8.81825L11.3975 8.45816C10.5047 7.5958 9.06831 7.62238 8.20595 8.5153C7.34359 9.40822 7.36886 10.8459 8.26309 11.7083L11.7709 15.0939L15.28 11.7083Z" fill="#FF7B79"/>
<path fill-rule="evenodd" clip-rule="evenodd" d="M18.0742 14.9688C19.4308 14.9688 20.5297 16.069 20.5297 17.4243C20.5297 18.0741 20.2772 18.6654 19.8653 19.1038C19.4175 19.5822 18.7811 19.8798 18.0742 19.8798C17.3674 19.8798 16.7309 19.5821 16.2831 19.1038C15.8712 18.6654 15.6188 18.074 15.6188 17.4243C15.6188 16.069 16.7176 14.9688 18.0742 14.9688Z" fill="#FFDCD5"/>
<path fill-rule="evenodd" clip-rule="evenodd" d="M19.8654 19.1045C20.8021 19.5071 21.9288 20.1874 21.9288 21.9852V23.492H18.0742H14.2209V21.9852C14.2209 20.1874 15.3477 19.5071 16.2831 19.1045C16.7309 19.5829 17.3673 19.8805 18.0742 19.8805C18.7811 19.8805 19.4176 19.5829 19.8654 19.1045Z" fill="#A0C8FF"/>
<path d="M3.83699 11.1924H3.83971C4.09855 11.1924 4.30715 10.9825 4.30715 10.7236C4.30715 10.4648 4.09588 10.2549 3.83704 10.2549C3.57819 10.2549 3.36829 10.4648 3.36829 10.7236C3.36829 10.9825 3.57815 11.1924 3.83699 11.1924Z" fill="black"/>
<path d="M21.7833 5.28884C22.1244 4.7577 22.3232 4.12685 22.3232 3.45007C22.3232 1.54038 20.7456 -0.00789843 18.8248 0.0391641C17.0541 0.0825234 15.5972 1.49646 15.5031 3.26515C15.4634 4.0113 15.6657 4.70871 16.0371 5.28771C15.2599 5.69384 14.4705 6.30729 14.076 7.38265C13.2782 7.27577 12.441 7.51976 11.8187 8.1207L11.8185 8.12093C11.7919 8.14662 11.7497 8.14662 11.7231 8.12093C11.2166 7.63179 10.5677 7.37866 9.91359 7.35907C9.51473 6.29538 8.73089 5.6883 7.96186 5.28729C8.30222 4.75643 8.50059 4.12615 8.50059 3.45002C8.50059 1.56865 6.97008 0.0380859 5.08875 0.0380859C3.20742 0.0380859 1.67681 1.56869 1.67681 3.45007C1.67681 4.1269 1.87556 4.75774 2.21653 5.28893C1.14534 5.85387 0 6.85259 0 8.91654V10.7237C0 10.9825 0.209906 11.1924 0.46875 11.1924H1.98347C2.24231 11.1924 2.45222 10.9825 2.45222 10.7237C2.45222 10.4648 2.24231 10.2549 1.98347 10.2549H0.9375V8.91654C0.9375 7.2386 1.82306 6.50712 2.84719 6.02013C3.44723 6.54457 4.23117 6.86337 5.08866 6.86337C5.94623 6.86337 6.73027 6.54452 7.33031 6.01999C7.97109 6.32482 8.60536 6.75227 8.9565 7.50176C8.55638 7.63652 8.18166 7.86551 7.86862 8.18965C7.36448 8.71169 7.09402 9.40137 7.107 10.1316C7.10775 10.1729 7.10967 10.214 7.1122 10.255H5.94169C5.68284 10.255 5.47294 10.4649 5.47294 10.7237C5.47294 10.9826 5.68284 11.1925 5.94169 11.1925H7.33992C7.48027 11.5092 7.68131 11.7986 7.93744 12.0456L11.3406 15.3302V21.37H9.82238C9.62986 20.0582 8.8267 19.3547 8.04942 18.9293C8.3145 18.4894 8.46731 17.9746 8.46731 17.4246C8.46731 15.8121 7.15552 14.5003 5.54306 14.5003C3.93061 14.5003 2.61891 15.8121 2.61891 17.4245C2.61891 17.9747 2.77181 18.4898 3.03708 18.9297C2.14641 19.4175 1.22109 20.2696 1.22109 21.9848V23.4917C1.22109 23.7505 1.431 23.9604 1.68984 23.9604H9.39773C9.65658 23.9604 9.86648 23.7505 9.86648 23.4917V22.3074H13.7522V23.4917C13.7522 23.7505 13.9621 23.9604 14.221 23.9604H21.9289C22.1877 23.9604 22.3976 23.7505 22.3976 23.4917V21.9848C22.3976 20.2689 21.4718 19.417 20.5805 18.9295C20.8456 18.4895 20.9985 17.9746 20.9985 17.4245C20.9985 15.8121 19.6868 14.5002 18.0743 14.5002C16.4618 14.5002 15.15 15.8121 15.15 17.4245C15.15 17.9747 15.3029 18.4898 15.5682 18.9297C14.7912 19.3553 13.9886 20.0587 13.7962 21.3699H12.2781V15.2558L15.6055 12.0454C15.8613 11.7984 16.0621 11.5091 16.2023 11.1924H17.8323C18.0672 11.1924 18.2772 11.0258 18.3107 10.7932C18.3524 10.5034 18.1287 10.2549 17.847 10.2549H16.4302C16.4327 10.214 16.4346 10.173 16.4354 10.1317C16.4486 9.40127 16.1783 8.71155 15.6742 8.1896C15.4644 7.97238 15.2268 7.79829 14.9725 7.66596C15.3035 6.8164 15.9811 6.3484 16.6686 6.02018C17.2687 6.54457 18.0525 6.86332 18.91 6.86332C19.7679 6.86332 20.5522 6.54448 21.1525 6.01995C22.1768 6.50698 23.0625 7.23846 23.0625 8.91654V10.2549H21.8199C21.585 10.2549 21.375 10.4216 21.3415 10.6541C21.2998 10.9438 21.5235 11.1924 21.8052 11.1924H23.5312C23.7901 11.1924 24 10.9826 24 10.7237V8.91654C24 6.85249 22.8545 5.85377 21.7833 5.28884ZM5.0887 5.92587C3.72436 5.92587 2.61436 4.81526 2.61436 3.45012C2.61436 2.08573 3.72436 0.97568 5.0887 0.97568C6.45305 0.97568 7.56305 2.08573 7.56305 3.45012C7.56305 4.81521 6.45305 5.92587 5.0887 5.92587ZM5.54311 15.4377C6.63858 15.4377 7.52986 16.329 7.52986 17.4245C7.52986 18.5201 6.63858 19.4113 5.54311 19.4113C4.44764 19.4113 3.55641 18.5201 3.55641 17.4245C3.55641 16.329 4.44764 15.4377 5.54311 15.4377ZM8.92894 23.0229H2.15859V21.9848C2.15859 20.6532 2.85033 20.0567 3.66164 19.6608C4.17056 20.0897 4.827 20.3488 5.54311 20.3488C6.25945 20.3488 6.91608 20.0895 7.42505 19.6604C8.23673 20.0563 8.92894 20.6528 8.92894 21.9849V23.0229ZM18.0742 15.4377C19.1697 15.4377 20.061 16.329 20.061 17.4245C20.061 18.5201 19.1697 19.4113 18.0742 19.4113C16.9787 19.4113 16.0875 18.5201 16.0875 17.4245C16.0875 16.329 16.9787 15.4377 18.0742 15.4377ZM14.6897 21.9848C14.6897 20.6532 15.3814 20.0567 16.1927 19.6608C16.7017 20.0897 17.3581 20.3488 18.0742 20.3488C18.7904 20.3488 19.4469 20.0896 19.9559 19.6607C20.7678 20.0563 21.4601 20.6527 21.4601 21.9849V23.023H14.6897V21.9848ZM14.9999 8.84093C15.6849 9.55024 15.6645 10.6853 14.9544 11.371L11.7708 14.4425L8.58834 11.3709C8.24606 11.0408 8.05289 10.5948 8.04441 10.1149C8.03583 9.63518 8.21297 9.18269 8.54306 8.84093C8.89388 8.4776 9.36225 8.29498 9.83109 8.29498C10.2782 8.29498 10.7259 8.46124 11.0721 8.7956L11.4454 9.15569C11.627 9.33082 11.9147 9.33082 12.0963 9.15569L12.4699 8.79541C13.179 8.11034 14.3141 8.13073 14.9999 8.84093ZM21.3804 3.61245C21.3013 4.84554 20.3053 5.84154 19.0722 5.92066C17.5806 6.01638 16.3457 4.78109 16.4408 3.28873C16.5194 2.05549 17.5155 1.05935 18.7487 0.980789C20.241 0.885727 21.4762 2.12074 21.3804 3.61245Z" fill="black"/>
</g>
<defs>
<clipPath id="clip0_1443_8312">
<rect width="24" height="24" fill="white"/>
</clipPath>
</defs>
</svg>
