<svg width="24" height="24" viewBox="0 0 24 24" fill="none" xmlns="http://www.w3.org/2000/svg">
<g clip-path="url(#clip0_1443_8481)">
<path d="M2.06165 8.91602H21.9386V23.6597H2.06165V8.91602Z" fill="#FFC73B"/>
<path d="M2.06165 8.91602H21.9386V11.8049H2.06165V8.91602Z" fill="#EFB025"/>
<path d="M0.370483 5.21289H23.6297V10.1758H0.370483V5.21289Z" fill="#FFC73B"/>
<path d="M11.9999 6.85835C11.8487 7.03413 11.7005 7.21229 11.5559 7.39265C11.017 8.06319 10.5237 8.76595 10.0778 9.49544C8.66189 11.8095 7.72164 14.395 7.32503 17.1008C6.72902 16.3101 6.17878 15.4546 5.68403 14.54C4.81336 15.108 3.96247 15.7575 3.14307 16.4883C3.56384 13.6181 4.49091 10.8594 5.86769 8.33638C6.60304 6.98817 7.4673 5.70716 8.4515 4.51257C8.56521 4.37378 8.68075 4.237 8.79775 4.10059C9.29507 4.52887 9.79184 4.95697 10.2892 5.38508C10.7973 5.8227 11.3056 6.26014 11.8137 6.69831C11.876 6.75105 11.9377 6.80488 11.9999 6.85835Z" fill="#FF4440"/>
<path d="M20.8571 16.4883C20.0377 15.7575 19.1868 15.108 18.3161 14.54C17.8214 15.4546 17.2711 16.3101 16.6751 17.1008C16.2785 14.395 15.3383 11.8095 13.9223 9.49544C13.4764 8.76595 12.9826 8.06319 12.4443 7.39265C12.2991 7.21229 12.1509 7.03413 11.9999 6.85835C12.062 6.80488 12.1238 6.7516 12.1859 6.69831C12.6946 6.26014 13.2029 5.82215 13.711 5.38508C14.2083 4.95642 14.7056 4.52887 15.2024 4.10059C15.3194 4.23645 15.435 4.37378 15.5487 4.51203C16.5329 5.70661 17.3971 6.98762 18.133 8.33638C19.5092 10.8594 20.4363 13.6181 20.8571 16.4883Z" fill="#FF4440"/>
<path d="M18.133 8.33705L13.9223 9.49611C13.4764 8.76662 12.9826 8.06386 12.4443 7.39332L12.1859 6.69898L11.9999 6.19819L13.711 5.38575L15.5487 4.5127C16.5329 5.70728 17.3971 6.98829 18.133 8.33705Z" fill="#EA2F2F"/>
<path d="M11.9999 6.19764L11.8137 6.69843L11.5559 7.39277C11.017 8.06331 10.5237 8.76607 10.0778 9.49556L5.86768 8.3365C6.60303 6.98829 7.46729 5.70728 8.45149 4.5127L10.2891 5.3852L11.9999 6.19764Z" fill="#EA2F2F"/>
<path d="M18.7199 0.576885L12.0001 3.76824L13.2908 7.23975L20.4631 5.2655C21.4013 5.00732 21.9166 4.0006 21.5775 3.08874L20.9855 1.49699C20.6464 0.584942 19.5987 0.159586 18.7199 0.576885Z" fill="#FF4440"/>
<path d="M5.28044 0.576885L12.0001 3.76824L10.7094 7.23975L3.53708 5.2655C2.59903 5.00732 2.08359 4.0006 2.4227 3.08874L3.01468 1.49699C3.35379 0.584942 4.40153 0.159586 5.28044 0.576885Z" fill="#FF4440"/>
<path d="M13.0537 2.5752H10.9465C10.3698 2.5752 9.9021 3.04267 9.9021 3.61945V6.68117C9.9021 7.25795 10.3698 7.72561 10.9465 7.72561H13.0537C13.6307 7.72561 14.0982 7.25795 14.0982 6.68117V3.61945C14.0982 3.04267 13.6305 2.5752 13.0537 2.5752Z" fill="#FF4440"/>
<path d="M10.1483 10.1758H13.8518V23.6601H10.1483V10.1758Z" fill="#FF4440"/>
<path d="M10.1483 10.1758H13.8518V11.8052H10.1483V10.1758Z" fill="#EA2F2F"/>
<path d="M23.6297 4.84262H21.6756C21.7323 4.76297 21.7838 4.67929 21.8288 4.59158C22.0874 4.08657 22.1223 3.49184 21.9248 2.95974L21.3326 1.36818C21.1352 0.836621 20.7205 0.409251 20.1952 0.195749C19.6693 -0.0179359 19.0736 -0.000907008 18.5607 0.242624L13.8743 2.46828C13.6427 2.30275 13.3594 2.20497 13.0536 2.20497H10.9465C10.6407 2.20497 10.3572 2.30294 10.1256 2.46846L5.43935 0.242441C4.92647 -0.000906985 4.33083 -0.0179359 3.80495 0.195749C3.27962 0.409251 2.86488 0.836621 2.66749 1.368L2.07533 2.95992C1.87775 3.49184 1.91273 4.08657 2.17146 4.59158C2.21632 4.67929 2.26795 4.76315 2.32472 4.84262H0.370424C0.165894 4.84262 0 5.00833 0 5.21304V7.87962C0 8.08415 0.165894 8.25004 0.370424 8.25004C0.574954 8.25004 0.740848 8.08415 0.740848 7.87962V5.58328H3.31367C3.35487 5.59775 3.39662 5.61112 3.43892 5.62283L6.54861 6.47886C5.85757 7.53776 5.24801 8.65159 4.72615 9.80571H0.740848V9.36113C0.740848 9.1566 0.574954 8.99089 0.370424 8.99089C0.165894 8.99089 0 9.1566 0 9.36113V10.1761C0 10.3807 0.165894 10.5466 0.370424 10.5466H1.69135V23.6601C1.69135 23.8648 1.85725 24.0305 2.06178 24.0305H21.9383C22.1429 24.0305 22.3087 23.8648 22.3087 23.6601V21.5093C22.3087 21.3048 22.1429 21.1389 21.9383 21.1389C21.7336 21.1389 21.5679 21.3048 21.5679 21.5093V23.2898H14.2222V10.7743C15.2714 12.7616 15.9817 14.9224 16.3085 17.155C16.3301 17.3028 16.4385 17.4231 16.5834 17.4601C16.6138 17.468 16.6445 17.4716 16.6751 17.4716C16.7896 17.4716 16.8998 17.4185 16.9708 17.3242C17.5033 16.6178 17.9984 15.8616 18.4454 15.072C19.1939 15.5818 19.9207 16.1502 20.6103 16.7654C20.7265 16.869 20.8953 16.889 21.0325 16.815C21.1696 16.7412 21.246 16.5894 21.2233 16.4353C20.9276 14.418 20.3762 12.4342 19.5947 10.5466H21.5677V20.0276C21.5677 20.2323 21.7336 20.398 21.9381 20.398C22.1429 20.398 22.3086 20.2323 22.3086 20.0276V10.5466H23.6297C23.8342 10.5466 23.9999 10.3807 23.9999 10.1761V5.21304C24.0001 5.00833 23.8344 4.84262 23.6297 4.84262ZM18.8784 0.911694C19.2089 0.754955 19.5774 0.744335 19.9163 0.882031C20.2547 1.01954 20.511 1.28377 20.6383 1.62636L21.2303 3.21773C21.3577 3.56051 21.3359 3.92855 21.1693 4.25393C21.0028 4.57913 20.717 4.81167 20.3647 4.90854L14.4685 6.53177V4.75162C15.7938 3.94009 19.0978 2.26631 19.9201 3.42702C20.0382 3.59383 20.2693 3.63357 20.4363 3.51528C20.6033 3.397 20.6428 3.16573 20.5246 2.99892C19.8899 2.10298 18.5525 2.0594 16.5491 2.86965C15.7239 3.20327 14.962 3.6105 14.4685 3.89303V3.61965C14.4685 3.42135 14.4273 3.23238 14.3533 3.06081L18.8784 0.911694ZM10.9465 2.94564H13.0536C13.4253 2.94564 13.7277 3.24813 13.7277 3.61965V6.68137C13.7277 7.05308 13.4253 7.35539 13.0536 7.35539H10.9465C10.5748 7.35539 10.2724 7.05308 10.2724 6.68137V3.61965C10.2724 3.24795 10.5748 2.94564 10.9465 2.94564ZM10.3239 9.80553C10.6782 9.21684 11.0638 8.64628 11.4787 8.09623H12.521C12.9361 8.64628 13.3217 9.21684 13.6758 9.80553H10.3239ZM2.83082 4.25393C2.6642 3.92855 2.64241 3.56051 2.76966 3.21792L3.36201 1.62617C3.48909 1.28377 3.74544 1.01954 4.08382 0.882031C4.42256 0.744335 4.79116 0.754955 5.12148 0.911694L9.64677 3.06118C9.57279 3.23257 9.53159 3.42135 9.53159 3.61984V3.91427C9.03977 3.63119 8.26065 3.21187 7.41434 2.86965C5.41116 2.0594 4.07356 2.10298 3.43892 2.99892C3.32063 3.16573 3.36018 3.397 3.52718 3.51528C3.69417 3.63357 3.92525 3.59402 4.04335 3.42702C4.87337 2.25533 8.23172 3.97177 9.53159 4.77414V6.53177L3.63557 4.90872C3.28309 4.81167 2.99727 4.57913 2.83082 4.25393ZM9.69785 7.34586C9.88224 7.69084 10.2052 7.95103 10.5921 8.05119C8.85978 10.4682 7.66721 13.2454 7.10782 16.1644C6.71432 15.5895 6.34646 14.9869 6.00973 14.3645C5.96047 14.2733 5.87551 14.207 5.77499 14.1816C5.67464 14.1561 5.56826 14.1739 5.48165 14.2305C4.86477 14.6328 4.2607 15.074 3.67732 15.5479C4.27809 12.3945 5.51937 9.35381 7.29935 6.68558L9.69785 7.34586ZM2.4322 10.5466H4.40535C3.62386 12.4342 3.07252 14.4178 2.77662 16.4353C2.7541 16.5894 2.83027 16.7412 2.96742 16.815C3.10475 16.8888 3.27339 16.869 3.38966 16.7654C4.07924 16.1502 4.80599 15.5818 5.55471 15.072C6.00167 15.8616 6.49661 16.6176 7.02926 17.3242C7.10031 17.4185 7.21054 17.4718 7.32498 17.4718C7.35556 17.4718 7.38632 17.468 7.41672 17.4601C7.56155 17.4231 7.66977 17.3028 7.69138 17.155C8.0184 14.9224 8.72867 12.7614 9.77769 10.7742V23.2898H2.4322V10.5466ZM10.5185 23.2898V10.5466H13.4816V23.2898H10.5185ZM18.5184 14.2305C18.4318 14.1739 18.3253 14.1563 18.2251 14.1818C18.1248 14.2072 18.0396 14.2735 17.9904 14.3645C17.6536 14.9869 17.2858 15.5897 16.8923 16.1644C16.3329 13.2452 15.1403 10.4682 13.4078 8.05137C13.7947 7.9514 14.1179 7.69102 14.3022 7.34586L16.7013 6.6854C18.4809 9.35417 19.7222 12.3948 20.323 15.5479C19.7394 15.074 19.1353 14.6328 18.5184 14.2305ZM23.2593 9.80571H19.2741C18.7523 8.65159 18.1427 7.53776 17.4519 6.47886L20.5612 5.62283C20.6035 5.61112 20.6452 5.59775 20.6864 5.58328H23.2593V9.80571Z" fill="black"/>
</g>
<defs>
<clipPath id="clip0_1443_8481">
<rect width="24" height="24" fill="white"/>
</clipPath>
</defs>
</svg>
