<svg width="24" height="24" viewBox="0 0 24 24" fill="none" xmlns="http://www.w3.org/2000/svg">
<g clip-path="url(#clip0_1443_8499)">
<path d="M21.5708 7.61648V9.59329C21.5708 9.99051 21.2486 10.3128 20.8513 10.3128H3.14858C2.75136 10.3128 2.42957 9.99055 2.42957 9.59329V7.61648C2.42957 7.21926 2.75136 6.89746 3.14858 6.89746H20.8513C21.2485 6.89746 21.5708 7.21926 21.5708 7.61648Z" fill="#FFD371"/>
<path d="M6.66139 6.89746V10.3128H3.14858C2.75136 10.3128 2.42957 9.99055 2.42957 9.59329V7.61648C2.42957 7.21926 2.75136 6.89746 3.14858 6.89746H6.66139Z" fill="#DEAF50"/>
<path d="M14.5702 0H9.4298C8.96948 0 8.59631 0.373172 8.59631 0.833484V4.40648H15.4036V0.833484C15.4036 0.373172 15.0305 0 14.5702 0Z" fill="#E6E6E6"/>
<path d="M5.82442 20.4648V23.4556C5.82442 23.7563 5.58001 24.0002 5.27926 24.0002H3.5454C3.24418 24.0002 3.00024 23.7563 3.00024 23.4556V20.4648H5.82442Z" fill="#333333"/>
<path d="M20.9998 20.4648V23.4556C20.9998 23.7563 20.7559 24.0002 20.4552 24.0002H18.7208C18.42 24.0002 18.1761 23.7563 18.1761 23.4556V20.4648H20.9998Z" fill="#333333"/>
<path d="M5.82436 20.4648V23.4556C5.82436 23.7563 5.57995 24.0002 5.2792 24.0002H4.47155C4.17033 24.0002 3.92639 23.7563 3.92639 23.4556V20.4648H5.82436Z" fill="#666666"/>
<path d="M20.9997 20.4648V23.4556C20.9997 23.7563 20.7558 24.0002 20.4551 24.0002H19.6469C19.3462 24.0002 19.1023 23.7563 19.1023 23.4556V20.4648H20.9997Z" fill="#666666"/>
<path d="M5.82413 20.4648H3V22.3625H5.82413V20.4648Z" fill="#333333"/>
<path d="M20.9994 20.4648H18.1758V22.3625H20.9994V20.4648Z" fill="#333333"/>
<path d="M20.1116 11.576H3.88879L4.29965 5.07424C4.3604 4.11738 5.15404 3.37207 6.11334 3.37207H17.8872C18.0366 3.37207 18.1823 3.39012 18.3217 3.42471C19.0755 3.60973 19.6496 4.26635 19.7003 5.0742L20.1116 11.576Z" fill="#A5E5DF"/>
<path d="M20.1115 11.5761H17.6826L17.6213 4.05054L18.3216 3.4248C19.0754 3.60982 19.6494 4.26645 19.7002 5.07429L20.1115 11.5761Z" fill="#C3F4EE"/>
<path d="M3.88855 11.5761H6.31752L6.37874 4.05054L5.67852 3.4248C4.92467 3.60982 4.35069 4.26645 4.29988 5.07429L3.88855 11.5761Z" fill="#82BFB8"/>
<path d="M20.1115 11.5759H19.1899C19.1417 10.5556 18.2994 9.74316 17.2672 9.74316H6.7327C5.70052 9.74316 4.85822 10.5556 4.81003 11.5759H3.88847C2.8253 11.5759 1.9635 12.4377 1.9635 13.5009V18.2959H22.0364V13.5009C22.0365 12.4377 21.1746 11.5759 20.1115 11.5759Z" fill="#FFD371"/>
<path d="M7.81587 9.74316C6.99561 9.74316 6.3267 10.5554 6.28831 11.5758H5.55631C4.71186 11.5758 4.02729 12.4378 4.02729 13.5009V18.2957H1.96362V13.5009C1.96362 12.4378 2.82561 11.5758 3.88878 11.5758H4.81011C4.85848 10.5554 5.70054 9.74316 6.73292 9.74316H7.81587Z" fill="#DEAF50"/>
<path d="M6.80629 14.9225C6.80629 15.8138 6.08329 16.5369 5.19145 16.5369C4.98792 16.5369 4.79296 16.4994 4.61362 16.4301C4.00734 16.1977 3.57703 15.6104 3.57703 14.9225C3.57703 14.2341 4.00729 13.6469 4.61362 13.4144C4.79292 13.3451 4.98792 13.3076 5.19145 13.3076C6.08329 13.3076 6.80629 14.0306 6.80629 14.9225Z" fill="#C3F4EE"/>
<path d="M20.4227 14.9225C20.4227 15.8138 19.7002 16.5369 18.8083 16.5369C18.6047 16.5369 18.4098 16.4989 18.2304 16.4301C17.6242 16.1977 17.1938 15.6104 17.1938 14.9225C17.1938 14.2346 17.6241 13.6469 18.2304 13.4144C18.4097 13.3455 18.6047 13.3076 18.8083 13.3076C19.7002 13.3076 20.4227 14.0306 20.4227 14.9225Z" fill="#C3F4EE"/>
<path d="M5.65068 14.9212C5.65068 15.6091 5.2199 16.1969 4.61362 16.4288C4.00734 16.1964 3.57703 15.6091 3.57703 14.9212C3.57703 14.2328 4.00729 13.6455 4.61362 13.4131C5.21995 13.645 5.65068 14.2328 5.65068 14.9212Z" fill="#A5E5DF"/>
<path d="M19.2676 14.9212C19.2676 15.6091 18.8374 16.1964 18.2306 16.4288C17.6243 16.1964 17.194 15.6091 17.194 14.9212C17.194 14.2333 17.6242 13.6455 18.2306 13.4131C18.8373 13.6455 19.2676 14.2328 19.2676 14.9212Z" fill="#A5E5DF"/>
<path d="M5.19164 16.9043C4.09879 16.9043 3.20972 16.0152 3.20972 14.9224C3.20972 13.8295 4.09879 12.9404 5.19164 12.9404C6.28448 12.9404 7.17356 13.8295 7.17356 14.9224C7.17356 16.0152 6.28439 16.9043 5.19164 16.9043ZM5.19164 13.6751C4.50394 13.6751 3.94444 14.2346 3.94444 14.9223C3.94444 15.61 4.50394 16.1695 5.19164 16.1695C5.87934 16.1695 6.43884 15.61 6.43884 14.9223C6.43884 14.2346 5.87934 13.6751 5.19164 13.6751Z" fill="#DEAF50"/>
<path d="M18.8085 16.9043C17.7156 16.9043 16.8265 16.0152 16.8265 14.9224C16.8265 13.8295 17.7156 12.9404 18.8085 12.9404C19.9013 12.9404 20.7904 13.8295 20.7904 14.9224C20.7904 16.0152 19.9013 16.9043 18.8085 16.9043ZM18.8085 13.6751C18.1208 13.6751 17.5613 14.2346 17.5613 14.9223C17.5613 15.61 18.1208 16.1695 18.8085 16.1695C19.4962 16.1695 20.0557 15.61 20.0557 14.9223C20.0557 14.2346 19.4962 13.6751 18.8085 13.6751Z" fill="#DEAF50"/>
<path d="M21.5752 21.1759H2.42474C1.62946 21.1759 0.984741 20.5312 0.984741 19.7359C0.984741 18.9406 1.62946 18.2959 2.42474 18.2959H21.5751C22.3704 18.2959 23.0151 18.9406 23.0151 19.7359C23.0152 20.5312 22.3705 21.1759 21.5752 21.1759Z" fill="#E6E6E6"/>
<path d="M3.91914 20.3384C3.12386 20.3384 2.47914 19.6937 2.47914 18.8984C2.47914 18.6832 2.52672 18.4792 2.61133 18.2959H2.42486C1.62958 18.2959 0.984863 18.9406 0.984863 19.7359C0.984863 20.5312 1.62958 21.1759 2.42486 21.1759H21.5752C22.1553 21.1759 22.6549 20.8327 22.883 20.3384H3.91914Z" fill="#B3B3B3"/>
<path d="M13.929 13.3213H10.0709C9.20831 13.3213 8.50903 14.0206 8.50903 14.8832V16.6376H15.4909V14.8832C15.4909 14.0206 14.7916 13.3213 13.929 13.3213Z" fill="#333333"/>
<path d="M19.7007 5.07429L19.7519 5.88504H19.7514C19.4346 5.38741 18.8648 5.06051 18.221 5.06051H5.7797C5.13545 5.06051 4.56521 5.38784 4.24829 5.88551L4.29953 5.07424C4.36028 4.11738 5.15392 3.37207 6.11321 3.37207H17.887C18.8463 3.37207 19.64 4.11743 19.7007 5.07429Z" fill="#FFD371"/>
<path d="M8.02583 3.37212C7.07131 3.37212 6.28048 4.1103 6.21312 5.06055H5.77953C5.13528 5.06055 4.56509 5.38788 4.24817 5.88551L4.2994 5.07424C4.36015 4.11738 5.15379 3.37207 6.11309 3.37207L8.02583 3.37212Z" fill="#DEAF50"/>
<path d="M13.929 12.9541H10.0709C9.0071 12.9541 8.1416 13.8195 8.1416 14.8834V16.6379C8.1416 16.8407 8.30604 17.0052 8.50896 17.0052H15.4908C15.6937 17.0052 15.8582 16.8407 15.8582 16.6379V14.8834C15.8583 13.8196 14.9929 12.9541 13.929 12.9541ZM10.4383 13.6888H11.6327V16.2705H10.4383V13.6888ZM12.3674 13.6888H13.5618V16.2705H12.3674V13.6888ZM8.87641 14.8833C8.87641 14.3528 9.22418 13.9022 9.70362 13.7468V16.2704H8.87641V14.8833ZM15.1235 16.2705H14.2964V13.7469C14.7758 13.9022 15.1235 14.3529 15.1235 14.8834V16.2705Z" fill="#DEAF50"/>
<path d="M14.3462 0.787109H13.4077V1.72555H14.3462V0.787109Z" fill="#4D4D4D"/>
<path d="M13.4077 1.72559H12.4692V2.66402H13.4077V1.72559Z" fill="#4D4D4D"/>
<path d="M12.4693 0.787109H11.5309V1.72555H12.4693V0.787109Z" fill="#4D4D4D"/>
<path d="M11.5308 1.72559H10.5924V2.66402H11.5308V1.72559Z" fill="#4D4D4D"/>
<path d="M10.5924 0.787109H9.65393V1.72555H10.5924V0.787109Z" fill="#4D4D4D"/>
</g>
<defs>
<clipPath id="clip0_1443_8499">
<rect width="24" height="24" fill="white"/>
</clipPath>
</defs>
</svg>
