<svg width="24" height="25" viewBox="0 0 24 25" fill="none" xmlns="http://www.w3.org/2000/svg">
    <path d="M14.55 2.88672H9.45C7.65 2.88672 7.25 3.78673 7.02 4.89673L6.2 8.81671H17.8L16.98 4.89673C16.75 3.78673 16.35 2.88672 14.55 2.88672Z" stroke="white" stroke-width="1.5" stroke-linecap="round" stroke-linejoin="round"/>
    <path d="M19.24 15.2067C19.32 16.0567 18.64 16.7867 17.77 16.7867H16.41C15.63 16.7867 15.52 16.4567 15.38 16.0367L15.23 15.6066C15.03 15.0166 14.9 14.6166 13.85 14.6166H10.14C9.09999 14.6166 8.93999 15.0666 8.75999 15.6066L8.60999 16.0367C8.46999 16.4467 8.35999 16.7867 7.57999 16.7867H6.21999C5.34999 16.7867 4.66999 16.0567 4.74999 15.2067L5.16 10.7867C5.26 9.69668 5.46999 8.80664 7.36999 8.80664H16.62C18.52 8.80664 18.73 9.69668 18.83 10.7867L19.24 15.2067Z" stroke="white" stroke-width="1.5" stroke-linecap="round" stroke-linejoin="round"/>
    <path d="M6.2 6.63672H5.47" stroke="white" stroke-width="1.5" stroke-linecap="round" stroke-linejoin="round"/>
    <path d="M18.53 6.63672H17.8" stroke="white" stroke-width="1.5" stroke-linecap="round" stroke-linejoin="round"/>
    <path d="M7.64999 11.7168H9.82001" stroke="white" stroke-width="1.5" stroke-linecap="round" stroke-linejoin="round"/>
    <path d="M14.18 11.7168H16.35" stroke="white" stroke-width="1.5" stroke-linecap="round" stroke-linejoin="round"/>
    <path d="M12 17.8867V18.8867" stroke="white" stroke-width="1.5" stroke-linecap="round" stroke-linejoin="round"/>
    <path d="M12 21.8867V22.8867" stroke="white" stroke-width="1.5" stroke-linecap="round" stroke-linejoin="round"/>
    <path d="M3 18.8867L2 22.8867" stroke="white" stroke-width="1.5" stroke-linecap="round" stroke-linejoin="round"/>
    <path d="M21 18.8867L22 22.8867" stroke="white" stroke-width="1.5" stroke-linecap="round" stroke-linejoin="round"/>
</svg>
