<svg xmlns="http://www.w3.org/2000/svg" version="1.1" xmlns:xlink="http://www.w3.org/1999/xlink" width="512" height="512" x="0" y="0" viewBox="0 0 512 512" style="enable-background:new 0 0 512 512" xml:space="preserve" class=""><g><path d="M249.3 144.234c-54.992 0-99.73 44.739-99.73 99.73s44.739 99.73 99.73 99.73 99.73-44.739 99.73-99.73-44.739-99.73-99.73-99.73zm0 183.461c-46.169 0-83.73-37.562-83.73-83.73s37.562-83.73 83.73-83.73 83.73 37.562 83.73 83.73-37.561 83.73-83.73 83.73zm25.458-93.153c6.382-6.467 10.33-15.341 10.33-25.123 0-19.733-16.055-35.788-35.788-35.788s-35.788 16.055-35.788 35.788c0 9.781 3.948 18.656 10.33 25.122-20.037 8.825-34.673 27.801-37.14 50.86a8 8 0 0 0 7.954 8.851h109.286a8 8 0 0 0 7.954-8.851c-2.466-23.058-17.101-42.034-37.138-50.859zm-45.246-25.123c0-10.911 8.877-19.788 19.788-19.788s19.788 8.877 19.788 19.788-8.877 19.788-19.788 19.788-19.788-8.876-19.788-19.788zm-25.089 68.834c5.944-19.346 23.894-33.046 44.877-33.046 20.982 0 38.932 13.7 44.876 33.046zm-68.544-163.879a7.998 7.998 0 0 1-10.929 2.928l-19.883-11.479a7.999 7.999 0 0 1-4-6.928V69.113a8 8 0 0 1 16 0v25.162l15.883 9.171a8 8 0 0 1 2.929 10.928zm-34.812-71.357v-6.793a8 8 0 0 1 16 0v6.793a8 8 0 0 1-16 0zm41.854 22.023a8 8 0 0 1 0-11.313l4.804-4.804c3.125-3.123 8.19-3.123 11.314.001a8 8 0 0 1 0 11.313l-4.804 4.804a7.976 7.976 0 0 1-5.657 2.343 7.98 7.98 0 0 1-5.657-2.344zm16.118 83.825c-1.562 1.562-3.61 2.344-5.657 2.344s-4.094-.781-5.657-2.343l-4.804-4.804a8 8 0 0 1 11.314-11.314l4.804 4.804a8 8 0 0 1 0 11.313zm-83.826-16.117a8 8 0 0 1 0 11.314l-4.804 4.804c-1.562 1.562-3.609 2.343-5.657 2.343s-4.095-.781-5.657-2.343a8 8 0 0 1 0-11.314l4.804-4.804a8.003 8.003 0 0 1 11.314 0zm0-79.022A8 8 0 0 1 63.899 65.04l-4.804-4.804a8 8 0 0 1 11.313-11.314zm89.731 37.168h6.793a8 8 0 0 1 0 16h-6.793a8 8 0 0 1 0-16zm-47.877 63.877v6.793a8 8 0 0 1-16 0v-6.793a8 8 0 0 1 16 0zM53.19 106.894h-6.793a8 8 0 0 1 0-16h6.793a8 8 0 0 1 0 16zm446.798 233.019-31.983-31.982c-2.625-2.624-5.974-4.012-9.685-4.012h-78.8a142.415 142.415 0 0 0 8.185-22.549l22.293-8.581a8 8 0 0 0 5.126-7.466v-42.718a8 8 0 0 0-5.126-7.466l-22.286-8.578a142.355 142.355 0 0 0-14.098-34.008l9.7-21.839a8 8 0 0 0-1.655-8.904l-30.207-30.206a8.004 8.004 0 0 0-8.904-1.654l-21.846 9.703a142.414 142.414 0 0 0-33.997-14.096l-8.581-22.293a8 8 0 0 0-7.466-5.126h-42.717a8 8 0 0 0-7.466 5.126l-8.582 22.294a142.5 142.5 0 0 0-17.008 5.766c.586-4.061.895-8.21.895-12.43 0-47.813-38.899-86.713-86.713-86.713s-86.713 38.9-86.713 86.713 38.899 86.713 86.713 86.713c3.222 0 6.402-.183 9.534-.527a142.242 142.242 0 0 0-7.711 21.48l-22.29 8.58a8 8 0 0 0-5.126 7.466v42.718a8 8 0 0 0 5.126 7.466l22.286 8.578a142.352 142.352 0 0 0 14.098 34.008l-9.699 21.838a8 8 0 0 0 1.654 8.904l30.207 30.207a8.001 8.001 0 0 0 8.904 1.654l21.848-9.703a142.428 142.428 0 0 0 33.997 14.095l8.581 22.293a8 8 0 0 0 7.466 5.126h42.718a8 8 0 0 0 7.466-5.126l8.578-22.287a142.324 142.324 0 0 0 34.008-14.098l21.837 9.7a7.975 7.975 0 0 0 2.103.593v107.551c0 7.552 6.144 13.696 13.696 13.696h131.956c7.552 0 13.696-6.145 13.696-13.696V349.597c0-3.712-1.388-7.061-4.012-9.684zm-31.308-8.681 8.005 8.005h-8.005zM38.354 98.894c0-38.991 31.722-70.713 70.713-70.713s70.713 31.722 70.713 70.713-31.722 70.713-70.713 70.713-70.713-31.722-70.713-70.713zm306.297 218.721v42.884l-.627.627-20.601-9.15a7.998 7.998 0 0 0-7.442.5 126.453 126.453 0 0 1-37.108 15.382 8.001 8.001 0 0 0-5.615 4.909l-8.091 21.022h-31.732l-8.094-21.028a7.996 7.996 0 0 0-5.614-4.908 126.535 126.535 0 0 1-37.099-15.381 7.997 7.997 0 0 0-7.441-.499l-20.61 9.153-22.439-22.438 9.15-20.602a7.998 7.998 0 0 0-.5-7.442 126.472 126.472 0 0 1-15.383-37.108 8 8 0 0 0-4.909-5.613l-21.021-8.092V228.1l21.025-8.094a8.002 8.002 0 0 0 4.909-5.614c2.853-11.99 7.45-23.45 13.633-34.127 22.82-8.433 41.148-26.208 50.326-48.659a126.577 126.577 0 0 1 30.357-11.53 7.996 7.996 0 0 0 5.614-4.908l8.095-21.028h31.732l8.094 21.028a7.996 7.996 0 0 0 5.614 4.908 126.488 126.488 0 0 1 37.099 15.382 8.001 8.001 0 0 0 7.442.499l20.609-9.153 22.438 22.438-9.149 20.602a8.001 8.001 0 0 0 .499 7.442 126.453 126.453 0 0 1 15.383 37.108 8 8 0 0 0 4.909 5.614l21.021 8.092v31.731l-21.028 8.095a8.002 8.002 0 0 0-4.909 5.613 126.488 126.488 0 0 1-11.523 30.381h-3.318c-7.552-.002-13.696 6.143-13.696 13.695zm16 166.204v-163.9h92.029v24.472c0 5.981 4.867 10.848 10.848 10.848H488V483.82H360.651zm115.703-75.214a8 8 0 0 1-8 8h-88.058a8 8 0 0 1 0-16h88.058a8 8 0 0 1 8 8zm0 30.065a8 8 0 0 1-8 8h-88.058a8 8 0 0 1 0-16h88.058a8 8 0 0 1 8 8zm0-60.129a8 8 0 0 1-8 8h-88.058a8 8 0 0 1 0-16h88.058a8 8 0 0 1 8 8zM311.56 451.679a8 8 0 0 1-5.737 9.751c-18.362 4.76-37.38 7.173-56.523 7.173-60.003 0-116.415-23.366-158.843-65.795-42.429-42.429-65.795-98.841-65.795-158.844 0-7.148.358-14.286 1.029-21.383l-3.705 4.177a8 8 0 0 1-11.968-10.619l21.79-24.561a8.017 8.017 0 0 1 7.17-2.604 8.003 8.003 0 0 1 6.092 4.59l13.634 29.87a8.001 8.001 0 0 1-3.956 10.6 7.965 7.965 0 0 1-3.317.725 8.001 8.001 0 0 1-7.283-4.68l-2.564-5.619c-.6 6.473-.921 12.983-.921 19.503 0 115.044 93.595 208.639 208.639 208.639 17.79 0 35.457-2.241 52.509-6.661a7.999 7.999 0 0 1 9.749 5.738zM209.352 30.85a8.002 8.002 0 0 1 6.741-9.087 227.408 227.408 0 0 1 33.207-2.438c60.003 0 116.415 23.366 158.844 65.795 39.859 39.859 62.891 92.06 65.535 147.985l3.291-4.918a8 8 0 1 1 13.298 8.897l-18.259 27.29a8 8 0 0 1-6.648 3.552l-.102-.001a8.003 8.003 0 0 1-6.659-3.721l-17.558-27.745a8 8 0 0 1 13.52-8.557l3.074 4.858C451.794 122.906 360.584 35.326 249.3 35.326c-10.334 0-20.717.762-30.861 2.265-4.372.651-8.439-2.371-9.087-6.741z" fill="#000000" opacity="1" data-original="#000000"></path></g></svg>