<svg width="37" height="12" viewBox="0 0 37 12" fill="none" xmlns="http://www.w3.org/2000/svg">
<path fill-rule="evenodd" clip-rule="evenodd" d="M9.13181 11.9065H5.97074L3.60032 2.59722C3.48781 2.16899 3.24892 1.79042 2.89752 1.61199C2.02056 1.16359 1.0542 0.80674 0 0.626761V0.268354H5.09224C5.79504 0.268354 6.32214 0.80674 6.40999 1.43201L7.6399 8.14709L10.7994 0.268354H13.8727L9.13181 11.9065ZM15.6297 11.9065H12.6443L15.1026 0.268354H18.0879L15.6297 11.9065ZM21.9503 3.49252C22.0381 2.8657 22.5652 2.50729 23.1802 2.50729C24.1465 2.4173 25.1992 2.59728 26.0777 3.04413L26.6048 0.538385C25.7263 0.179979 24.7599 0 23.883 0C20.9855 0 18.8771 1.61205 18.8771 3.84938C18.8771 5.55142 20.3705 6.44511 21.4247 6.9835C22.5652 7.52033 23.0045 7.87874 22.9166 8.41557C22.9166 9.22082 22.0381 9.57923 21.1612 9.57923C20.107 9.57923 19.0528 9.31081 18.0879 8.86241L17.5608 11.3697C18.615 11.8166 19.7556 11.9965 20.8098 11.9965C24.0587 12.085 26.0777 10.4745 26.0777 8.05716C26.0777 5.01304 21.9503 4.83461 21.9503 3.49252V3.49252ZM36.5257 11.9065L34.1553 0.268354H31.6092C31.0821 0.268354 30.555 0.626761 30.3793 1.16359L25.9899 11.9065H29.0631L29.6765 10.206H33.4525L33.8039 11.9065H36.5257ZM32.0485 3.40266L32.9254 7.78888H30.4672L32.0485 3.40266Z" fill="#172B85"/>
</svg>
